<svg width="48" height="48" viewBox="0 0 48 48" fill="none" xmlns="http://www.w3.org/2000/svg">
  <rect width="48" height="48" rx="24" fill="#FEEFEB"/>
  <path
    d="M38.3977 28.2973C38.3085 27.923 38.122 27.5788 37.857 27.2997C37.592 27.0206 37.258 26.8165 36.8887 26.708C36.5194 26.5996 36.1281 26.5906 35.7542 26.6821C35.3804 26.7736 35.0374 26.9622 34.7599 27.2289C33.1766 28.5974 31.5656 29.9439 29.996 31.3223C29.3909 31.8998 28.5862 32.2215 27.7497 32.2201C26.0859 32.238 24.1255 32.2663 22.2132 32.3821C22.046 32.4015 21.8767 32.3742 21.724 32.3033C21.5714 32.2323 21.4414 32.1205 21.3484 31.9802C21.2714 31.8459 21.2338 31.6926 21.2401 31.5379C21.2464 31.3832 21.2964 31.2335 21.3841 31.1059C21.4719 30.9784 21.5939 30.8782 21.7361 30.8171C21.8783 30.7559 22.0349 30.7361 22.1878 30.7601C23.8598 30.6796 25.5909 30.6145 27.2426 30.5246C28.8883 30.6011 29.8534 28.5522 28.6747 27.3953C28.5083 27.2051 28.3015 27.0546 28.0694 26.9547C27.8372 26.8549 27.5857 26.8084 27.3332 26.8184C25.4274 26.8241 23.5463 26.8459 21.6298 26.848C18.6821 26.8202 16.1376 26.5416 14.2127 29.2387C13.0886 30.8415 11.9168 32.5432 10.7654 34.1408C10.693 34.2428 10.6639 34.3692 10.6843 34.4925C10.7048 34.6158 10.7731 34.726 10.8744 34.7992L16.8378 39.0783C16.9308 39.1456 17.0453 39.1765 17.1595 39.1652C17.2738 39.1538 17.3799 39.1009 17.4578 39.0166C17.639 38.8529 17.8515 38.7277 18.0826 38.6487C18.3136 38.5697 18.5583 38.5385 18.8018 38.557C21.7192 38.4055 24.7672 38.2412 27.7029 38.1158C28.9988 38.0829 30.2315 37.5487 31.1416 36.6255C32.5587 35.2383 34.0144 33.8528 35.4241 32.5075C36.4836 31.2991 38.7346 30.0836 38.3977 28.2973Z"
    fill="#bb202e"/>
  <path
    d="M13 14C13 11.7909 14.7909 10 17 10H31.5C33.7091 10 35.5 11.7909 35.5 14V20C35.5 22.2091 33.7091 24 31.5 24H17C14.7909 24 13 22.2091 13 20V14Z"
    fill="#bb202e"/>
  <path
    d="M26.9635 18.8756C26.9635 20.1106 26.0597 20.9128 24.737 21.0711V22H23.9986V21.0817C22.7641 20.9972 21.8493 20.3956 21.4635 19.4139L22.7751 18.6856C23.0066 19.245 23.4144 19.5722 23.9986 19.6461V17.82C23.9875 17.82 23.9875 17.82 23.9875 17.82L23.9655 17.8094C23.4475 17.63 23.205 17.5244 22.7641 17.2606C22.1689 16.9017 21.8493 16.395 21.8052 15.5506C21.8052 14.9278 22.0146 14.4317 22.4334 14.0622C22.8633 13.6928 23.3813 13.4711 23.9986 13.4183V12.5H24.737V13.4394C25.7401 13.5556 26.4455 14.0517 26.8533 14.9278L25.5747 15.6456C25.3984 15.2233 25.1228 14.97 24.737 14.875V16.6378C25.4204 16.9017 25.8833 17.1022 26.1148 17.2606C26.6769 17.6511 26.9635 18.1894 26.9635 18.8756ZM23.3152 15.5611C23.3152 15.8672 23.5026 16.0783 23.9986 16.3211V14.8433C23.5577 14.9278 23.3152 15.1917 23.3152 15.5611ZM24.737 18.105V19.625C25.211 19.53 25.4425 19.2767 25.4425 18.8861C25.4425 18.5378 25.222 18.3161 24.737 18.105Z"
    fill="#FEEFEB"/>
</svg>
