<svg width="48" height="48" viewBox="0 0 48 48" fill="none" xmlns="http://www.w3.org/2000/svg">
  <rect width="48" height="48" rx="24" fill="#FEEFEB"/>
  <path fill-rule="evenodd" clip-rule="evenodd"
        d="M34.2033 32.7912L29.9329 30.3259C29.1031 29.8468 28.0323 30.1322 27.5535 30.9628L27.385 31.2551C26.9583 31.9953 26.3019 32.467 25.4651 32.6385C24.6316 32.8092 23.8367 32.6305 23.1562 32.12C21.7594 31.0721 20.4399 29.9151 19.2054 28.6806C17.9712 27.4463 16.8142 26.127 15.7666 24.7304C15.2561 24.0497 15.0767 23.2548 15.2475 22.421C15.4189 21.5843 15.8916 20.9289 16.6313 20.502L16.9234 20.3335C17.3284 20.0997 17.612 19.7258 17.7331 19.2745C17.8537 18.8251 17.7938 18.3572 17.5611 17.9542L15.0955 13.6838C14.6577 12.9255 13.7542 12.6245 12.9414 12.9365L12.8884 12.9568C12.0506 13.2782 9.74168 14.1216 9.12118 14.7421C7.28624 16.5771 8.07137 19.8967 8.88999 22.0091C10.3237 25.7088 13.0432 29.2696 15.8302 32.0563C18.6169 34.8426 22.1776 37.563 25.8768 38.9966C27.1603 39.494 28.6046 39.8866 29.9902 39.8866C31.1498 39.8866 32.3041 39.6058 33.1445 38.7654C33.736 38.1739 34.6133 35.7926 34.9348 34.984L34.9555 34.932C35.2764 34.1247 34.9533 33.2241 34.2033 32.7912ZM32.8879 16.0391C33.085 16.1098 33.2554 16.2396 33.3758 16.4108C33.4963 16.582 33.5609 16.7862 33.5609 16.9955V21.8581H33.7502C34.3109 21.8581 34.7662 22.3134 34.7662 22.8741C34.7662 23.4354 34.3116 23.8901 33.7502 23.8901H33.5609V25.0148C33.5609 25.5761 33.1057 26.0305 32.5449 26.0305C31.9839 26.0305 31.5292 25.5761 31.5292 25.0148V23.8901H27.7069C27.5144 23.8901 27.3259 23.8354 27.1633 23.7324C27.0006 23.6294 26.8706 23.4824 26.7882 23.3084C26.706 23.1343 26.675 22.9404 26.6987 22.7494C26.7224 22.5583 26.7999 22.3779 26.9221 22.2291L31.7602 16.3496C31.8933 16.1881 32.0731 16.0716 32.2749 16.016C32.4768 15.9604 32.6908 15.9685 32.8879 16.0391ZM31.5292 21.8581H29.8591L31.5292 19.8288V21.8581ZM24.6433 19.8521C24.8299 19.1683 24.7203 18.6591 24.3156 18.3389C23.8451 17.9669 23.0615 17.901 22.5313 18.1897C22.1497 18.3976 21.9882 18.748 22.0371 19.2617C22.0912 19.8203 21.6821 20.317 21.1235 20.3703C20.5646 20.4245 20.0689 20.0147 20.0149 19.4567C19.8864 18.1217 20.4492 17.0092 21.559 16.4048C22.8101 15.7243 24.4624 15.8638 25.5766 16.746C26.6327 17.5813 27.0072 18.9091 26.6034 20.3873C26.3285 21.3946 25.3771 22.1363 24.371 22.9223C23.9415 23.2571 23.485 23.6133 23.0711 23.9988H26.0232C26.5843 23.9988 27.039 24.4541 27.039 25.0148C27.039 25.5761 26.5843 26.0305 26.0232 26.0305H21.0028C20.8307 26.0306 20.6614 25.9869 20.5107 25.9036C20.3601 25.8203 20.2331 25.7001 20.1417 25.5543C20.0503 25.4084 19.9975 25.2416 19.9882 25.0697C19.979 24.8978 20.0135 24.7264 20.0887 24.5715C20.78 23.1473 22.0779 22.1342 23.1206 21.3204C23.7555 20.8245 24.5459 20.2077 24.6433 19.8521ZM40 21.3459C40 24.8801 38.6234 28.2025 36.1244 30.7018C36.0301 30.7962 35.918 30.8711 35.7947 30.9222C35.6714 30.9733 35.5393 30.9996 35.4058 30.9995C35.2724 30.9996 35.1403 30.9733 35.017 30.9222C34.8938 30.8711 34.7818 30.7962 34.6876 30.7018C34.2907 30.3049 34.2907 29.6615 34.6876 29.2646C36.8026 27.1496 37.968 24.337 37.968 21.3459C37.968 15.1698 32.9439 10.1458 26.7679 10.1458C23.7764 10.1458 20.9641 11.311 18.8489 13.426C18.452 13.8228 17.8089 13.8228 17.412 13.426C17.0151 13.0291 17.0151 12.386 17.412 11.9891C19.9113 9.49039 23.2337 8.11377 26.7679 8.11377C34.0639 8.11383 40 14.0496 40 21.3459Z"
        fill="#bb202e"/>
</svg>
