<svg width="48" height="48" viewBox="0 0 48 48" fill="none" xmlns="http://www.w3.org/2000/svg">
  <rect width="48" height="48" rx="24" fill="#FEEFEB"/>
  <path
    d="M24.0888 17.5C24.3776 17.5 24.6545 17.6116 24.8587 17.8102C25.0629 18.0089 25.1776 18.2783 25.1776 18.5592V23.2432L27.4619 24.527C27.7099 24.6684 27.8903 24.8996 27.9638 25.17C28.0373 25.4404 27.9979 25.7282 27.8541 25.9704C27.7104 26.2126 27.4739 26.3897 27.1965 26.463C26.919 26.5363 26.623 26.4998 26.3731 26.3616L23.5444 24.7727C23.3793 24.6793 23.2421 24.5455 23.1466 24.3846C23.0511 24.2237 23.0006 24.0412 23 23.8554V18.5592C23 18.2783 23.1147 18.0089 23.3189 17.8102C23.5231 17.6116 23.8 17.5 24.0888 17.5Z"
    fill="#FEEFEB"/>
  <path
    d="M13 24C13 26.1756 13.6451 28.3023 14.8538 30.1113C16.0625 31.9202 17.7805 33.3301 19.7905 34.1627C21.8005 34.9952 24.0122 35.2131 26.146 34.7886C28.2798 34.3642 30.2398 33.3165 31.7782 31.7782C33.3165 30.2398 34.3642 28.2798 34.7886 26.146C35.2131 24.0122 34.9952 21.8005 34.1627 19.7905C33.3301 17.7805 31.9202 16.0625 30.1113 14.8538C28.3023 13.6451 26.1756 13 24 13C22.5555 13 21.1251 13.2845 19.7905 13.8373C18.4559 14.3901 17.2433 15.2004 16.2218 16.2218C14.1589 18.2847 13 21.0826 13 24ZM22.9 18.5C22.9 18.2083 23.0159 17.9285 23.2222 17.7222C23.4285 17.5159 23.7083 17.4 24 17.4C24.2917 17.4 24.5715 17.5159 24.7778 17.7222C24.9841 17.9285 25.1 18.2083 25.1 18.5V23.3642L27.4078 24.6974C27.6584 24.8443 27.8407 25.0844 27.9149 25.3652C27.9892 25.646 27.9493 25.9448 27.8041 26.1964C27.6589 26.4479 27.42 26.6318 27.1397 26.7079C26.8594 26.784 26.5603 26.7462 26.3078 26.6026L23.45 24.9526C23.2832 24.8556 23.1446 24.7167 23.0481 24.5496C22.9516 24.3824 22.9006 24.193 22.9 24V18.5Z"
    fill="#bb202e"/>
  <rect x="10" y="32" width="4" height="2" rx="1" fill="#bb202e"/>
  <rect x="8" y="27.5" width="4" height="2" rx="1" fill="#bb202e"/>
</svg>
