<svg width="96" height="96" viewBox="0 0 96 96" fill="none" xmlns="http://www.w3.org/2000/svg">
  <rect width="96" height="96" rx="48" fill="#FEEFEB"/>
  <path
    d="M20 39C20 36.7909 21.7909 35 24 35H72C74.2091 35 76 36.7909 76 39V63C76 65.2091 74.2091 67 72 67H24C21.7909 67 20 65.2091 20 63V39Z"
    fill="#bb202e"/>
  <path
    d="M25 31C25 29.8954 25.8954 29 27 29H69C70.1046 29 71 29.8954 71 31C71 32.1046 70.1046 33 69 33H27C25.8954 33 25 32.1046 25 31Z"
    fill="#bb202e"/>
  <path
    d="M53 54.08C53 56.42 51.3567 57.94 48.9519 58.24V60H47.6092V58.26C45.3647 58.1 43.7014 56.96 43 55.1L45.3848 53.72C45.8056 54.78 46.5471 55.4 47.6092 55.54V52.08C47.5892 52.08 47.5892 52.08 47.5892 52.08L47.5491 52.06C46.6072 51.72 46.1663 51.52 45.3647 51.02C44.2826 50.34 43.7014 49.38 43.6212 47.78C43.6212 46.6 44.002 45.66 44.7635 44.96C45.5451 44.26 46.487 43.84 47.6092 43.74V42H48.9519V43.78C50.7756 44 52.0581 44.94 52.7996 46.6L50.4749 47.96C50.1543 47.16 49.6533 46.68 48.9519 46.5V49.84C50.1944 50.34 51.0361 50.72 51.4569 51.02C52.479 51.76 53 52.78 53 54.08ZM46.3667 47.8C46.3667 48.38 46.7074 48.78 47.6092 49.24V46.44C46.8076 46.6 46.3667 47.1 46.3667 47.8ZM48.9519 52.62V55.5C49.8136 55.32 50.2345 54.84 50.2345 54.1C50.2345 53.44 49.8337 53.02 48.9519 52.62Z"
    fill="#FEEFEB"/>
</svg>
