<svg width="48" height="48" viewBox="0 0 48 48" fill="none" xmlns="http://www.w3.org/2000/svg">
  <rect width="48" height="48" rx="24" fill="#FEEFEB"/>
  <path
    d="M13.5 12C13.5 10.8954 14.3954 10 15.5 10H32.5C33.6046 10 34.5 10.8954 34.5 12V36C34.5 37.1046 33.6046 38 32.5 38H24H15.5C14.3954 38 13.5 37.1046 13.5 36V12Z"
    fill="#bb202e"/>
  <path
    d="M16.5 25C16.5 24.4477 16.9477 24 17.5 24H27C27.5523 24 28 24.4477 28 25V25C28 25.5523 27.5523 26 27 26H17.5C16.9477 26 16.5 25.5523 16.5 25V25Z"
    fill="#FEEFEB"/>
  <path
    d="M16.5 29C16.5 28.4477 16.9477 28 17.5 28H29.5C30.0523 28 30.5 28.4477 30.5 29V29C30.5 29.5523 30.0523 30 29.5 30H17.5C16.9477 30 16.5 29.5523 16.5 29V29Z"
    fill="#FEEFEB"/>
  <path
    d="M16.5 33C16.5 32.4477 16.9477 32 17.5 32H23.5C24.0523 32 24.5 32.4477 24.5 33V33C24.5 33.5523 24.0523 34 23.5 34H17.5C16.9477 34 16.5 33.5523 16.5 33V33Z"
    fill="#FEEFEB"/>
  <rect x="16.5" y="13" width="15" height="8" rx="2" fill="#FEEFEB"/>
</svg>
