<svg width="16" height="16" viewBox="0 0 16 16" fill="none" xmlns="http://www.w3.org/2000/svg">
<path d="M0 6C0 4.89543 0.89543 4 2 4H14C15.1046 4 16 4.89543 16 6V11.3333C16 12.4379 15.1046 13.3333 14 13.3333H2C0.89543 13.3333 0 12.4379 0 11.3333V6Z" fill="#979FAA"/>
<path d="M2.66663 2.66667C2.66663 2.29848 2.9651 2 3.33329 2H12.6666C13.0348 2 13.3333 2.29848 13.3333 2.66667C13.3333 3.03486 13.0348 3.33333 12.6666 3.33333H3.33329C2.9651 3.33333 2.66663 3.03486 2.66663 2.66667Z" fill="#979FAA"/>
<path d="M10 9.80745C10 10.6741 9.34268 11.2371 8.38076 11.3482V12H7.84369V11.3556C6.94589 11.2963 6.28056 10.8741 6 10.1852L6.95391 9.67411C7.12224 10.0667 7.41884 10.2963 7.84369 10.3482V9.06671C7.83567 9.06671 7.83567 9.06671 7.83567 9.06671L7.81964 9.0593C7.44289 8.93337 7.26653 8.8593 6.94589 8.67411C6.51303 8.42226 6.28056 8.06671 6.2485 7.47411C6.2485 7.03708 6.4008 6.68893 6.70541 6.42967C7.01804 6.17041 7.39479 6.01486 7.84369 5.97782V5.33337H8.38076V5.99263C9.11022 6.07411 9.62325 6.42226 9.91984 7.03708L8.98998 7.54078C8.86172 7.24448 8.66132 7.06671 8.38076 7.00004V8.23708C8.87776 8.42226 9.21443 8.563 9.38277 8.67411C9.79158 8.94819 10 9.32597 10 9.80745ZM7.34669 7.48152C7.34669 7.69634 7.48297 7.84449 7.84369 8.01486V6.97782C7.52305 7.03708 7.34669 7.22226 7.34669 7.48152ZM8.38076 9.26671V10.3334C8.72545 10.2667 8.89379 10.0889 8.89379 9.81486C8.89379 9.57041 8.73347 9.41486 8.38076 9.26671Z" fill="white"/>
</svg>
