<svg width="48" height="48" viewBox="0 0 48 48" fill="none" xmlns="http://www.w3.org/2000/svg">
  <rect width="48" height="48" rx="24" fill="#FEEFEB"/>
  <path
    d="M24 11.5C21.5277 11.5 19.111 12.2331 17.0554 13.6066C14.9998 14.9801 13.3976 16.9324 12.4515 19.2165C11.5054 21.5005 11.2579 24.0139 11.7402 26.4386C12.2225 28.8634 13.413 31.0907 15.1612 32.8388C16.9093 34.587 19.1366 35.7775 21.5614 36.2598C23.9861 36.7421 26.4995 36.4946 28.7835 35.5485C31.0676 34.6024 33.0199 33.0002 34.3934 30.9446C35.7669 28.889 36.5 26.4723 36.5 24C36.4964 20.6859 35.1782 17.5086 32.8348 15.1652C30.4914 12.8218 27.3141 11.5036 24 11.5ZM14 24C14.0031 23.1561 14.1136 22.316 14.3288 21.5H16.645C16.4512 23.161 16.4512 24.839 16.645 26.5H14.3288C14.1136 25.684 14.0031 24.8439 14 24ZM19 24C19.0007 23.1638 19.0579 22.3285 19.1713 21.5H22.75V26.5H19.1713C19.0579 25.6715 19.0007 24.8362 19 24ZM25.25 14.3725C26.7858 15.501 27.8657 17.1429 28.2938 19H25.25V14.3725ZM22.75 14.3725V19H19.7063C20.1343 17.1429 21.2143 15.501 22.75 14.3725ZM22.75 29V33.6287C21.214 32.5 20.134 30.8575 19.7063 29H22.75ZM25.25 33.6287V29H28.2938C27.866 30.8575 26.786 32.5 25.25 33.6287ZM25.25 26.5V21.5H28.8288C29.0577 23.1588 29.0577 24.8412 28.8288 26.5H25.25ZM31.355 21.5H33.6712C34.1101 23.1378 34.1101 24.8622 33.6712 26.5H31.355C31.5488 24.839 31.5488 23.161 31.355 21.5ZM32.6475 19H30.8938C30.6152 17.8869 30.2109 16.8092 29.6888 15.7875C30.8982 16.6289 31.9082 17.7256 32.6475 19ZM18.3113 15.7875C17.7891 16.8092 17.3848 17.8869 17.1063 19H15.3525C16.0922 17.7254 17.1014 16.6288 18.3113 15.7875ZM15.3525 29H17.1063C17.3848 30.1135 17.789 31.1916 18.3113 32.2137C17.1018 31.3723 16.0918 30.2744 15.3525 29ZM29.6888 32.2137C30.2109 31.192 30.6151 30.1143 30.8938 29.0012H32.6475C31.9082 30.2757 30.8982 31.3723 29.6888 32.2137Z"
    fill="#bb202e"/>
</svg>
