<svg width="16" height="16" viewBox="0 0 16 16" fill="none" xmlns="http://www.w3.org/2000/svg">
<path d="M1.33337 8.00004C1.33337 9.31858 1.72437 10.6075 2.45691 11.7038C3.18945 12.8002 4.23064 13.6547 5.44882 14.1592C6.66699 14.6638 8.00743 14.7958 9.30064 14.5386C10.5938 14.2814 11.7817 13.6464 12.7141 12.7141C13.6464 11.7817 14.2814 10.5938 14.5386 9.30064C14.7958 8.00743 14.6638 6.66699 14.1592 5.44882C13.6547 4.23064 12.8002 3.18945 11.7038 2.45691C10.6075 1.72437 9.31858 1.33337 8.00004 1.33337C7.12456 1.33337 6.25765 1.50581 5.44882 1.84084C4.63998 2.17588 3.90505 2.66694 3.286 3.286C2.03575 4.53624 1.33337 6.23193 1.33337 8.00004ZM7.33337 4.66671C7.33337 4.4899 7.40361 4.32033 7.52864 4.1953C7.65366 4.07028 7.82323 4.00004 8.00004 4.00004C8.17685 4.00004 8.34642 4.07028 8.47144 4.1953C8.59647 4.32033 8.66671 4.4899 8.66671 4.66671V7.61471L10.0654 8.42271C10.2172 8.51174 10.3277 8.65723 10.3727 8.82743C10.4177 8.99762 10.3936 9.17871 10.3056 9.33117C10.2175 9.48363 10.0728 9.59508 9.90288 9.6412C9.73299 9.68733 9.55174 9.66438 9.39871 9.57737L7.66671 8.57737C7.56559 8.5186 7.48162 8.43439 7.42314 8.33311C7.36466 8.23182 7.33371 8.11699 7.33337 8.00004V4.66671Z" fill="#979FAA"/>
</svg>
