<svg width="96" height="96" viewBox="0 0 96 96" fill="none" xmlns="http://www.w3.org/2000/svg">
  <rect width="96" height="96" rx="48" fill="#EBEFF4"/>
  <path
    d="M24 65C24 62.7909 25.7909 61 28 61H68C70.2091 61 72 62.7909 72 65V66C72 68.2091 70.2091 70 68 70H28C25.7909 70 24 68.2091 24 66V65Z"
    fill="#bb202e"/>
  <rect x="28" y="36" width="6" height="23" rx="2" fill="#bb202e"/>
  <rect x="36" y="36" width="24" height="23" rx="2" fill="#bb202e"/>
  <rect x="62" y="36" width="6" height="23" rx="2" fill="#bb202e"/>
  <path
    d="M68 34H28C26.8954 34 26 33.1046 26 32V30.5276C26 29.6257 26.6036 28.8354 27.4738 28.5981L47.4738 23.1435C47.8183 23.0496 48.1817 23.0496 48.5262 23.1435L68.5262 28.5981C69.3964 28.8354 70 29.6257 70 30.5276V32C70 33.1046 69.1046 34 68 34Z"
    fill="#bb202e"/>
  <path
    d="M46.0166 56C45.9009 55.9999 45.7869 55.9716 45.6832 55.9172C45.5795 55.8629 45.4889 55.784 45.4186 55.6867C45.3482 55.5893 45.2999 55.4761 45.2774 55.3558C45.2549 55.2355 45.2587 55.1113 45.2887 54.9928L46.651 49.6H43.7544C43.6387 49.6 43.5245 49.5718 43.4207 49.5175C43.3169 49.4632 43.2263 49.3844 43.1559 49.287C43.0854 49.1896 43.037 49.0764 43.0145 48.956C42.9919 48.8356 42.9958 48.7113 43.0257 48.5928L45.0473 40.5928C45.0902 40.423 45.1847 40.2729 45.3162 40.1657C45.4476 40.0586 45.6087 40.0003 45.7745 40H51.0547C51.1704 40 51.2846 40.0282 51.3884 40.0825C51.4921 40.1368 51.5828 40.2156 51.6532 40.313C51.7237 40.4104 51.772 40.5236 51.7946 40.644C51.8172 40.7644 51.8133 40.8887 51.7833 41.0072L50.8254 44.8H54.2454C54.3916 44.7999 54.5347 44.8449 54.6572 44.9295C54.7797 45.0141 54.8764 45.1346 54.9355 45.2764C54.9947 45.4182 55.0137 45.5751 54.9903 45.7282C54.9668 45.8812 54.902 46.0237 54.8036 46.1384L46.574 55.7384C46.5033 55.8208 46.4171 55.8867 46.321 55.9317C46.2249 55.9768 46.1209 56 46.0158 56H46.0166Z"
    fill="#FEEFEB"/>
</svg>
