<svg width="48" height="48" viewBox="0 0 48 48" fill="none" xmlns="http://www.w3.org/2000/svg">
  <rect width="48" height="48" rx="24" fill="#FEEFEB"/>
  <path
    d="M7.5 15.5C7.5 14.3954 8.39543 13.5 9.5 13.5H38.5C39.6046 13.5 40.5 14.3954 40.5 15.5V32.5C40.5 33.6046 39.6046 34.5 38.5 34.5H24H9.5C8.39543 34.5 7.5 33.6046 7.5 32.5V15.5Z"
    fill="#bb202e"/>
  <path
    d="M14.9111 19.0576C15.4965 18.9418 16.1038 19.0014 16.6552 19.2285C17.2064 19.4555 17.6772 19.84 18.0087 20.333C18.3404 20.8263 18.5175 21.4066 18.5175 22C18.5166 22.7953 18.1985 23.5577 17.6328 24.1201C17.5472 24.2052 17.4555 24.2828 17.3613 24.3564H17.3623C18.2084 24.6917 18.9468 25.2495 19.499 25.9697C20.0512 26.69 20.3963 27.5462 20.497 28.4463C20.5046 28.516 20.4972 28.5865 20.4755 28.6533C20.4539 28.7202 20.4183 28.7817 20.3711 28.834C20.3239 28.8862 20.2665 28.9284 20.2021 28.957C20.1377 28.9855 20.0675 29 19.997 29L10.9482 28.9971C10.8159 28.9827 10.6948 28.9165 10.6113 28.8135C10.5278 28.7102 10.4886 28.578 10.5029 28.4463C10.6034 27.5463 10.948 26.69 11.5 25.9697C12.0513 25.2502 12.7888 24.6929 13.6337 24.3574C13.2284 24.0403 12.9103 23.6245 12.7119 23.1484C12.4835 22.6003 12.4236 21.9969 12.54 21.415C12.6564 20.8331 12.9441 20.2984 13.3662 19.8789C13.7882 19.4594 14.3257 19.1734 14.9111 19.0576ZM15.6552 24.9922C15.6898 24.9904 15.7243 24.9893 15.7587 24.9863C15.7243 24.9893 15.6898 24.9904 15.6552 24.9922ZM15.9179 24.9668C15.9562 24.9614 15.9943 24.956 16.0322 24.9492C15.9943 24.956 15.9562 24.9614 15.9179 24.9668ZM14.9834 24.9541C14.9892 24.9551 14.9951 24.956 15.0009 24.957C14.9951 24.956 14.9892 24.9551 14.9834 24.9541ZM16.1757 24.9189C16.2197 24.9088 16.2632 24.8978 16.3066 24.8857C16.2632 24.8977 16.2197 24.9088 16.1757 24.9189ZM14.7285 24.8974C14.7421 24.901 14.7558 24.9048 14.7695 24.9082C14.7558 24.9048 14.7422 24.901 14.7285 24.8974ZM16.4306 24.8496C16.4789 24.8339 16.5267 24.8169 16.5742 24.7988C16.5267 24.8169 16.479 24.8339 16.4306 24.8496ZM14.4814 24.8213C14.5012 24.8283 14.521 24.8351 14.541 24.8418C14.521 24.8351 14.5012 24.8283 14.4814 24.8213ZM14.2646 24.7353C14.2814 24.7428 14.2985 24.7496 14.3154 24.7568C14.2985 24.7496 14.2814 24.7428 14.2646 24.7353ZM16.6904 24.7529C16.7331 24.7346 16.7745 24.7137 16.8164 24.6933C16.7745 24.7136 16.7331 24.7346 16.6904 24.7529Z"
    fill="#FEEFEB"/>
  <path
    d="M24 20C24 19.4477 24.4477 19 25 19H34.5C35.0523 19 35.5 19.4477 35.5 20C35.5 20.5523 35.0523 21 34.5 21H25C24.4477 21 24 20.5523 24 20Z"
    fill="white"/>
  <path
    d="M24 24C24 23.4477 24.4477 23 25 23H37C37.5523 23 38 23.4477 38 24C38 24.5523 37.5523 25 37 25H25C24.4477 25 24 24.5523 24 24Z"
    fill="white"/>
  <path
    d="M24 28C24 27.4477 24.4477 27 25 27H31C31.5523 27 32 27.4477 32 28C32 28.5523 31.5523 29 31 29H25C24.4477 29 24 28.5523 24 28Z"
    fill="white"/>
</svg>
