<svg width="48" height="48" viewBox="0 0 48 48" fill="none" xmlns="http://www.w3.org/2000/svg">
  <rect width="48" height="48" rx="24" fill="#FEEFEB"/>
  <path
    d="M12 32.5C12 31.3954 12.8954 30.5 14 30.5H34C35.1046 30.5 36 31.3954 36 32.5V33C36 34.1046 35.1046 35 34 35H14C12.8954 35 12 34.1046 12 33V32.5Z"
    fill="#bb202e"/>
  <rect x="14" y="18" width="3" height="11.5" rx="1.5" fill="#bb202e"/>
  <rect x="18" y="18" width="12" height="11.5" rx="2" fill="#bb202e"/>
  <rect x="31" y="18" width="3" height="11.5" rx="1.5" fill="#bb202e"/>
  <path
    d="M33.5826 17H14.4174C13.6346 17 13 16.3654 13 15.5826C13 14.9434 13.4278 14.3833 14.0445 14.2151L23.4738 11.6435C23.8183 11.5496 24.1817 11.5496 24.5262 11.6435L33.9555 14.2151C34.5722 14.3833 35 14.9434 35 15.5826C35 16.3654 34.3654 17 33.5826 17Z"
    fill="#bb202e"/>
  <path
    d="M23.0083 28C22.9505 27.9999 22.8934 27.9858 22.8416 27.9586C22.7897 27.9315 22.7445 27.892 22.7093 27.8433C22.6741 27.7947 22.65 27.7381 22.6387 27.6779C22.6274 27.6177 22.6294 27.5556 22.6443 27.4964L23.3255 24.8H21.8772C21.8193 24.8 21.7623 24.7859 21.7104 24.7588C21.6585 24.7316 21.6132 24.6922 21.5779 24.6435C21.5427 24.5948 21.5185 24.5382 21.5072 24.478C21.496 24.4178 21.4979 24.3557 21.5129 24.2964L22.5237 20.2964C22.5451 20.2115 22.5924 20.1364 22.6581 20.0829C22.7238 20.0293 22.8043 20.0002 22.8872 20H25.5273C25.5852 20 25.6423 20.0141 25.6942 20.0412C25.7461 20.0684 25.7914 20.1078 25.8266 20.1565C25.8618 20.2052 25.886 20.2618 25.8973 20.322C25.9086 20.3822 25.9067 20.4443 25.8917 20.5036L25.4127 22.4H27.1227C27.1958 22.4 27.2673 22.4225 27.3286 22.4648C27.3898 22.507 27.4382 22.5673 27.4678 22.6382C27.4973 22.7091 27.5068 22.7876 27.4951 22.8641C27.4834 22.9406 27.451 23.0119 27.4018 23.0692L23.287 27.8692C23.2517 27.9104 23.2086 27.9433 23.1605 27.9659C23.1124 27.9884 23.0605 28 23.0079 28H23.0083Z"
    fill="#FEEFEB"/>
</svg>
