<svg width="342" height="342" viewBox="0 0 342 342" fill="none" xmlns="http://www.w3.org/2000/svg">
  <circle cx="171" cy="171" r="170.5" stroke="url(#paint0_linear_310_2800)"/>
  <circle cx="171" cy="171" r="130" fill="url(#paint1_linear_310_2800)"/>
  <path d="M183.878 86.0005H158.756V136.336H183.878V86.0005Z" fill="#bb202e"/>
  <path d="M120.018 101.82L102.229 119.586L137.848 155.202L155.636 137.436L120.018 101.82Z" fill="#bb202e"/>
  <path d="M86.0005 158.12V183.246H136.33V158.12H86.0005Z" fill="#bb202e"/>
  <path d="M101.85 221.991L119.638 239.757L155.257 204.141L137.469 186.376L101.85 221.991Z" fill="#bb202e"/>
  <path d="M158.124 256H183.246V205.664H158.124V256Z" fill="#bb202e"/>
  <path d="M221.983 240.222L239.772 222.457L204.153 186.841L186.365 204.607L221.983 240.222Z" fill="#bb202e"/>
  <path d="M256 183.246V158.12H205.67V183.246H256Z" fill="#bb202e"/>
  <path d="M240.278 120.009L222.49 102.243L186.872 137.859L204.66 155.624L240.278 120.009Z" fill="#bb202e"/>
  <defs>
    <linearGradient id="paint0_linear_310_2800" x1="173.118" y1="-2.11823" x2="173.118" y2="344.118"
                    gradientUnits="userSpaceOnUse">
      <stop stop-color="#FDB8A5"/>
      <stop offset="0.5" stop-color="white"/>
      <stop offset="1" stop-color="#FDB8A5"/>
    </linearGradient>
    <linearGradient id="paint1_linear_310_2800" x1="171" y1="41" x2="171" y2="301" gradientUnits="userSpaceOnUse">
      <stop stop-color="#FEEFEB"/>
      <stop offset="1" stop-color="#FFFBFA"/>
    </linearGradient>
  </defs>
</svg>
