<svg width="96" height="96" viewBox="0 0 96 96" fill="none" xmlns="http://www.w3.org/2000/svg">
  <rect width="96" height="96" rx="48" fill="#EBEFF4"/>
  <path
    d="M27 24C27 21.7909 28.7909 20 31 20H65C67.2091 20 69 21.7909 69 24V72C69 74.2091 67.2091 76 65 76H48H31C28.7909 76 27 74.2091 27 72V24Z"
    fill="#bb202e"/>
  <path
    d="M33 50C33 48.8954 33.8954 48 35 48H54C55.1046 48 56 48.8954 56 50C56 51.1046 55.1046 52 54 52H35C33.8954 52 33 51.1046 33 50Z"
    fill="#FEEFEB"/>
  <path
    d="M33 58C33 56.8954 33.8954 56 35 56H59C60.1046 56 61 56.8954 61 58C61 59.1046 60.1046 60 59 60H35C33.8954 60 33 59.1046 33 58Z"
    fill="#FEEFEB"/>
  <path
    d="M33 66C33 64.8954 33.8954 64 35 64H47C48.1046 64 49 64.8954 49 66C49 67.1046 48.1046 68 47 68H35C33.8954 68 33 67.1046 33 66Z"
    fill="#FEEFEB"/>
  <rect x="33" y="26" width="30" height="16" rx="4" fill="#FEEFEB"/>
</svg>
