<svg width="48" height="48" viewBox="0 0 48 48" fill="none" xmlns="http://www.w3.org/2000/svg">
  <rect width="48" height="48" rx="24" fill="#FEEFEB"/>
  <path d="M31.5 35V23H14.5V35H31.5Z" fill="#bb202e"/>
  <path
    d="M32.6197 23H13.3803C12.618 23 12 22.382 12 21.6197C12 21.0673 12.3293 20.5681 12.8371 20.3507L22.2129 16.337C22.7156 16.1218 23.2844 16.1218 23.7871 16.337L33.1629 20.3507C33.6707 20.5681 34 21.0673 34 21.6197C34 22.382 33.382 23 32.6197 23Z"
    fill="#bb202e"/>
  <path d="M20 27C20 25.8954 20.8954 25 22 25H24C25.1046 25 26 25.8954 26 27V33H20V27Z" fill="#FEEFEB"/>
  <path
    d="M36.0886 8.72727C35.2827 7.96643 34.1958 7.5 33 7.5C30.5147 7.5 28.5 9.51472 28.5 12C28.5 13.1958 28.9664 14.2827 29.7273 15.0886M36.0886 8.72727C36.9576 9.54772 37.5 10.7105 37.5 12C37.5 14.4853 35.4853 16.5 33 16.5C31.7105 16.5 30.5477 15.9576 29.7273 15.0886M36.0886 8.72727L29.7273 15.0886"
    stroke="#bb202e" stroke-width="2"/>
</svg>
