<svg width="96" height="96" viewBox="0 0 96 96" fill="none" xmlns="http://www.w3.org/2000/svg">
  <rect width="96" height="96" rx="48" fill="#FEEFEB"/>
  <path
    d="M66.6596 34.7605C65.168 33.0087 62.964 31.9977 60.6415 32H39.8563C37.0059 31.9991 34.3801 33.522 33 35.9764L43.224 47.3551C45.9943 50.4976 50.8047 50.895 54.0686 48.2509L68 37.1424C67.7007 36.2763 67.2468 35.4697 66.6596 34.7605Z"
    fill="#bb202e"/>
  <path d="M41.0236 39.75L41.0176 39.756L41.0276 39.766L41.0316 39.758L41.0236 39.75Z" fill="#bb202e"/>
  <path
    d="M66.9979 40.0415C67.1976 40.3921 67.3254 40.7802 67.4711 41.1589L67.5002 41.1362C67.3665 40.7569 67.1911 40.3944 66.9979 40.0415ZM53.4991 52.0826C50.2189 54.688 45.3844 54.2965 42.6002 51.1998L32.3368 40C31.9141 40.7203 31.5959 41.5075 31.4406 42.3634L29.12 55.0607C29.04 55.4982 28.9998 55.9415 29 56.3858C29.0011 60.5919 32.5358 64.0011 36.8951 64H57.7856C61.6184 64.0048 64.899 61.3483 65.5594 57.7053L67.88 45.008C67.96 44.5705 68.0002 44.1273 68 43.683C67.9998 42.7845 67.7766 41.9537 67.4711 41.1589L53.4991 52.0826Z"
    fill="#bb202e"/>
  <rect x="20" y="60" width="8" height="4" rx="2" fill="#bb202e"/>
  <rect x="16" y="51" width="8" height="4" rx="2" fill="#bb202e"/>
</svg>
