<svg width="48" height="48" viewBox="0 0 48 48" fill="none" xmlns="http://www.w3.org/2000/svg">
  <rect width="48" height="48" rx="24" fill="#FEEFEB"/>
  <path
    d="M10 19.5C10 18.3954 10.8954 17.5 12 17.5H36C37.1046 17.5 38 18.3954 38 19.5V31.5C38 32.6046 37.1046 33.5 36 33.5H12C10.8954 33.5 10 32.6046 10 31.5V19.5Z"
    fill="#bb202e"/>
  <path
    d="M12.5 15.5C12.5 14.9477 12.9477 14.5 13.5 14.5H34.5C35.0523 14.5 35.5 14.9477 35.5 15.5C35.5 16.0523 35.0523 16.5 34.5 16.5H13.5C12.9477 16.5 12.5 16.0523 12.5 15.5Z"
    fill="#bb202e"/>
  <path
    d="M26.5 27.04C26.5 28.21 25.6784 28.97 24.476 29.12V30H23.8046V29.13C22.6824 29.05 21.8507 28.48 21.5 27.55L22.6924 26.86C22.9028 27.39 23.2735 27.7 23.8046 27.77V26.04C23.7946 26.04 23.7946 26.04 23.7946 26.04L23.7745 26.03C23.3036 25.86 23.0832 25.76 22.6824 25.51C22.1413 25.17 21.8507 24.69 21.8106 23.89C21.8106 23.3 22.001 22.83 22.3818 22.48C22.7725 22.13 23.2435 21.92 23.8046 21.87V21H24.476V21.89C25.3878 22 26.0291 22.47 26.3998 23.3L25.2375 23.98C25.0772 23.58 24.8267 23.34 24.476 23.25V24.92C25.0972 25.17 25.518 25.36 25.7285 25.51C26.2395 25.88 26.5 26.39 26.5 27.04ZM23.1834 23.9C23.1834 24.19 23.3537 24.39 23.8046 24.62V23.22C23.4038 23.3 23.1834 23.55 23.1834 23.9ZM24.476 26.31V27.75C24.9068 27.66 25.1172 27.42 25.1172 27.05C25.1172 26.72 24.9168 26.51 24.476 26.31Z"
    fill="#FEEFEB"/>
</svg>
