<svg width="96" height="96" viewBox="0 0 96 96" fill="none" xmlns="http://www.w3.org/2000/svg">
  <rect width="96" height="96" rx="48" fill="#FEEFEB"/>
  <path
    d="M65.8596 48C65.799 48.0002 65.7384 47.9974 65.6781 47.9917C65.1271 47.944 64.6175 47.6801 64.2616 47.2578C63.9056 46.8356 63.7322 46.2896 63.7796 45.7398C63.8109 45.3756 63.8276 45.0114 63.8276 44.6472C63.8237 41.3367 62.5037 38.1628 60.1572 35.8219C57.8106 33.4809 54.629 32.1641 51.3105 32.1602C50.9454 32.1602 50.5803 32.1769 50.2152 32.2081C49.6717 32.2417 49.1366 32.062 48.7241 31.7073C48.3117 31.3527 48.0546 30.8512 48.0077 30.31C47.9609 29.7688 48.128 29.2307 48.4734 28.8108C48.8189 28.3908 49.3152 28.1223 49.8564 28.0624C50.3404 28.0187 50.8265 28 51.3105 28C55.7351 28.0055 59.9769 29.7614 63.1056 32.8826C66.2343 36.0037 67.9945 40.2353 68 44.6493C68 45.128 67.9791 45.615 67.9374 46.0978C67.8925 46.6167 67.6542 47.1 67.2695 47.4522C66.8848 47.8044 66.3817 47.9998 65.8596 48Z"
    fill="#bb202e"/>
  <path
    d="M57 47C56.4696 47 55.9609 46.7893 55.5858 46.4142C55.2107 46.0391 55 45.5304 55 45C54.9984 43.9396 54.5765 42.9231 53.8267 42.1733C53.0769 41.4235 52.0604 41.0016 51 41C50.4696 41 49.9609 40.7893 49.5858 40.4142C49.2107 40.0391 49 39.5304 49 39C49 38.4696 49.2107 37.9609 49.5858 37.5858C49.9609 37.2107 50.4696 37 51 37C53.1211 37.0021 55.1547 37.8457 56.6545 39.3455C58.1543 40.8453 58.9979 42.8789 59 45C59 45.5304 58.7893 46.0391 58.4142 46.4142C58.0391 46.7893 57.5304 47 57 47Z"
    fill="#bb202e"/>
  <path
    d="M61.6146 70C61.3404 69.9998 61.0665 69.9822 60.7946 69.9472C51.9801 68.8035 43.7896 64.7825 37.4939 58.5082C31.2184 52.2123 27.1966 44.0209 26.0528 35.2054C25.9361 34.3008 26.0133 33.3817 26.2794 32.5093C26.5454 31.6368 26.9942 30.831 27.5958 30.1454C28.1898 29.4712 28.9205 28.9312 29.7394 28.5613C30.5583 28.1914 31.4465 28.0001 32.3451 28.0001H38.743C40.2395 27.9927 41.6898 28.5182 42.8342 29.4825C43.9786 30.4468 44.7424 31.787 44.9888 33.263C45.0593 33.7393 45.1473 34.2141 45.253 34.6876C45.4629 35.6307 45.7362 36.5586 46.071 37.4649C46.4258 38.455 46.3972 39.5421 45.9908 40.5122C45.5844 41.4823 44.8296 42.2652 43.8749 42.7067L42.9111 43.159C45.2647 47.3041 48.6959 50.7353 52.841 53.0889L53.2933 52.1208C53.7352 51.1657 54.5192 50.4109 55.4904 50.0056C56.4616 49.6002 57.5495 49.5736 58.5393 49.9311C59.445 50.2651 60.3722 50.5376 61.3145 50.747C61.7851 50.8526 62.2593 50.9407 62.737 51.0112C64.213 51.2576 65.5532 52.0214 66.5175 53.1658C67.4818 54.3102 68.0073 55.7604 67.9999 57.2569V63.6549C67.9999 64.5534 67.8085 65.4417 67.4386 66.2605C67.0688 67.0794 66.5288 67.8102 65.8546 68.4042C64.6824 69.4341 63.175 70.0014 61.6146 70Z"
    fill="#bb202e"/>
</svg>
