<svg width="741" height="212" viewBox="0 0 741 212" fill="none" xmlns="http://www.w3.org/2000/svg">
<path d="M740.994 12.9763C741.054 12.4272 740.657 11.9337 740.108 11.8739L731.161 10.8997C730.612 10.84 730.119 11.2366 730.059 11.7856C729.999 12.3347 730.396 12.8282 730.945 12.888L738.898 13.7539L738.032 21.7069C737.972 22.2559 738.369 22.7495 738.918 22.8093C739.467 22.869 739.96 22.4724 740.02 21.9234L740.994 12.9763ZM1.73711 11.9032C1.20425 12.0484 0.889983 12.5981 1.03518 13.1309C1.18037 13.6638 1.73004 13.978 2.26289 13.8328L1.73711 11.9032ZM2.26289 13.8328C13.1717 10.8604 23.5716 8.4908 33.4996 6.67656L33.14 4.70914C23.1522 6.53432 12.6967 8.91693 1.73711 11.9032L2.26289 13.8328ZM35.4845 6.3201C59.3411 2.1118 80.4508 1.13312 99.3365 2.7131L99.5033 0.720059C80.4242 -0.876096 59.1405 0.116302 35.1371 4.35051L35.4845 6.3201ZM101.334 2.89049C124.718 5.08828 144.682 11.2393 162.243 20.0577L163.141 18.2704C145.36 9.34189 125.155 3.12061 101.521 0.899265L101.334 2.89049ZM164.021 20.9635C183.419 30.9949 199.897 44.3 214.85 59.1275L216.259 57.7073C201.21 42.7852 184.57 29.3387 164.939 19.1869L164.021 20.9635ZM216.265 60.5387C231.387 75.7256 244.95 92.4045 258.464 108.75L260.005 107.476C246.512 91.1549 232.884 74.3943 217.682 59.1275L216.265 60.5387ZM259.746 110.299C273.727 127.189 287.704 143.657 303.289 157.559L304.62 156.066C289.162 142.277 275.272 125.918 261.286 109.024L259.746 110.299ZM304.79 158.886C320.931 173.016 338.853 184.383 360.338 190.657L360.899 188.737C339.765 182.566 322.094 171.376 306.108 157.381L304.79 158.886ZM362.284 191.209C380.668 196.263 401.603 197.601 426.161 193.86L425.859 191.883C401.548 195.586 380.898 194.252 362.814 189.28L362.284 191.209ZM428.179 193.542C446.624 190.548 467.093 184.714 490.031 175.481L489.284 173.626C466.455 182.815 446.13 188.602 427.859 191.568L428.179 193.542ZM492.002 174.682C509.613 167.487 528.674 158.302 549.381 146.875L548.415 145.124C527.764 156.52 508.774 165.67 491.245 172.83L492.002 174.682ZM551.184 145.877C568.361 136.335 586.666 125.259 606.212 112.506L605.119 110.831C585.608 123.561 567.343 134.613 550.213 144.129L551.184 145.877ZM607.827 111.451C624.435 100.574 641.936 88.4924 660.397 75.1191L659.224 73.4995C640.786 86.8563 623.311 98.92 606.731 109.778L607.827 111.451ZM662.003 73.9544C678.31 62.111 695.364 49.2636 713.211 35.3532L711.982 33.7758C694.151 47.6735 677.115 60.5072 660.828 72.3362L662.003 73.9544ZM714.79 34.1212C723.224 27.5352 731.835 20.7128 740.626 13.6475L739.374 12.0885C730.589 19.1482 721.986 25.9649 713.56 32.5448L714.79 34.1212Z" fill="#D5D9DD"/>
<rect x="175" y="27" width="1" height="185" fill="url(#paint0_linear_465_3209)"/>
<rect x="565" y="136" width="1" height="76" fill="url(#paint1_linear_465_3209)"/>
<circle cx="5.5" cy="12.5" r="4.5" fill="white" stroke="#D5D9DD" stroke-width="2"/>
<circle cx="175.5" cy="27.5" r="4.5" fill="white" stroke="#D5D9DD" stroke-width="2"/>
<circle cx="565.5" cy="136.5" r="4.5" fill="white" stroke="#D5D9DD" stroke-width="2"/>
<defs>
<linearGradient id="paint0_linear_465_3209" x1="175.5" y1="27" x2="175.5" y2="212" gradientUnits="userSpaceOnUse">
<stop stop-color="#DAE1EB"/>
<stop offset="1" stop-color="#DAE1EB" stop-opacity="0"/>
</linearGradient>
<linearGradient id="paint1_linear_465_3209" x1="565.5" y1="136" x2="565.5" y2="212" gradientUnits="userSpaceOnUse">
<stop stop-color="#DAE1EB"/>
<stop offset="1" stop-color="#DAE1EB" stop-opacity="0"/>
</linearGradient>
</defs>
</svg>
