<svg width="100" height="100" viewBox="0 0 100 100" fill="none" xmlns="http://www.w3.org/2000/svg">
<path d="M42.6482 6.88272C43.3505 6.88272 43.9198 6.3134 43.9198 5.61111C43.9198 4.90882 43.3505 4.33951 42.6482 4.33951C41.9459 4.33951 41.3766 4.90882 41.3766 5.61111C41.3766 6.3134 41.9459 6.88272 42.6482 6.88272Z" fill="#2F3F55"/>
<path d="M50.0555 6.88272C50.7578 6.88272 51.3271 6.3134 51.3271 5.61111C51.3271 4.90882 50.7578 4.33951 50.0555 4.33951C49.3533 4.33951 48.7839 4.90882 48.7839 5.61111C48.7839 6.3134 49.3533 6.88272 50.0555 6.88272Z" fill="#2F3F55"/>
<path d="M64.8704 6.88272C65.5726 6.88272 66.142 6.3134 66.142 5.61111C66.142 4.90882 65.5726 4.33951 64.8704 4.33951C64.1681 4.33951 63.5988 4.90882 63.5988 5.61111C63.5988 6.3134 64.1681 6.88272 64.8704 6.88272Z" fill="#2F3F55"/>
<path d="M35.2407 10.5864C35.943 10.5864 36.5123 10.0171 36.5123 9.31482C36.5123 8.61253 35.943 8.04321 35.2407 8.04321C34.5384 8.04321 33.9691 8.61253 33.9691 9.31482C33.9691 10.0171 34.5384 10.5864 35.2407 10.5864Z" fill="#2F3F55"/>
<path d="M42.6482 10.5864C43.3505 10.5864 43.9198 10.0171 43.9198 9.31482C43.9198 8.61253 43.3505 8.04321 42.6482 8.04321C41.9459 8.04321 41.3766 8.61253 41.3766 9.31482C41.3766 10.0171 41.9459 10.5864 42.6482 10.5864Z" fill="#2F3F55"/>
<path d="M61.1667 10.5864C61.869 10.5864 62.4384 10.0171 62.4384 9.31482C62.4384 8.61253 61.869 8.04321 61.1667 8.04321C60.4645 8.04321 59.8951 8.61253 59.8951 9.31482C59.8951 10.0171 60.4645 10.5864 61.1667 10.5864Z" fill="#2F3F55"/>
<path d="M50.0555 14.2901C50.7578 14.2901 51.3271 13.7208 51.3271 13.0185C51.3271 12.3162 50.7578 11.7469 50.0555 11.7469C49.3533 11.7469 48.7839 12.3162 48.7839 13.0185C48.7839 13.7208 49.3533 14.2901 50.0555 14.2901Z" fill="#2F3F55"/>
<path d="M57.463 14.2901C58.1653 14.2901 58.7346 13.7208 58.7346 13.0185C58.7346 12.3162 58.1653 11.7469 57.463 11.7469C56.7607 11.7469 56.1914 12.3162 56.1914 13.0185C56.1914 13.7208 56.7607 14.2901 57.463 14.2901Z" fill="#2F3F55"/>
<path d="M64.8704 14.2901C65.5726 14.2901 66.142 13.7208 66.142 13.0185C66.142 12.3162 65.5726 11.7469 64.8704 11.7469C64.1681 11.7469 63.5988 12.3162 63.5988 13.0185C63.5988 13.7208 64.1681 14.2901 64.8704 14.2901Z" fill="#2F3F55"/>
<path d="M35.2407 17.9938C35.943 17.9938 36.5123 17.4245 36.5123 16.7222C36.5123 16.0199 35.943 15.4506 35.2407 15.4506C34.5384 15.4506 33.9691 16.0199 33.9691 16.7222C33.9691 17.4245 34.5384 17.9938 35.2407 17.9938Z" fill="#2F3F55"/>
<path d="M38.9445 17.9938C39.6467 17.9938 40.2161 17.4245 40.2161 16.7222C40.2161 16.0199 39.6467 15.4506 38.9445 15.4506C38.2422 15.4506 37.6729 16.0199 37.6729 16.7222C37.6729 17.4245 38.2422 17.9938 38.9445 17.9938Z" fill="#2F3F55"/>
<path d="M42.6482 17.9938C43.3505 17.9938 43.9198 17.4245 43.9198 16.7222C43.9198 16.0199 43.3505 15.4506 42.6482 15.4506C41.9459 15.4506 41.3766 16.0199 41.3766 16.7222C41.3766 17.4245 41.9459 17.9938 42.6482 17.9938Z" fill="#2F3F55"/>
<path d="M50.0555 17.9938C50.7578 17.9938 51.3271 17.4245 51.3271 16.7222C51.3271 16.0199 50.7578 15.4506 50.0555 15.4506C49.3533 15.4506 48.7839 16.0199 48.7839 16.7222C48.7839 17.4245 49.3533 17.9938 50.0555 17.9938Z" fill="#2F3F55"/>
<path d="M53.7593 17.9938C54.4616 17.9938 55.0309 17.4245 55.0309 16.7222C55.0309 16.0199 54.4616 15.4506 53.7593 15.4506C53.057 15.4506 52.4877 16.0199 52.4877 16.7222C52.4877 17.4245 53.057 17.9938 53.7593 17.9938Z" fill="#2F3F55"/>
<path d="M57.463 17.9938C58.1653 17.9938 58.7346 17.4245 58.7346 16.7222C58.7346 16.0199 58.1653 15.4506 57.463 15.4506C56.7607 15.4506 56.1914 16.0199 56.1914 16.7222C56.1914 17.4245 56.7607 17.9938 57.463 17.9938Z" fill="#2F3F55"/>
<path d="M61.1667 17.9938C61.869 17.9938 62.4384 17.4245 62.4384 16.7222C62.4384 16.0199 61.869 15.4506 61.1667 15.4506C60.4645 15.4506 59.8951 16.0199 59.8951 16.7222C59.8951 17.4245 60.4645 17.9938 61.1667 17.9938Z" fill="#2F3F55"/>
<path d="M64.8704 17.9938C65.5726 17.9938 66.142 17.4245 66.142 16.7222C66.142 16.0199 65.5726 15.4506 64.8704 15.4506C64.1681 15.4506 63.5988 16.0199 63.5988 16.7222C63.5988 17.4245 64.1681 17.9938 64.8704 17.9938Z" fill="#2F3F55"/>
<path d="M38.9445 21.6975C39.6467 21.6975 40.2161 21.1282 40.2161 20.4259C40.2161 19.7236 39.6467 19.1543 38.9445 19.1543C38.2422 19.1543 37.6729 19.7236 37.6729 20.4259C37.6729 21.1282 38.2422 21.6975 38.9445 21.6975Z" fill="#2F3F55"/>
<path d="M53.7593 21.6975C54.4616 21.6975 55.0309 21.1282 55.0309 20.4259C55.0309 19.7236 54.4616 19.1543 53.7593 19.1543C53.057 19.1543 52.4877 19.7236 52.4877 20.4259C52.4877 21.1282 53.057 21.6975 53.7593 21.6975Z" fill="#2F3F55"/>
<path d="M57.463 21.6975C58.1653 21.6975 58.7346 21.1282 58.7346 20.4259C58.7346 19.7236 58.1653 19.1543 57.463 19.1543C56.7607 19.1543 56.1914 19.7236 56.1914 20.4259C56.1914 21.1282 56.7607 21.6975 57.463 21.6975Z" fill="#2F3F55"/>
<path d="M64.8704 21.6975C65.5726 21.6975 66.142 21.1282 66.142 20.4259C66.142 19.7236 65.5726 19.1543 64.8704 19.1543C64.1681 19.1543 63.5988 19.7236 63.5988 20.4259C63.5988 21.1282 64.1681 21.6975 64.8704 21.6975Z" fill="#2F3F55"/>
<path d="M35.2407 25.4012C35.943 25.4012 36.5123 24.8319 36.5123 24.1296C36.5123 23.4273 35.943 22.858 35.2407 22.858C34.5384 22.858 33.9691 23.4273 33.9691 24.1296C33.9691 24.8319 34.5384 25.4012 35.2407 25.4012Z" fill="#2F3F55"/>
<path d="M38.9445 25.4012C39.6467 25.4012 40.2161 24.8319 40.2161 24.1296C40.2161 23.4273 39.6467 22.858 38.9445 22.858C38.2422 22.858 37.6729 23.4273 37.6729 24.1296C37.6729 24.8319 38.2422 25.4012 38.9445 25.4012Z" fill="#2F3F55"/>
<path d="M46.3519 25.4012C47.0542 25.4012 47.6235 24.8319 47.6235 24.1296C47.6235 23.4273 47.0542 22.858 46.3519 22.858C45.6496 22.858 45.0803 23.4273 45.0803 24.1296C45.0803 24.8319 45.6496 25.4012 46.3519 25.4012Z" fill="#2F3F55"/>
<path d="M50.0555 25.4012C50.7578 25.4012 51.3271 24.8319 51.3271 24.1296C51.3271 23.4273 50.7578 22.858 50.0555 22.858C49.3533 22.858 48.7839 23.4273 48.7839 24.1296C48.7839 24.8319 49.3533 25.4012 50.0555 25.4012Z" fill="#2F3F55"/>
<path d="M61.1667 25.4012C61.869 25.4012 62.4384 24.8319 62.4384 24.1296C62.4384 23.4273 61.869 22.858 61.1667 22.858C60.4645 22.858 59.8951 23.4273 59.8951 24.1296C59.8951 24.8319 60.4645 25.4012 61.1667 25.4012Z" fill="#2F3F55"/>
<path d="M35.2407 29.1049C35.943 29.1049 36.5123 28.5356 36.5123 27.8333C36.5123 27.1311 35.943 26.5617 35.2407 26.5617C34.5384 26.5617 33.9691 27.1311 33.9691 27.8333C33.9691 28.5356 34.5384 29.1049 35.2407 29.1049Z" fill="#2F3F55"/>
<path d="M42.6482 29.1049C43.3505 29.1049 43.9198 28.5356 43.9198 27.8333C43.9198 27.1311 43.3505 26.5617 42.6482 26.5617C41.9459 26.5617 41.3766 27.1311 41.3766 27.8333C41.3766 28.5356 41.9459 29.1049 42.6482 29.1049Z" fill="#2F3F55"/>
<path d="M50.0555 29.1049C50.7578 29.1049 51.3271 28.5356 51.3271 27.8333C51.3271 27.1311 50.7578 26.5617 50.0555 26.5617C49.3533 26.5617 48.7839 27.1311 48.7839 27.8333C48.7839 28.5356 49.3533 29.1049 50.0555 29.1049Z" fill="#2F3F55"/>
<path d="M57.463 29.1049C58.1653 29.1049 58.7346 28.5356 58.7346 27.8333C58.7346 27.1311 58.1653 26.5617 57.463 26.5617C56.7607 26.5617 56.1914 27.1311 56.1914 27.8333C56.1914 28.5356 56.7607 29.1049 57.463 29.1049Z" fill="#2F3F55"/>
<path d="M64.8704 29.1049C65.5726 29.1049 66.142 28.5356 66.142 27.8333C66.142 27.1311 65.5726 26.5617 64.8704 26.5617C64.1681 26.5617 63.5988 27.1311 63.5988 27.8333C63.5988 28.5356 64.1681 29.1049 64.8704 29.1049Z" fill="#2F3F55"/>
<path d="M38.9445 32.8087C39.6467 32.8087 40.2161 32.2393 40.2161 31.537C40.2161 30.8348 39.6467 30.2654 38.9445 30.2654C38.2422 30.2654 37.6729 30.8348 37.6729 31.537C37.6729 32.2393 38.2422 32.8087 38.9445 32.8087Z" fill="#2F3F55"/>
<path d="M42.6482 32.8087C43.3505 32.8087 43.9198 32.2393 43.9198 31.537C43.9198 30.8348 43.3505 30.2654 42.6482 30.2654C41.9459 30.2654 41.3766 30.8348 41.3766 31.537C41.3766 32.2393 41.9459 32.8087 42.6482 32.8087Z" fill="#2F3F55"/>
<path d="M46.3519 32.8087C47.0542 32.8087 47.6235 32.2393 47.6235 31.537C47.6235 30.8348 47.0542 30.2654 46.3519 30.2654C45.6496 30.2654 45.0803 30.8348 45.0803 31.537C45.0803 32.2393 45.6496 32.8087 46.3519 32.8087Z" fill="#2F3F55"/>
<path d="M57.463 32.8087C58.1653 32.8087 58.7346 32.2393 58.7346 31.537C58.7346 30.8348 58.1653 30.2654 57.463 30.2654C56.7607 30.2654 56.1914 30.8348 56.1914 31.537C56.1914 32.2393 56.7607 32.8087 57.463 32.8087Z" fill="#2F3F55"/>
<path d="M64.8704 32.8087C65.5726 32.8087 66.142 32.2393 66.142 31.537C66.142 30.8348 65.5726 30.2654 64.8704 30.2654C64.1681 30.2654 63.5988 30.8348 63.5988 31.537C63.5988 32.2393 64.1681 32.8087 64.8704 32.8087Z" fill="#2F3F55"/>
<path d="M5.61108 36.5124C6.31337 36.5124 6.88269 35.943 6.88269 35.2408C6.88269 34.5385 6.31337 33.9691 5.61108 33.9691C4.90879 33.9691 4.33948 34.5385 4.33948 35.2408C4.33948 35.943 4.90879 36.5124 5.61108 36.5124Z" fill="#2F3F55"/>
<path d="M9.31482 36.5124C10.0171 36.5124 10.5864 35.943 10.5864 35.2408C10.5864 34.5385 10.0171 33.9691 9.31482 33.9691C8.61253 33.9691 8.04321 34.5385 8.04321 35.2408C8.04321 35.943 8.61253 36.5124 9.31482 36.5124Z" fill="#2F3F55"/>
<path d="M13.0186 36.5124C13.7208 36.5124 14.2902 35.943 14.2902 35.2408C14.2902 34.5385 13.7208 33.9691 13.0186 33.9691C12.3163 33.9691 11.7469 34.5385 11.7469 35.2408C11.7469 35.943 12.3163 36.5124 13.0186 36.5124Z" fill="#2F3F55"/>
<path d="M16.7223 36.5124C17.4246 36.5124 17.9939 35.943 17.9939 35.2408C17.9939 34.5385 17.4246 33.9691 16.7223 33.9691C16.02 33.9691 15.4507 34.5385 15.4507 35.2408C15.4507 35.943 16.02 36.5124 16.7223 36.5124Z" fill="#2F3F55"/>
<path d="M20.4259 36.5124C21.1282 36.5124 21.6975 35.943 21.6975 35.2408C21.6975 34.5385 21.1282 33.9691 20.4259 33.9691C19.7236 33.9691 19.1543 34.5385 19.1543 35.2408C19.1543 35.943 19.7236 36.5124 20.4259 36.5124Z" fill="#2F3F55"/>
<path d="M27.8334 36.5124C28.5357 36.5124 29.105 35.943 29.105 35.2408C29.105 34.5385 28.5357 33.9691 27.8334 33.9691C27.1311 33.9691 26.5618 34.5385 26.5618 35.2408C26.5618 35.943 27.1311 36.5124 27.8334 36.5124Z" fill="#2F3F55"/>
<path d="M31.5371 36.5124C32.2394 36.5124 32.8087 35.943 32.8087 35.2408C32.8087 34.5385 32.2394 33.9691 31.5371 33.9691C30.8348 33.9691 30.2655 34.5385 30.2655 35.2408C30.2655 35.943 30.8348 36.5124 31.5371 36.5124Z" fill="#2F3F55"/>
<path d="M35.2407 36.5124C35.943 36.5124 36.5123 35.943 36.5123 35.2408C36.5123 34.5385 35.943 33.9691 35.2407 33.9691C34.5384 33.9691 33.9691 34.5385 33.9691 35.2408C33.9691 35.943 34.5384 36.5124 35.2407 36.5124Z" fill="#2F3F55"/>
<path d="M38.9445 36.5124C39.6467 36.5124 40.2161 35.943 40.2161 35.2408C40.2161 34.5385 39.6467 33.9691 38.9445 33.9691C38.2422 33.9691 37.6729 34.5385 37.6729 35.2408C37.6729 35.943 38.2422 36.5124 38.9445 36.5124Z" fill="#2F3F55"/>
<path d="M46.3519 36.5124C47.0542 36.5124 47.6235 35.943 47.6235 35.2408C47.6235 34.5385 47.0542 33.9691 46.3519 33.9691C45.6496 33.9691 45.0803 34.5385 45.0803 35.2408C45.0803 35.943 45.6496 36.5124 46.3519 36.5124Z" fill="#2F3F55"/>
<path d="M50.0555 36.5124C50.7578 36.5124 51.3271 35.943 51.3271 35.2408C51.3271 34.5385 50.7578 33.9691 50.0555 33.9691C49.3533 33.9691 48.7839 34.5385 48.7839 35.2408C48.7839 35.943 49.3533 36.5124 50.0555 36.5124Z" fill="#2F3F55"/>
<path d="M53.7593 36.5124C54.4616 36.5124 55.0309 35.943 55.0309 35.2408C55.0309 34.5385 54.4616 33.9691 53.7593 33.9691C53.057 33.9691 52.4877 34.5385 52.4877 35.2408C52.4877 35.943 53.057 36.5124 53.7593 36.5124Z" fill="#2F3F55"/>
<path d="M68.5741 36.5124C69.2764 36.5124 69.8457 35.943 69.8457 35.2408C69.8457 34.5385 69.2764 33.9691 68.5741 33.9691C67.8718 33.9691 67.3025 34.5385 67.3025 35.2408C67.3025 35.943 67.8718 36.5124 68.5741 36.5124Z" fill="#2F3F55"/>
<path d="M75.9816 36.5124C76.6839 36.5124 77.2532 35.943 77.2532 35.2408C77.2532 34.5385 76.6839 33.9691 75.9816 33.9691C75.2793 33.9691 74.71 34.5385 74.71 35.2408C74.71 35.943 75.2793 36.5124 75.9816 36.5124Z" fill="#2F3F55"/>
<path d="M83.3889 36.5124C84.0912 36.5124 84.6605 35.943 84.6605 35.2408C84.6605 34.5385 84.0912 33.9691 83.3889 33.9691C82.6866 33.9691 82.1173 34.5385 82.1173 35.2408C82.1173 35.943 82.6866 36.5124 83.3889 36.5124Z" fill="#2F3F55"/>
<path d="M90.7963 36.5124C91.4986 36.5124 92.0679 35.943 92.0679 35.2408C92.0679 34.5385 91.4986 33.9691 90.7963 33.9691C90.094 33.9691 89.5247 34.5385 89.5247 35.2408C89.5247 35.943 90.094 36.5124 90.7963 36.5124Z" fill="#2F3F55"/>
<path d="M5.61108 40.2161C6.31337 40.2161 6.88269 39.6467 6.88269 38.9445C6.88269 38.2422 6.31337 37.6729 5.61108 37.6729C4.90879 37.6729 4.33948 38.2422 4.33948 38.9445C4.33948 39.6467 4.90879 40.2161 5.61108 40.2161Z" fill="#2F3F55"/>
<path d="M16.7223 40.2161C17.4246 40.2161 17.9939 39.6467 17.9939 38.9445C17.9939 38.2422 17.4246 37.6729 16.7223 37.6729C16.02 37.6729 15.4507 38.2422 15.4507 38.9445C15.4507 39.6467 16.02 40.2161 16.7223 40.2161Z" fill="#2F3F55"/>
<path d="M20.4259 40.2161C21.1282 40.2161 21.6975 39.6467 21.6975 38.9445C21.6975 38.2422 21.1282 37.6729 20.4259 37.6729C19.7236 37.6729 19.1543 38.2422 19.1543 38.9445C19.1543 39.6467 19.7236 40.2161 20.4259 40.2161Z" fill="#2F3F55"/>
<path d="M24.1296 40.2161C24.8319 40.2161 25.4012 39.6467 25.4012 38.9445C25.4012 38.2422 24.8319 37.6729 24.1296 37.6729C23.4273 37.6729 22.858 38.2422 22.858 38.9445C22.858 39.6467 23.4273 40.2161 24.1296 40.2161Z" fill="#2F3F55"/>
<path d="M31.5371 40.2161C32.2394 40.2161 32.8087 39.6467 32.8087 38.9445C32.8087 38.2422 32.2394 37.6729 31.5371 37.6729C30.8348 37.6729 30.2655 38.2422 30.2655 38.9445C30.2655 39.6467 30.8348 40.2161 31.5371 40.2161Z" fill="#2F3F55"/>
<path d="M42.6482 40.2161C43.3505 40.2161 43.9198 39.6467 43.9198 38.9445C43.9198 38.2422 43.3505 37.6729 42.6482 37.6729C41.9459 37.6729 41.3766 38.2422 41.3766 38.9445C41.3766 39.6467 41.9459 40.2161 42.6482 40.2161Z" fill="#2F3F55"/>
<path d="M50.0555 40.2161C50.7578 40.2161 51.3271 39.6467 51.3271 38.9445C51.3271 38.2422 50.7578 37.6729 50.0555 37.6729C49.3533 37.6729 48.7839 38.2422 48.7839 38.9445C48.7839 39.6467 49.3533 40.2161 50.0555 40.2161Z" fill="#2F3F55"/>
<path d="M53.7593 40.2161C54.4616 40.2161 55.0309 39.6467 55.0309 38.9445C55.0309 38.2422 54.4616 37.6729 53.7593 37.6729C53.057 37.6729 52.4877 38.2422 52.4877 38.9445C52.4877 39.6467 53.057 40.2161 53.7593 40.2161Z" fill="#2F3F55"/>
<path d="M64.8704 40.2161C65.5726 40.2161 66.142 39.6467 66.142 38.9445C66.142 38.2422 65.5726 37.6729 64.8704 37.6729C64.1681 37.6729 63.5988 38.2422 63.5988 38.9445C63.5988 39.6467 64.1681 40.2161 64.8704 40.2161Z" fill="#2F3F55"/>
<path d="M75.9816 40.2161C76.6839 40.2161 77.2532 39.6467 77.2532 38.9445C77.2532 38.2422 76.6839 37.6729 75.9816 37.6729C75.2793 37.6729 74.71 38.2422 74.71 38.9445C74.71 39.6467 75.2793 40.2161 75.9816 40.2161Z" fill="#2F3F55"/>
<path d="M90.7963 40.2161C91.4986 40.2161 92.0679 39.6467 92.0679 38.9445C92.0679 38.2422 91.4986 37.6729 90.7963 37.6729C90.094 37.6729 89.5247 38.2422 89.5247 38.9445C89.5247 39.6467 90.094 40.2161 90.7963 40.2161Z" fill="#2F3F55"/>
<path d="M5.61108 43.9198C6.31337 43.9198 6.88269 43.3504 6.88269 42.6482C6.88269 41.9459 6.31337 41.3766 5.61108 41.3766C4.90879 41.3766 4.33948 41.9459 4.33948 42.6482C4.33948 43.3504 4.90879 43.9198 5.61108 43.9198Z" fill="#2F3F55"/>
<path d="M16.7223 43.9198C17.4246 43.9198 17.9939 43.3504 17.9939 42.6482C17.9939 41.9459 17.4246 41.3766 16.7223 41.3766C16.02 41.3766 15.4507 41.9459 15.4507 42.6482C15.4507 43.3504 16.02 43.9198 16.7223 43.9198Z" fill="#2F3F55"/>
<path d="M20.4259 43.9198C21.1282 43.9198 21.6975 43.3504 21.6975 42.6482C21.6975 41.9459 21.1282 41.3766 20.4259 41.3766C19.7236 41.3766 19.1543 41.9459 19.1543 42.6482C19.1543 43.3504 19.7236 43.9198 20.4259 43.9198Z" fill="#2F3F55"/>
<path d="M27.8334 43.9198C28.5357 43.9198 29.105 43.3504 29.105 42.6482C29.105 41.9459 28.5357 41.3766 27.8334 41.3766C27.1311 41.3766 26.5618 41.9459 26.5618 42.6482C26.5618 43.3504 27.1311 43.9198 27.8334 43.9198Z" fill="#2F3F55"/>
<path d="M35.2407 43.9198C35.943 43.9198 36.5123 43.3504 36.5123 42.6482C36.5123 41.9459 35.943 41.3766 35.2407 41.3766C34.5384 41.3766 33.9691 41.9459 33.9691 42.6482C33.9691 43.3504 34.5384 43.9198 35.2407 43.9198Z" fill="#2F3F55"/>
<path d="M42.6482 43.9198C43.3505 43.9198 43.9198 43.3504 43.9198 42.6482C43.9198 41.9459 43.3505 41.3766 42.6482 41.3766C41.9459 41.3766 41.3766 41.9459 41.3766 42.6482C41.3766 43.3504 41.9459 43.9198 42.6482 43.9198Z" fill="#2F3F55"/>
<path d="M53.7593 43.9198C54.4616 43.9198 55.0309 43.3504 55.0309 42.6482C55.0309 41.9459 54.4616 41.3766 53.7593 41.3766C53.057 41.3766 52.4877 41.9459 52.4877 42.6482C52.4877 43.3504 53.057 43.9198 53.7593 43.9198Z" fill="#2F3F55"/>
<path d="M57.463 43.9198C58.1653 43.9198 58.7346 43.3504 58.7346 42.6482C58.7346 41.9459 58.1653 41.3766 57.463 41.3766C56.7607 41.3766 56.1914 41.9459 56.1914 42.6482C56.1914 43.3504 56.7607 43.9198 57.463 43.9198Z" fill="#2F3F55"/>
<path d="M61.1667 43.9198C61.869 43.9198 62.4384 43.3504 62.4384 42.6482C62.4384 41.9459 61.869 41.3766 61.1667 41.3766C60.4645 41.3766 59.8951 41.9459 59.8951 42.6482C59.8951 43.3504 60.4645 43.9198 61.1667 43.9198Z" fill="#2F3F55"/>
<path d="M64.8704 43.9198C65.5726 43.9198 66.142 43.3504 66.142 42.6482C66.142 41.9459 65.5726 41.3766 64.8704 41.3766C64.1681 41.3766 63.5988 41.9459 63.5988 42.6482C63.5988 43.3504 64.1681 43.9198 64.8704 43.9198Z" fill="#2F3F55"/>
<path d="M68.5741 43.9198C69.2764 43.9198 69.8457 43.3504 69.8457 42.6482C69.8457 41.9459 69.2764 41.3766 68.5741 41.3766C67.8718 41.3766 67.3025 41.9459 67.3025 42.6482C67.3025 43.3504 67.8718 43.9198 68.5741 43.9198Z" fill="#2F3F55"/>
<path d="M79.6852 43.9198C80.3875 43.9198 80.9568 43.3504 80.9568 42.6482C80.9568 41.9459 80.3875 41.3766 79.6852 41.3766C78.9829 41.3766 78.4136 41.9459 78.4136 42.6482C78.4136 43.3504 78.9829 43.9198 79.6852 43.9198Z" fill="#2F3F55"/>
<path d="M83.3889 43.9198C84.0912 43.9198 84.6605 43.3504 84.6605 42.6482C84.6605 41.9459 84.0912 41.3766 83.3889 41.3766C82.6866 41.3766 82.1173 41.9459 82.1173 42.6482C82.1173 43.3504 82.6866 43.9198 83.3889 43.9198Z" fill="#2F3F55"/>
<path d="M90.7963 43.9198C91.4986 43.9198 92.0679 43.3504 92.0679 42.6482C92.0679 41.9459 91.4986 41.3766 90.7963 41.3766C90.094 41.3766 89.5247 41.9459 89.5247 42.6482C89.5247 43.3504 90.094 43.9198 90.7963 43.9198Z" fill="#2F3F55"/>
<path d="M94.5 43.9198C95.2023 43.9198 95.7716 43.3504 95.7716 42.6482C95.7716 41.9459 95.2023 41.3766 94.5 41.3766C93.7977 41.3766 93.2284 41.9459 93.2284 42.6482C93.2284 43.3504 93.7977 43.9198 94.5 43.9198Z" fill="#2F3F55"/>
<path d="M5.61108 47.6235C6.31337 47.6235 6.88269 47.0542 6.88269 46.3519C6.88269 45.6496 6.31337 45.0803 5.61108 45.0803C4.90879 45.0803 4.33948 45.6496 4.33948 46.3519C4.33948 47.0542 4.90879 47.6235 5.61108 47.6235Z" fill="#2F3F55"/>
<path d="M16.7223 47.6235C17.4246 47.6235 17.9939 47.0542 17.9939 46.3519C17.9939 45.6496 17.4246 45.0803 16.7223 45.0803C16.02 45.0803 15.4507 45.6496 15.4507 46.3519C15.4507 47.0542 16.02 47.6235 16.7223 47.6235Z" fill="#2F3F55"/>
<path d="M35.2407 47.6235C35.943 47.6235 36.5123 47.0542 36.5123 46.3519C36.5123 45.6496 35.943 45.0803 35.2407 45.0803C34.5384 45.0803 33.9691 45.6496 33.9691 46.3519C33.9691 47.0542 34.5384 47.6235 35.2407 47.6235Z" fill="#2F3F55"/>
<path d="M46.3519 47.6235C47.0542 47.6235 47.6235 47.0542 47.6235 46.3519C47.6235 45.6496 47.0542 45.0803 46.3519 45.0803C45.6496 45.0803 45.0803 45.6496 45.0803 46.3519C45.0803 47.0542 45.6496 47.6235 46.3519 47.6235Z" fill="#2F3F55"/>
<path d="M61.1667 47.6235C61.869 47.6235 62.4384 47.0542 62.4384 46.3519C62.4384 45.6496 61.869 45.0803 61.1667 45.0803C60.4645 45.0803 59.8951 45.6496 59.8951 46.3519C59.8951 47.0542 60.4645 47.6235 61.1667 47.6235Z" fill="#2F3F55"/>
<path d="M75.9816 47.6235C76.6839 47.6235 77.2532 47.0542 77.2532 46.3519C77.2532 45.6496 76.6839 45.0803 75.9816 45.0803C75.2793 45.0803 74.71 45.6496 74.71 46.3519C74.71 47.0542 75.2793 47.6235 75.9816 47.6235Z" fill="#2F3F55"/>
<path d="M94.5 47.6235C95.2023 47.6235 95.7716 47.0542 95.7716 46.3519C95.7716 45.6496 95.2023 45.0803 94.5 45.0803C93.7977 45.0803 93.2284 45.6496 93.2284 46.3519C93.2284 47.0542 93.7977 47.6235 94.5 47.6235Z" fill="#2F3F55"/>
<path d="M5.61108 51.3271C6.31337 51.3271 6.88269 50.7578 6.88269 50.0555C6.88269 49.3533 6.31337 48.7839 5.61108 48.7839C4.90879 48.7839 4.33948 49.3533 4.33948 50.0555C4.33948 50.7578 4.90879 51.3271 5.61108 51.3271Z" fill="#2F3F55"/>
<path d="M20.4259 51.3271C21.1282 51.3271 21.6975 50.7578 21.6975 50.0555C21.6975 49.3533 21.1282 48.7839 20.4259 48.7839C19.7236 48.7839 19.1543 49.3533 19.1543 50.0555C19.1543 50.7578 19.7236 51.3271 20.4259 51.3271Z" fill="#2F3F55"/>
<path d="M27.8334 51.3271C28.5357 51.3271 29.105 50.7578 29.105 50.0555C29.105 49.3533 28.5357 48.7839 27.8334 48.7839C27.1311 48.7839 26.5618 49.3533 26.5618 50.0555C26.5618 50.7578 27.1311 51.3271 27.8334 51.3271Z" fill="#2F3F55"/>
<path d="M35.2407 51.3271C35.943 51.3271 36.5123 50.7578 36.5123 50.0555C36.5123 49.3533 35.943 48.7839 35.2407 48.7839C34.5384 48.7839 33.9691 49.3533 33.9691 50.0555C33.9691 50.7578 34.5384 51.3271 35.2407 51.3271Z" fill="#2F3F55"/>
<path d="M38.9445 51.3271C39.6467 51.3271 40.2161 50.7578 40.2161 50.0555C40.2161 49.3533 39.6467 48.7839 38.9445 48.7839C38.2422 48.7839 37.6729 49.3533 37.6729 50.0555C37.6729 50.7578 38.2422 51.3271 38.9445 51.3271Z" fill="#2F3F55"/>
<path d="M42.6482 51.3271C43.3505 51.3271 43.9198 50.7578 43.9198 50.0555C43.9198 49.3533 43.3505 48.7839 42.6482 48.7839C41.9459 48.7839 41.3766 49.3533 41.3766 50.0555C41.3766 50.7578 41.9459 51.3271 42.6482 51.3271Z" fill="#2F3F55"/>
<path d="M46.3519 51.3271C47.0542 51.3271 47.6235 50.7578 47.6235 50.0555C47.6235 49.3533 47.0542 48.7839 46.3519 48.7839C45.6496 48.7839 45.0803 49.3533 45.0803 50.0555C45.0803 50.7578 45.6496 51.3271 46.3519 51.3271Z" fill="#2F3F55"/>
<path d="M50.0555 51.3271C50.7578 51.3271 51.3271 50.7578 51.3271 50.0555C51.3271 49.3533 50.7578 48.7839 50.0555 48.7839C49.3533 48.7839 48.7839 49.3533 48.7839 50.0555C48.7839 50.7578 49.3533 51.3271 50.0555 51.3271Z" fill="#2F3F55"/>
<path d="M53.7593 51.3271C54.4616 51.3271 55.0309 50.7578 55.0309 50.0555C55.0309 49.3533 54.4616 48.7839 53.7593 48.7839C53.057 48.7839 52.4877 49.3533 52.4877 50.0555C52.4877 50.7578 53.057 51.3271 53.7593 51.3271Z" fill="#2F3F55"/>
<path d="M57.463 51.3271C58.1653 51.3271 58.7346 50.7578 58.7346 50.0555C58.7346 49.3533 58.1653 48.7839 57.463 48.7839C56.7607 48.7839 56.1914 49.3533 56.1914 50.0555C56.1914 50.7578 56.7607 51.3271 57.463 51.3271Z" fill="#2F3F55"/>
<path d="M68.5741 51.3271C69.2764 51.3271 69.8457 50.7578 69.8457 50.0555C69.8457 49.3533 69.2764 48.7839 68.5741 48.7839C67.8718 48.7839 67.3025 49.3533 67.3025 50.0555C67.3025 50.7578 67.8718 51.3271 68.5741 51.3271Z" fill="#2F3F55"/>
<path d="M72.2778 51.3271C72.9801 51.3271 73.5494 50.7578 73.5494 50.0555C73.5494 49.3533 72.9801 48.7839 72.2778 48.7839C71.5755 48.7839 71.0062 49.3533 71.0062 50.0555C71.0062 50.7578 71.5755 51.3271 72.2778 51.3271Z" fill="#2F3F55"/>
<path d="M75.9816 51.3271C76.6839 51.3271 77.2532 50.7578 77.2532 50.0555C77.2532 49.3533 76.6839 48.7839 75.9816 48.7839C75.2793 48.7839 74.71 49.3533 74.71 50.0555C74.71 50.7578 75.2793 51.3271 75.9816 51.3271Z" fill="#2F3F55"/>
<path d="M79.6852 51.3271C80.3875 51.3271 80.9568 50.7578 80.9568 50.0555C80.9568 49.3533 80.3875 48.7839 79.6852 48.7839C78.9829 48.7839 78.4136 49.3533 78.4136 50.0555C78.4136 50.7578 78.9829 51.3271 79.6852 51.3271Z" fill="#2F3F55"/>
<path d="M87.0926 51.3271C87.7949 51.3271 88.3643 50.7578 88.3643 50.0555C88.3643 49.3533 87.7949 48.7839 87.0926 48.7839C86.3904 48.7839 85.821 49.3533 85.821 50.0555C85.821 50.7578 86.3904 51.3271 87.0926 51.3271Z" fill="#2F3F55"/>
<path d="M90.7963 51.3271C91.4986 51.3271 92.0679 50.7578 92.0679 50.0555C92.0679 49.3533 91.4986 48.7839 90.7963 48.7839C90.094 48.7839 89.5247 49.3533 89.5247 50.0555C89.5247 50.7578 90.094 51.3271 90.7963 51.3271Z" fill="#2F3F55"/>
<path d="M94.5 51.3271C95.2023 51.3271 95.7716 50.7578 95.7716 50.0555C95.7716 49.3533 95.2023 48.7839 94.5 48.7839C93.7977 48.7839 93.2284 49.3533 93.2284 50.0555C93.2284 50.7578 93.7977 51.3271 94.5 51.3271Z" fill="#2F3F55"/>
<path d="M5.61108 55.0309C6.31337 55.0309 6.88269 54.4616 6.88269 53.7593C6.88269 53.057 6.31337 52.4877 5.61108 52.4877C4.90879 52.4877 4.33948 53.057 4.33948 53.7593C4.33948 54.4616 4.90879 55.0309 5.61108 55.0309Z" fill="#2F3F55"/>
<path d="M13.0186 55.0309C13.7208 55.0309 14.2902 54.4616 14.2902 53.7593C14.2902 53.057 13.7208 52.4877 13.0186 52.4877C12.3163 52.4877 11.7469 53.057 11.7469 53.7593C11.7469 54.4616 12.3163 55.0309 13.0186 55.0309Z" fill="#2F3F55"/>
<path d="M16.7223 55.0309C17.4246 55.0309 17.9939 54.4616 17.9939 53.7593C17.9939 53.057 17.4246 52.4877 16.7223 52.4877C16.02 52.4877 15.4507 53.057 15.4507 53.7593C15.4507 54.4616 16.02 55.0309 16.7223 55.0309Z" fill="#2F3F55"/>
<path d="M20.4259 55.0309C21.1282 55.0309 21.6975 54.4616 21.6975 53.7593C21.6975 53.057 21.1282 52.4877 20.4259 52.4877C19.7236 52.4877 19.1543 53.057 19.1543 53.7593C19.1543 54.4616 19.7236 55.0309 20.4259 55.0309Z" fill="#2F3F55"/>
<path d="M31.5371 55.0309C32.2394 55.0309 32.8087 54.4616 32.8087 53.7593C32.8087 53.057 32.2394 52.4877 31.5371 52.4877C30.8348 52.4877 30.2655 53.057 30.2655 53.7593C30.2655 54.4616 30.8348 55.0309 31.5371 55.0309Z" fill="#2F3F55"/>
<path d="M38.9445 55.0309C39.6467 55.0309 40.2161 54.4616 40.2161 53.7593C40.2161 53.057 39.6467 52.4877 38.9445 52.4877C38.2422 52.4877 37.6729 53.057 37.6729 53.7593C37.6729 54.4616 38.2422 55.0309 38.9445 55.0309Z" fill="#2F3F55"/>
<path d="M46.3519 55.0309C47.0542 55.0309 47.6235 54.4616 47.6235 53.7593C47.6235 53.057 47.0542 52.4877 46.3519 52.4877C45.6496 52.4877 45.0803 53.057 45.0803 53.7593C45.0803 54.4616 45.6496 55.0309 46.3519 55.0309Z" fill="#2F3F55"/>
<path d="M50.0555 55.0309C50.7578 55.0309 51.3271 54.4616 51.3271 53.7593C51.3271 53.057 50.7578 52.4877 50.0555 52.4877C49.3533 52.4877 48.7839 53.057 48.7839 53.7593C48.7839 54.4616 49.3533 55.0309 50.0555 55.0309Z" fill="#2F3F55"/>
<path d="M64.8704 55.0309C65.5726 55.0309 66.142 54.4616 66.142 53.7593C66.142 53.057 65.5726 52.4877 64.8704 52.4877C64.1681 52.4877 63.5988 53.057 63.5988 53.7593C63.5988 54.4616 64.1681 55.0309 64.8704 55.0309Z" fill="#2F3F55"/>
<path d="M68.5741 55.0309C69.2764 55.0309 69.8457 54.4616 69.8457 53.7593C69.8457 53.057 69.2764 52.4877 68.5741 52.4877C67.8718 52.4877 67.3025 53.057 67.3025 53.7593C67.3025 54.4616 67.8718 55.0309 68.5741 55.0309Z" fill="#2F3F55"/>
<path d="M75.9816 55.0309C76.6839 55.0309 77.2532 54.4616 77.2532 53.7593C77.2532 53.057 76.6839 52.4877 75.9816 52.4877C75.2793 52.4877 74.71 53.057 74.71 53.7593C74.71 54.4616 75.2793 55.0309 75.9816 55.0309Z" fill="#2F3F55"/>
<path d="M83.3889 55.0309C84.0912 55.0309 84.6605 54.4616 84.6605 53.7593C84.6605 53.057 84.0912 52.4877 83.3889 52.4877C82.6866 52.4877 82.1173 53.057 82.1173 53.7593C82.1173 54.4616 82.6866 55.0309 83.3889 55.0309Z" fill="#2F3F55"/>
<path d="M90.7963 55.0309C91.4986 55.0309 92.0679 54.4616 92.0679 53.7593C92.0679 53.057 91.4986 52.4877 90.7963 52.4877C90.094 52.4877 89.5247 53.057 89.5247 53.7593C89.5247 54.4616 90.094 55.0309 90.7963 55.0309Z" fill="#2F3F55"/>
<path d="M5.61108 58.7346C6.31337 58.7346 6.88269 58.1652 6.88269 57.463C6.88269 56.7607 6.31337 56.1913 5.61108 56.1913C4.90879 56.1913 4.33948 56.7607 4.33948 57.463C4.33948 58.1652 4.90879 58.7346 5.61108 58.7346Z" fill="#2F3F55"/>
<path d="M13.0186 58.7346C13.7208 58.7346 14.2902 58.1652 14.2902 57.463C14.2902 56.7607 13.7208 56.1913 13.0186 56.1913C12.3163 56.1913 11.7469 56.7607 11.7469 57.463C11.7469 58.1652 12.3163 58.7346 13.0186 58.7346Z" fill="#2F3F55"/>
<path d="M20.4259 58.7346C21.1282 58.7346 21.6975 58.1652 21.6975 57.463C21.6975 56.7607 21.1282 56.1913 20.4259 56.1913C19.7236 56.1913 19.1543 56.7607 19.1543 57.463C19.1543 58.1652 19.7236 58.7346 20.4259 58.7346Z" fill="#2F3F55"/>
<path d="M24.1296 58.7346C24.8319 58.7346 25.4012 58.1652 25.4012 57.463C25.4012 56.7607 24.8319 56.1913 24.1296 56.1913C23.4273 56.1913 22.858 56.7607 22.858 57.463C22.858 58.1652 23.4273 58.7346 24.1296 58.7346Z" fill="#2F3F55"/>
<path d="M27.8334 58.7346C28.5357 58.7346 29.105 58.1652 29.105 57.463C29.105 56.7607 28.5357 56.1913 27.8334 56.1913C27.1311 56.1913 26.5618 56.7607 26.5618 57.463C26.5618 58.1652 27.1311 58.7346 27.8334 58.7346Z" fill="#2F3F55"/>
<path d="M35.2407 58.7346C35.943 58.7346 36.5123 58.1652 36.5123 57.463C36.5123 56.7607 35.943 56.1913 35.2407 56.1913C34.5384 56.1913 33.9691 56.7607 33.9691 57.463C33.9691 58.1652 34.5384 58.7346 35.2407 58.7346Z" fill="#2F3F55"/>
<path d="M42.6482 58.7346C43.3505 58.7346 43.9198 58.1652 43.9198 57.463C43.9198 56.7607 43.3505 56.1913 42.6482 56.1913C41.9459 56.1913 41.3766 56.7607 41.3766 57.463C41.3766 58.1652 41.9459 58.7346 42.6482 58.7346Z" fill="#2F3F55"/>
<path d="M50.0555 58.7346C50.7578 58.7346 51.3271 58.1652 51.3271 57.463C51.3271 56.7607 50.7578 56.1913 50.0555 56.1913C49.3533 56.1913 48.7839 56.7607 48.7839 57.463C48.7839 58.1652 49.3533 58.7346 50.0555 58.7346Z" fill="#2F3F55"/>
<path d="M53.7593 58.7346C54.4616 58.7346 55.0309 58.1652 55.0309 57.463C55.0309 56.7607 54.4616 56.1913 53.7593 56.1913C53.057 56.1913 52.4877 56.7607 52.4877 57.463C52.4877 58.1652 53.057 58.7346 53.7593 58.7346Z" fill="#2F3F55"/>
<path d="M61.1667 58.7346C61.869 58.7346 62.4384 58.1652 62.4384 57.463C62.4384 56.7607 61.869 56.1913 61.1667 56.1913C60.4645 56.1913 59.8951 56.7607 59.8951 57.463C59.8951 58.1652 60.4645 58.7346 61.1667 58.7346Z" fill="#2F3F55"/>
<path d="M72.2778 58.7346C72.9801 58.7346 73.5494 58.1652 73.5494 57.463C73.5494 56.7607 72.9801 56.1913 72.2778 56.1913C71.5755 56.1913 71.0062 56.7607 71.0062 57.463C71.0062 58.1652 71.5755 58.7346 72.2778 58.7346Z" fill="#2F3F55"/>
<path d="M75.9816 58.7346C76.6839 58.7346 77.2532 58.1652 77.2532 57.463C77.2532 56.7607 76.6839 56.1913 75.9816 56.1913C75.2793 56.1913 74.71 56.7607 74.71 57.463C74.71 58.1652 75.2793 58.7346 75.9816 58.7346Z" fill="#2F3F55"/>
<path d="M79.6852 58.7346C80.3875 58.7346 80.9568 58.1652 80.9568 57.463C80.9568 56.7607 80.3875 56.1913 79.6852 56.1913C78.9829 56.1913 78.4136 56.7607 78.4136 57.463C78.4136 58.1652 78.9829 58.7346 79.6852 58.7346Z" fill="#2F3F55"/>
<path d="M83.3889 58.7346C84.0912 58.7346 84.6605 58.1652 84.6605 57.463C84.6605 56.7607 84.0912 56.1913 83.3889 56.1913C82.6866 56.1913 82.1173 56.7607 82.1173 57.463C82.1173 58.1652 82.6866 58.7346 83.3889 58.7346Z" fill="#2F3F55"/>
<path d="M90.7963 58.7346C91.4986 58.7346 92.0679 58.1652 92.0679 57.463C92.0679 56.7607 91.4986 56.1913 90.7963 56.1913C90.094 56.1913 89.5247 56.7607 89.5247 57.463C89.5247 58.1652 90.094 58.7346 90.7963 58.7346Z" fill="#2F3F55"/>
<path d="M94.5 58.7346C95.2023 58.7346 95.7716 58.1652 95.7716 57.463C95.7716 56.7607 95.2023 56.1913 94.5 56.1913C93.7977 56.1913 93.2284 56.7607 93.2284 57.463C93.2284 58.1652 93.7977 58.7346 94.5 58.7346Z" fill="#2F3F55"/>
<path d="M5.61108 62.4383C6.31337 62.4383 6.88269 61.8689 6.88269 61.1667C6.88269 60.4644 6.31337 59.8951 5.61108 59.8951C4.90879 59.8951 4.33948 60.4644 4.33948 61.1667C4.33948 61.8689 4.90879 62.4383 5.61108 62.4383Z" fill="#2F3F55"/>
<path d="M13.0186 62.4383C13.7208 62.4383 14.2902 61.8689 14.2902 61.1667C14.2902 60.4644 13.7208 59.8951 13.0186 59.8951C12.3163 59.8951 11.7469 60.4644 11.7469 61.1667C11.7469 61.8689 12.3163 62.4383 13.0186 62.4383Z" fill="#2F3F55"/>
<path d="M35.2407 62.4383C35.943 62.4383 36.5123 61.8689 36.5123 61.1667C36.5123 60.4644 35.943 59.8951 35.2407 59.8951C34.5384 59.8951 33.9691 60.4644 33.9691 61.1667C33.9691 61.8689 34.5384 62.4383 35.2407 62.4383Z" fill="#2F3F55"/>
<path d="M42.6482 62.4383C43.3505 62.4383 43.9198 61.8689 43.9198 61.1667C43.9198 60.4644 43.3505 59.8951 42.6482 59.8951C41.9459 59.8951 41.3766 60.4644 41.3766 61.1667C41.3766 61.8689 41.9459 62.4383 42.6482 62.4383Z" fill="#2F3F55"/>
<path d="M46.3519 62.4383C47.0542 62.4383 47.6235 61.8689 47.6235 61.1667C47.6235 60.4644 47.0542 59.8951 46.3519 59.8951C45.6496 59.8951 45.0803 60.4644 45.0803 61.1667C45.0803 61.8689 45.6496 62.4383 46.3519 62.4383Z" fill="#2F3F55"/>
<path d="M57.463 62.4383C58.1653 62.4383 58.7346 61.8689 58.7346 61.1667C58.7346 60.4644 58.1653 59.8951 57.463 59.8951C56.7607 59.8951 56.1914 60.4644 56.1914 61.1667C56.1914 61.8689 56.7607 62.4383 57.463 62.4383Z" fill="#2F3F55"/>
<path d="M61.1667 62.4383C61.869 62.4383 62.4384 61.8689 62.4384 61.1667C62.4384 60.4644 61.869 59.8951 61.1667 59.8951C60.4645 59.8951 59.8951 60.4644 59.8951 61.1667C59.8951 61.8689 60.4645 62.4383 61.1667 62.4383Z" fill="#2F3F55"/>
<path d="M64.8704 62.4383C65.5726 62.4383 66.142 61.8689 66.142 61.1667C66.142 60.4644 65.5726 59.8951 64.8704 59.8951C64.1681 59.8951 63.5988 60.4644 63.5988 61.1667C63.5988 61.8689 64.1681 62.4383 64.8704 62.4383Z" fill="#2F3F55"/>
<path d="M72.2778 62.4383C72.9801 62.4383 73.5494 61.8689 73.5494 61.1667C73.5494 60.4644 72.9801 59.8951 72.2778 59.8951C71.5755 59.8951 71.0062 60.4644 71.0062 61.1667C71.0062 61.8689 71.5755 62.4383 72.2778 62.4383Z" fill="#2F3F55"/>
<path d="M75.9816 62.4383C76.6839 62.4383 77.2532 61.8689 77.2532 61.1667C77.2532 60.4644 76.6839 59.8951 75.9816 59.8951C75.2793 59.8951 74.71 60.4644 74.71 61.1667C74.71 61.8689 75.2793 62.4383 75.9816 62.4383Z" fill="#2F3F55"/>
<path d="M79.6852 62.4383C80.3875 62.4383 80.9568 61.8689 80.9568 61.1667C80.9568 60.4644 80.3875 59.8951 79.6852 59.8951C78.9829 59.8951 78.4136 60.4644 78.4136 61.1667C78.4136 61.8689 78.9829 62.4383 79.6852 62.4383Z" fill="#2F3F55"/>
<path d="M94.5 62.4383C95.2023 62.4383 95.7716 61.8689 95.7716 61.1667C95.7716 60.4644 95.2023 59.8951 94.5 59.8951C93.7977 59.8951 93.2284 60.4644 93.2284 61.1667C93.2284 61.8689 93.7977 62.4383 94.5 62.4383Z" fill="#2F3F55"/>
<path d="M5.61108 66.142C6.31337 66.142 6.88269 65.5726 6.88269 64.8704C6.88269 64.1681 6.31337 63.5988 5.61108 63.5988C4.90879 63.5988 4.33948 64.1681 4.33948 64.8704C4.33948 65.5726 4.90879 66.142 5.61108 66.142Z" fill="#2F3F55"/>
<path d="M13.0186 66.142C13.7208 66.142 14.2902 65.5726 14.2902 64.8704C14.2902 64.1681 13.7208 63.5988 13.0186 63.5988C12.3163 63.5988 11.7469 64.1681 11.7469 64.8704C11.7469 65.5726 12.3163 66.142 13.0186 66.142Z" fill="#2F3F55"/>
<path d="M24.1296 66.142C24.8319 66.142 25.4012 65.5726 25.4012 64.8704C25.4012 64.1681 24.8319 63.5988 24.1296 63.5988C23.4273 63.5988 22.858 64.1681 22.858 64.8704C22.858 65.5726 23.4273 66.142 24.1296 66.142Z" fill="#2F3F55"/>
<path d="M27.8334 66.142C28.5357 66.142 29.105 65.5726 29.105 64.8704C29.105 64.1681 28.5357 63.5988 27.8334 63.5988C27.1311 63.5988 26.5618 64.1681 26.5618 64.8704C26.5618 65.5726 27.1311 66.142 27.8334 66.142Z" fill="#2F3F55"/>
<path d="M35.2407 66.142C35.943 66.142 36.5123 65.5726 36.5123 64.8704C36.5123 64.1681 35.943 63.5988 35.2407 63.5988C34.5384 63.5988 33.9691 64.1681 33.9691 64.8704C33.9691 65.5726 34.5384 66.142 35.2407 66.142Z" fill="#2F3F55"/>
<path d="M38.9445 66.142C39.6467 66.142 40.2161 65.5726 40.2161 64.8704C40.2161 64.1681 39.6467 63.5988 38.9445 63.5988C38.2422 63.5988 37.6729 64.1681 37.6729 64.8704C37.6729 65.5726 38.2422 66.142 38.9445 66.142Z" fill="#2F3F55"/>
<path d="M46.3519 66.142C47.0542 66.142 47.6235 65.5726 47.6235 64.8704C47.6235 64.1681 47.0542 63.5988 46.3519 63.5988C45.6496 63.5988 45.0803 64.1681 45.0803 64.8704C45.0803 65.5726 45.6496 66.142 46.3519 66.142Z" fill="#2F3F55"/>
<path d="M50.0555 66.142C50.7578 66.142 51.3271 65.5726 51.3271 64.8704C51.3271 64.1681 50.7578 63.5988 50.0555 63.5988C49.3533 63.5988 48.7839 64.1681 48.7839 64.8704C48.7839 65.5726 49.3533 66.142 50.0555 66.142Z" fill="#2F3F55"/>
<path d="M53.7593 66.142C54.4616 66.142 55.0309 65.5726 55.0309 64.8704C55.0309 64.1681 54.4616 63.5988 53.7593 63.5988C53.057 63.5988 52.4877 64.1681 52.4877 64.8704C52.4877 65.5726 53.057 66.142 53.7593 66.142Z" fill="#2F3F55"/>
<path d="M57.463 66.142C58.1653 66.142 58.7346 65.5726 58.7346 64.8704C58.7346 64.1681 58.1653 63.5988 57.463 63.5988C56.7607 63.5988 56.1914 64.1681 56.1914 64.8704C56.1914 65.5726 56.7607 66.142 57.463 66.142Z" fill="#2F3F55"/>
<path d="M61.1667 66.142C61.869 66.142 62.4384 65.5726 62.4384 64.8704C62.4384 64.1681 61.869 63.5988 61.1667 63.5988C60.4645 63.5988 59.8951 64.1681 59.8951 64.8704C59.8951 65.5726 60.4645 66.142 61.1667 66.142Z" fill="#2F3F55"/>
<path d="M64.8704 66.142C65.5726 66.142 66.142 65.5726 66.142 64.8704C66.142 64.1681 65.5726 63.5988 64.8704 63.5988C64.1681 63.5988 63.5988 64.1681 63.5988 64.8704C63.5988 65.5726 64.1681 66.142 64.8704 66.142Z" fill="#2F3F55"/>
<path d="M68.5741 66.142C69.2764 66.142 69.8457 65.5726 69.8457 64.8704C69.8457 64.1681 69.2764 63.5988 68.5741 63.5988C67.8718 63.5988 67.3025 64.1681 67.3025 64.8704C67.3025 65.5726 67.8718 66.142 68.5741 66.142Z" fill="#2F3F55"/>
<path d="M72.2778 66.142C72.9801 66.142 73.5494 65.5726 73.5494 64.8704C73.5494 64.1681 72.9801 63.5988 72.2778 63.5988C71.5755 63.5988 71.0062 64.1681 71.0062 64.8704C71.0062 65.5726 71.5755 66.142 72.2778 66.142Z" fill="#2F3F55"/>
<path d="M75.9816 66.142C76.6839 66.142 77.2532 65.5726 77.2532 64.8704C77.2532 64.1681 76.6839 63.5988 75.9816 63.5988C75.2793 63.5988 74.71 64.1681 74.71 64.8704C74.71 65.5726 75.2793 66.142 75.9816 66.142Z" fill="#2F3F55"/>
<path d="M79.6852 66.142C80.3875 66.142 80.9568 65.5726 80.9568 64.8704C80.9568 64.1681 80.3875 63.5988 79.6852 63.5988C78.9829 63.5988 78.4136 64.1681 78.4136 64.8704C78.4136 65.5726 78.9829 66.142 79.6852 66.142Z" fill="#2F3F55"/>
<path d="M87.0926 66.142C87.7949 66.142 88.3643 65.5726 88.3643 64.8704C88.3643 64.1681 87.7949 63.5988 87.0926 63.5988C86.3904 63.5988 85.821 64.1681 85.821 64.8704C85.821 65.5726 86.3904 66.142 87.0926 66.142Z" fill="#2F3F55"/>
<path d="M35.2407 69.8457C35.943 69.8457 36.5123 69.2764 36.5123 68.5741C36.5123 67.8718 35.943 67.3025 35.2407 67.3025C34.5384 67.3025 33.9691 67.8718 33.9691 68.5741C33.9691 69.2764 34.5384 69.8457 35.2407 69.8457Z" fill="#2F3F55"/>
<path d="M46.3519 69.8457C47.0542 69.8457 47.6235 69.2764 47.6235 68.5741C47.6235 67.8718 47.0542 67.3025 46.3519 67.3025C45.6496 67.3025 45.0803 67.8718 45.0803 68.5741C45.0803 69.2764 45.6496 69.8457 46.3519 69.8457Z" fill="#2F3F55"/>
<path d="M53.7593 69.8457C54.4616 69.8457 55.0309 69.2764 55.0309 68.5741C55.0309 67.8718 54.4616 67.3025 53.7593 67.3025C53.057 67.3025 52.4877 67.8718 52.4877 68.5741C52.4877 69.2764 53.057 69.8457 53.7593 69.8457Z" fill="#2F3F55"/>
<path d="M64.8704 69.8457C65.5726 69.8457 66.142 69.2764 66.142 68.5741C66.142 67.8718 65.5726 67.3025 64.8704 67.3025C64.1681 67.3025 63.5988 67.8718 63.5988 68.5741C63.5988 69.2764 64.1681 69.8457 64.8704 69.8457Z" fill="#2F3F55"/>
<path d="M79.6852 69.8457C80.3875 69.8457 80.9568 69.2764 80.9568 68.5741C80.9568 67.8718 80.3875 67.3025 79.6852 67.3025C78.9829 67.3025 78.4136 67.8718 78.4136 68.5741C78.4136 69.2764 78.9829 69.8457 79.6852 69.8457Z" fill="#2F3F55"/>
<path d="M83.3889 69.8457C84.0912 69.8457 84.6605 69.2764 84.6605 68.5741C84.6605 67.8718 84.0912 67.3025 83.3889 67.3025C82.6866 67.3025 82.1173 67.8718 82.1173 68.5741C82.1173 69.2764 82.6866 69.8457 83.3889 69.8457Z" fill="#2F3F55"/>
<path d="M35.2407 73.5494C35.943 73.5494 36.5123 72.9801 36.5123 72.2778C36.5123 71.5755 35.943 71.0062 35.2407 71.0062C34.5384 71.0062 33.9691 71.5755 33.9691 72.2778C33.9691 72.9801 34.5384 73.5494 35.2407 73.5494Z" fill="#2F3F55"/>
<path d="M42.6482 73.5494C43.3505 73.5494 43.9198 72.9801 43.9198 72.2778C43.9198 71.5755 43.3505 71.0062 42.6482 71.0062C41.9459 71.0062 41.3766 71.5755 41.3766 72.2778C41.3766 72.9801 41.9459 73.5494 42.6482 73.5494Z" fill="#2F3F55"/>
<path d="M50.0555 73.5494C50.7578 73.5494 51.3271 72.9801 51.3271 72.2778C51.3271 71.5755 50.7578 71.0062 50.0555 71.0062C49.3533 71.0062 48.7839 71.5755 48.7839 72.2778C48.7839 72.9801 49.3533 73.5494 50.0555 73.5494Z" fill="#2F3F55"/>
<path d="M53.7593 73.5494C54.4616 73.5494 55.0309 72.9801 55.0309 72.2778C55.0309 71.5755 54.4616 71.0062 53.7593 71.0062C53.057 71.0062 52.4877 71.5755 52.4877 72.2778C52.4877 72.9801 53.057 73.5494 53.7593 73.5494Z" fill="#2F3F55"/>
<path d="M57.463 73.5494C58.1653 73.5494 58.7346 72.9801 58.7346 72.2778C58.7346 71.5755 58.1653 71.0062 57.463 71.0062C56.7607 71.0062 56.1914 71.5755 56.1914 72.2778C56.1914 72.9801 56.7607 73.5494 57.463 73.5494Z" fill="#2F3F55"/>
<path d="M64.8704 73.5494C65.5726 73.5494 66.142 72.9801 66.142 72.2778C66.142 71.5755 65.5726 71.0062 64.8704 71.0062C64.1681 71.0062 63.5988 71.5755 63.5988 72.2778C63.5988 72.9801 64.1681 73.5494 64.8704 73.5494Z" fill="#2F3F55"/>
<path d="M72.2778 73.5494C72.9801 73.5494 73.5494 72.9801 73.5494 72.2778C73.5494 71.5755 72.9801 71.0062 72.2778 71.0062C71.5755 71.0062 71.0062 71.5755 71.0062 72.2778C71.0062 72.9801 71.5755 73.5494 72.2778 73.5494Z" fill="#2F3F55"/>
<path d="M79.6852 73.5494C80.3875 73.5494 80.9568 72.9801 80.9568 72.2778C80.9568 71.5755 80.3875 71.0062 79.6852 71.0062C78.9829 71.0062 78.4136 71.5755 78.4136 72.2778C78.4136 72.9801 78.9829 73.5494 79.6852 73.5494Z" fill="#2F3F55"/>
<path d="M87.0926 73.5494C87.7949 73.5494 88.3643 72.9801 88.3643 72.2778C88.3643 71.5755 87.7949 71.0062 87.0926 71.0062C86.3904 71.0062 85.821 71.5755 85.821 72.2778C85.821 72.9801 86.3904 73.5494 87.0926 73.5494Z" fill="#2F3F55"/>
<path d="M90.7963 73.5494C91.4986 73.5494 92.0679 72.9801 92.0679 72.2778C92.0679 71.5755 91.4986 71.0062 90.7963 71.0062C90.094 71.0062 89.5247 71.5755 89.5247 72.2778C89.5247 72.9801 90.094 73.5494 90.7963 73.5494Z" fill="#2F3F55"/>
<path d="M94.5 73.5494C95.2023 73.5494 95.7716 72.9801 95.7716 72.2778C95.7716 71.5755 95.2023 71.0062 94.5 71.0062C93.7977 71.0062 93.2284 71.5755 93.2284 72.2778C93.2284 72.9801 93.7977 73.5494 94.5 73.5494Z" fill="#2F3F55"/>
<path d="M38.9445 77.2531C39.6467 77.2531 40.2161 76.6838 40.2161 75.9815C40.2161 75.2792 39.6467 74.7099 38.9445 74.7099C38.2422 74.7099 37.6729 75.2792 37.6729 75.9815C37.6729 76.6838 38.2422 77.2531 38.9445 77.2531Z" fill="#2F3F55"/>
<path d="M42.6482 77.2531C43.3505 77.2531 43.9198 76.6838 43.9198 75.9815C43.9198 75.2792 43.3505 74.7099 42.6482 74.7099C41.9459 74.7099 41.3766 75.2792 41.3766 75.9815C41.3766 76.6838 41.9459 77.2531 42.6482 77.2531Z" fill="#2F3F55"/>
<path d="M46.3519 77.2531C47.0542 77.2531 47.6235 76.6838 47.6235 75.9815C47.6235 75.2792 47.0542 74.7099 46.3519 74.7099C45.6496 74.7099 45.0803 75.2792 45.0803 75.9815C45.0803 76.6838 45.6496 77.2531 46.3519 77.2531Z" fill="#2F3F55"/>
<path d="M57.463 77.2531C58.1653 77.2531 58.7346 76.6838 58.7346 75.9815C58.7346 75.2792 58.1653 74.7099 57.463 74.7099C56.7607 74.7099 56.1914 75.2792 56.1914 75.9815C56.1914 76.6838 56.7607 77.2531 57.463 77.2531Z" fill="#2F3F55"/>
<path d="M64.8704 77.2531C65.5726 77.2531 66.142 76.6838 66.142 75.9815C66.142 75.2792 65.5726 74.7099 64.8704 74.7099C64.1681 74.7099 63.5988 75.2792 63.5988 75.9815C63.5988 76.6838 64.1681 77.2531 64.8704 77.2531Z" fill="#2F3F55"/>
<path d="M79.6852 77.2531C80.3875 77.2531 80.9568 76.6838 80.9568 75.9815C80.9568 75.2792 80.3875 74.7099 79.6852 74.7099C78.9829 74.7099 78.4136 75.2792 78.4136 75.9815C78.4136 76.6838 78.9829 77.2531 79.6852 77.2531Z" fill="#2F3F55"/>
<path d="M83.3889 77.2531C84.0912 77.2531 84.6605 76.6838 84.6605 75.9815C84.6605 75.2792 84.0912 74.7099 83.3889 74.7099C82.6866 74.7099 82.1173 75.2792 82.1173 75.9815C82.1173 76.6838 82.6866 77.2531 83.3889 77.2531Z" fill="#2F3F55"/>
<path d="M90.7963 77.2531C91.4986 77.2531 92.0679 76.6838 92.0679 75.9815C92.0679 75.2792 91.4986 74.7099 90.7963 74.7099C90.094 74.7099 89.5247 75.2792 89.5247 75.9815C89.5247 76.6838 90.094 77.2531 90.7963 77.2531Z" fill="#2F3F55"/>
<path d="M35.2407 80.9568C35.943 80.9568 36.5123 80.3875 36.5123 79.6852C36.5123 78.9829 35.943 78.4136 35.2407 78.4136C34.5384 78.4136 33.9691 78.9829 33.9691 79.6852C33.9691 80.3875 34.5384 80.9568 35.2407 80.9568Z" fill="#2F3F55"/>
<path d="M53.7593 80.9568C54.4616 80.9568 55.0309 80.3875 55.0309 79.6852C55.0309 78.9829 54.4616 78.4136 53.7593 78.4136C53.057 78.4136 52.4877 78.9829 52.4877 79.6852C52.4877 80.3875 53.057 80.9568 53.7593 80.9568Z" fill="#2F3F55"/>
<path d="M57.463 80.9568C58.1653 80.9568 58.7346 80.3875 58.7346 79.6852C58.7346 78.9829 58.1653 78.4136 57.463 78.4136C56.7607 78.4136 56.1914 78.9829 56.1914 79.6852C56.1914 80.3875 56.7607 80.9568 57.463 80.9568Z" fill="#2F3F55"/>
<path d="M61.1667 80.9568C61.869 80.9568 62.4384 80.3875 62.4384 79.6852C62.4384 78.9829 61.869 78.4136 61.1667 78.4136C60.4645 78.4136 59.8951 78.9829 59.8951 79.6852C59.8951 80.3875 60.4645 80.9568 61.1667 80.9568Z" fill="#2F3F55"/>
<path d="M64.8704 80.9568C65.5726 80.9568 66.142 80.3875 66.142 79.6852C66.142 78.9829 65.5726 78.4136 64.8704 78.4136C64.1681 78.4136 63.5988 78.9829 63.5988 79.6852C63.5988 80.3875 64.1681 80.9568 64.8704 80.9568Z" fill="#2F3F55"/>
<path d="M68.5741 80.9568C69.2764 80.9568 69.8457 80.3875 69.8457 79.6852C69.8457 78.9829 69.2764 78.4136 68.5741 78.4136C67.8718 78.4136 67.3025 78.9829 67.3025 79.6852C67.3025 80.3875 67.8718 80.9568 68.5741 80.9568Z" fill="#2F3F55"/>
<path d="M72.2778 80.9568C72.9801 80.9568 73.5494 80.3875 73.5494 79.6852C73.5494 78.9829 72.9801 78.4136 72.2778 78.4136C71.5755 78.4136 71.0062 78.9829 71.0062 79.6852C71.0062 80.3875 71.5755 80.9568 72.2778 80.9568Z" fill="#2F3F55"/>
<path d="M75.9816 80.9568C76.6839 80.9568 77.2532 80.3875 77.2532 79.6852C77.2532 78.9829 76.6839 78.4136 75.9816 78.4136C75.2793 78.4136 74.71 78.9829 74.71 79.6852C74.71 80.3875 75.2793 80.9568 75.9816 80.9568Z" fill="#2F3F55"/>
<path d="M79.6852 80.9568C80.3875 80.9568 80.9568 80.3875 80.9568 79.6852C80.9568 78.9829 80.3875 78.4136 79.6852 78.4136C78.9829 78.4136 78.4136 78.9829 78.4136 79.6852C78.4136 80.3875 78.9829 80.9568 79.6852 80.9568Z" fill="#2F3F55"/>
<path d="M87.0926 80.9568C87.7949 80.9568 88.3643 80.3875 88.3643 79.6852C88.3643 78.9829 87.7949 78.4136 87.0926 78.4136C86.3904 78.4136 85.821 78.9829 85.821 79.6852C85.821 80.3875 86.3904 80.9568 87.0926 80.9568Z" fill="#2F3F55"/>
<path d="M35.2407 84.6605C35.943 84.6605 36.5123 84.0912 36.5123 83.3889C36.5123 82.6866 35.943 82.1173 35.2407 82.1173C34.5384 82.1173 33.9691 82.6866 33.9691 83.3889C33.9691 84.0912 34.5384 84.6605 35.2407 84.6605Z" fill="#2F3F55"/>
<path d="M46.3519 84.6605C47.0542 84.6605 47.6235 84.0912 47.6235 83.3889C47.6235 82.6866 47.0542 82.1173 46.3519 82.1173C45.6496 82.1173 45.0803 82.6866 45.0803 83.3889C45.0803 84.0912 45.6496 84.6605 46.3519 84.6605Z" fill="#2F3F55"/>
<path d="M53.7593 84.6605C54.4616 84.6605 55.0309 84.0912 55.0309 83.3889C55.0309 82.6866 54.4616 82.1173 53.7593 82.1173C53.057 82.1173 52.4877 82.6866 52.4877 83.3889C52.4877 84.0912 53.057 84.6605 53.7593 84.6605Z" fill="#2F3F55"/>
<path d="M61.1667 84.6605C61.869 84.6605 62.4384 84.0912 62.4384 83.3889C62.4384 82.6866 61.869 82.1173 61.1667 82.1173C60.4645 82.1173 59.8951 82.6866 59.8951 83.3889C59.8951 84.0912 60.4645 84.6605 61.1667 84.6605Z" fill="#2F3F55"/>
<path d="M64.8704 84.6605C65.5726 84.6605 66.142 84.0912 66.142 83.3889C66.142 82.6866 65.5726 82.1173 64.8704 82.1173C64.1681 82.1173 63.5988 82.6866 63.5988 83.3889C63.5988 84.0912 64.1681 84.6605 64.8704 84.6605Z" fill="#2F3F55"/>
<path d="M68.5741 84.6605C69.2764 84.6605 69.8457 84.0912 69.8457 83.3889C69.8457 82.6866 69.2764 82.1173 68.5741 82.1173C67.8718 82.1173 67.3025 82.6866 67.3025 83.3889C67.3025 84.0912 67.8718 84.6605 68.5741 84.6605Z" fill="#2F3F55"/>
<path d="M72.2778 84.6605C72.9801 84.6605 73.5494 84.0912 73.5494 83.3889C73.5494 82.6866 72.9801 82.1173 72.2778 82.1173C71.5755 82.1173 71.0062 82.6866 71.0062 83.3889C71.0062 84.0912 71.5755 84.6605 72.2778 84.6605Z" fill="#2F3F55"/>
<path d="M79.6852 84.6605C80.3875 84.6605 80.9568 84.0912 80.9568 83.3889C80.9568 82.6866 80.3875 82.1173 79.6852 82.1173C78.9829 82.1173 78.4136 82.6866 78.4136 83.3889C78.4136 84.0912 78.9829 84.6605 79.6852 84.6605Z" fill="#2F3F55"/>
<path d="M83.3889 84.6605C84.0912 84.6605 84.6605 84.0912 84.6605 83.3889C84.6605 82.6866 84.0912 82.1173 83.3889 82.1173C82.6866 82.1173 82.1173 82.6866 82.1173 83.3889C82.1173 84.0912 82.6866 84.6605 83.3889 84.6605Z" fill="#2F3F55"/>
<path d="M87.0926 84.6605C87.7949 84.6605 88.3643 84.0912 88.3643 83.3889C88.3643 82.6866 87.7949 82.1173 87.0926 82.1173C86.3904 82.1173 85.821 82.6866 85.821 83.3889C85.821 84.0912 86.3904 84.6605 87.0926 84.6605Z" fill="#2F3F55"/>
<path d="M90.7963 84.6605C91.4986 84.6605 92.0679 84.0912 92.0679 83.3889C92.0679 82.6866 91.4986 82.1173 90.7963 82.1173C90.094 82.1173 89.5247 82.6866 89.5247 83.3889C89.5247 84.0912 90.094 84.6605 90.7963 84.6605Z" fill="#2F3F55"/>
<path d="M94.5 84.6605C95.2023 84.6605 95.7716 84.0912 95.7716 83.3889C95.7716 82.6866 95.2023 82.1173 94.5 82.1173C93.7977 82.1173 93.2284 82.6866 93.2284 83.3889C93.2284 84.0912 93.7977 84.6605 94.5 84.6605Z" fill="#2F3F55"/>
<path d="M35.2407 88.3642C35.943 88.3642 36.5123 87.7949 36.5123 87.0926C36.5123 86.3903 35.943 85.821 35.2407 85.821C34.5384 85.821 33.9691 86.3903 33.9691 87.0926C33.9691 87.7949 34.5384 88.3642 35.2407 88.3642Z" fill="#2F3F55"/>
<path d="M50.0555 88.3642C50.7578 88.3642 51.3271 87.7949 51.3271 87.0926C51.3271 86.3903 50.7578 85.821 50.0555 85.821C49.3533 85.821 48.7839 86.3903 48.7839 87.0926C48.7839 87.7949 49.3533 88.3642 50.0555 88.3642Z" fill="#2F3F55"/>
<path d="M57.463 88.3642C58.1653 88.3642 58.7346 87.7949 58.7346 87.0926C58.7346 86.3903 58.1653 85.821 57.463 85.821C56.7607 85.821 56.1914 86.3903 56.1914 87.0926C56.1914 87.7949 56.7607 88.3642 57.463 88.3642Z" fill="#2F3F55"/>
<path d="M64.8704 88.3642C65.5726 88.3642 66.142 87.7949 66.142 87.0926C66.142 86.3903 65.5726 85.821 64.8704 85.821C64.1681 85.821 63.5988 86.3903 63.5988 87.0926C63.5988 87.7949 64.1681 88.3642 64.8704 88.3642Z" fill="#2F3F55"/>
<path d="M68.5741 88.3642C69.2764 88.3642 69.8457 87.7949 69.8457 87.0926C69.8457 86.3903 69.2764 85.821 68.5741 85.821C67.8718 85.821 67.3025 86.3903 67.3025 87.0926C67.3025 87.7949 67.8718 88.3642 68.5741 88.3642Z" fill="#2F3F55"/>
<path d="M83.3889 88.3642C84.0912 88.3642 84.6605 87.7949 84.6605 87.0926C84.6605 86.3903 84.0912 85.821 83.3889 85.821C82.6866 85.821 82.1173 86.3903 82.1173 87.0926C82.1173 87.7949 82.6866 88.3642 83.3889 88.3642Z" fill="#2F3F55"/>
<path d="M87.0926 88.3642C87.7949 88.3642 88.3643 87.7949 88.3643 87.0926C88.3643 86.3903 87.7949 85.821 87.0926 85.821C86.3904 85.821 85.821 86.3903 85.821 87.0926C85.821 87.7949 86.3904 88.3642 87.0926 88.3642Z" fill="#2F3F55"/>
<path d="M94.5 88.3642C95.2023 88.3642 95.7716 87.7949 95.7716 87.0926C95.7716 86.3903 95.2023 85.821 94.5 85.821C93.7977 85.821 93.2284 86.3903 93.2284 87.0926C93.2284 87.7949 93.7977 88.3642 94.5 88.3642Z" fill="#2F3F55"/>
<path d="M35.2407 92.0679C35.943 92.0679 36.5123 91.4986 36.5123 90.7963C36.5123 90.094 35.943 89.5247 35.2407 89.5247C34.5384 89.5247 33.9691 90.094 33.9691 90.7963C33.9691 91.4986 34.5384 92.0679 35.2407 92.0679Z" fill="#2F3F55"/>
<path d="M46.3519 92.0679C47.0542 92.0679 47.6235 91.4986 47.6235 90.7963C47.6235 90.094 47.0542 89.5247 46.3519 89.5247C45.6496 89.5247 45.0803 90.094 45.0803 90.7963C45.0803 91.4986 45.6496 92.0679 46.3519 92.0679Z" fill="#2F3F55"/>
<path d="M57.463 92.0679C58.1653 92.0679 58.7346 91.4986 58.7346 90.7963C58.7346 90.094 58.1653 89.5247 57.463 89.5247C56.7607 89.5247 56.1914 90.094 56.1914 90.7963C56.1914 91.4986 56.7607 92.0679 57.463 92.0679Z" fill="#2F3F55"/>
<path d="M61.1667 92.0679C61.869 92.0679 62.4384 91.4986 62.4384 90.7963C62.4384 90.094 61.869 89.5247 61.1667 89.5247C60.4645 89.5247 59.8951 90.094 59.8951 90.7963C59.8951 91.4986 60.4645 92.0679 61.1667 92.0679Z" fill="#2F3F55"/>
<path d="M64.8704 92.0679C65.5726 92.0679 66.142 91.4986 66.142 90.7963C66.142 90.094 65.5726 89.5247 64.8704 89.5247C64.1681 89.5247 63.5988 90.094 63.5988 90.7963C63.5988 91.4986 64.1681 92.0679 64.8704 92.0679Z" fill="#2F3F55"/>
<path d="M68.5741 92.0679C69.2764 92.0679 69.8457 91.4986 69.8457 90.7963C69.8457 90.094 69.2764 89.5247 68.5741 89.5247C67.8718 89.5247 67.3025 90.094 67.3025 90.7963C67.3025 91.4986 67.8718 92.0679 68.5741 92.0679Z" fill="#2F3F55"/>
<path d="M72.2778 92.0679C72.9801 92.0679 73.5494 91.4986 73.5494 90.7963C73.5494 90.094 72.9801 89.5247 72.2778 89.5247C71.5755 89.5247 71.0062 90.094 71.0062 90.7963C71.0062 91.4986 71.5755 92.0679 72.2778 92.0679Z" fill="#2F3F55"/>
<path d="M75.9816 92.0679C76.6839 92.0679 77.2532 91.4986 77.2532 90.7963C77.2532 90.094 76.6839 89.5247 75.9816 89.5247C75.2793 89.5247 74.71 90.094 74.71 90.7963C74.71 91.4986 75.2793 92.0679 75.9816 92.0679Z" fill="#2F3F55"/>
<path d="M79.6852 92.0679C80.3875 92.0679 80.9568 91.4986 80.9568 90.7963C80.9568 90.094 80.3875 89.5247 79.6852 89.5247C78.9829 89.5247 78.4136 90.094 78.4136 90.7963C78.4136 91.4986 78.9829 92.0679 79.6852 92.0679Z" fill="#2F3F55"/>
<path d="M83.3889 92.0679C84.0912 92.0679 84.6605 91.4986 84.6605 90.7963C84.6605 90.094 84.0912 89.5247 83.3889 89.5247C82.6866 89.5247 82.1173 90.094 82.1173 90.7963C82.1173 91.4986 82.6866 92.0679 83.3889 92.0679Z" fill="#2F3F55"/>
<path d="M94.5 92.0679C95.2023 92.0679 95.7716 91.4986 95.7716 90.7963C95.7716 90.094 95.2023 89.5247 94.5 89.5247C93.7977 89.5247 93.2284 90.094 93.2284 90.7963C93.2284 91.4986 93.7977 92.0679 94.5 92.0679Z" fill="#2F3F55"/>
<path d="M35.2407 95.7716C35.943 95.7716 36.5123 95.2023 36.5123 94.5C36.5123 93.7977 35.943 93.2284 35.2407 93.2284C34.5384 93.2284 33.9691 93.7977 33.9691 94.5C33.9691 95.2023 34.5384 95.7716 35.2407 95.7716Z" fill="#2F3F55"/>
<path d="M38.9445 95.7716C39.6467 95.7716 40.2161 95.2023 40.2161 94.5C40.2161 93.7977 39.6467 93.2284 38.9445 93.2284C38.2422 93.2284 37.6729 93.7977 37.6729 94.5C37.6729 95.2023 38.2422 95.7716 38.9445 95.7716Z" fill="#2F3F55"/>
<path d="M46.3519 95.7716C47.0542 95.7716 47.6235 95.2023 47.6235 94.5C47.6235 93.7977 47.0542 93.2284 46.3519 93.2284C45.6496 93.2284 45.0803 93.7977 45.0803 94.5C45.0803 95.2023 45.6496 95.7716 46.3519 95.7716Z" fill="#2F3F55"/>
<path d="M50.0555 95.7716C50.7578 95.7716 51.3271 95.2023 51.3271 94.5C51.3271 93.7977 50.7578 93.2284 50.0555 93.2284C49.3533 93.2284 48.7839 93.7977 48.7839 94.5C48.7839 95.2023 49.3533 95.7716 50.0555 95.7716Z" fill="#2F3F55"/>
<path d="M53.7593 95.7716C54.4616 95.7716 55.0309 95.2023 55.0309 94.5C55.0309 93.7977 54.4616 93.2284 53.7593 93.2284C53.057 93.2284 52.4877 93.7977 52.4877 94.5C52.4877 95.2023 53.057 95.7716 53.7593 95.7716Z" fill="#2F3F55"/>
<path d="M61.1667 95.7716C61.869 95.7716 62.4384 95.2023 62.4384 94.5C62.4384 93.7977 61.869 93.2284 61.1667 93.2284C60.4645 93.2284 59.8951 93.7977 59.8951 94.5C59.8951 95.2023 60.4645 95.7716 61.1667 95.7716Z" fill="#2F3F55"/>
<path d="M72.2778 95.7716C72.9801 95.7716 73.5494 95.2023 73.5494 94.5C73.5494 93.7977 72.9801 93.2284 72.2778 93.2284C71.5755 93.2284 71.0062 93.7977 71.0062 94.5C71.0062 95.2023 71.5755 95.7716 72.2778 95.7716Z" fill="#2F3F55"/>
<path d="M75.9816 95.7716C76.6839 95.7716 77.2532 95.2023 77.2532 94.5C77.2532 93.7977 76.6839 93.2284 75.9816 93.2284C75.2793 93.2284 74.71 93.7977 74.71 94.5C74.71 95.2023 75.2793 95.7716 75.9816 95.7716Z" fill="#2F3F55"/>
<path d="M79.6852 95.7716C80.3875 95.7716 80.9568 95.2023 80.9568 94.5C80.9568 93.7977 80.3875 93.2284 79.6852 93.2284C78.9829 93.2284 78.4136 93.7977 78.4136 94.5C78.4136 95.2023 78.9829 95.7716 79.6852 95.7716Z" fill="#2F3F55"/>
<path d="M83.3889 95.7716C84.0912 95.7716 84.6605 95.2023 84.6605 94.5C84.6605 93.7977 84.0912 93.2284 83.3889 93.2284C82.6866 93.2284 82.1173 93.7977 82.1173 94.5C82.1173 95.2023 82.6866 95.7716 83.3889 95.7716Z" fill="#2F3F55"/>
<path d="M87.0926 95.7716C87.7949 95.7716 88.3643 95.2023 88.3643 94.5C88.3643 93.7977 87.7949 93.2284 87.0926 93.2284C86.3904 93.2284 85.821 93.7977 85.821 94.5C85.821 95.2023 86.3904 95.7716 87.0926 95.7716Z" fill="#2F3F55"/>
<path d="M90.7963 95.7716C91.4986 95.7716 92.0679 95.2023 92.0679 94.5C92.0679 93.7977 91.4986 93.2284 90.7963 93.2284C90.094 93.2284 89.5247 93.7977 89.5247 94.5C89.5247 95.2023 90.094 95.7716 90.7963 95.7716Z" fill="#2F3F55"/>
<path d="M94.5 95.7716C95.2023 95.7716 95.7716 95.2023 95.7716 94.5C95.7716 93.7977 95.2023 93.2284 94.5 93.2284C93.7977 93.2284 93.2284 93.7977 93.2284 94.5C93.2284 95.2023 93.7977 95.7716 94.5 95.7716Z" fill="#2F3F55"/>
<path d="M12.0371 29.6296H21.4815C25.926 29.6296 29.6297 25.9259 29.6297 21.4815V12.037C29.6297 7.40741 25.926 3.7037 21.2963 3.7037H11.8519C7.40744 3.7037 3.70374 7.40741 3.70374 11.8519V21.2963C3.70374 25.9259 7.40744 29.6296 12.0371 29.6296ZM25.926 12.5926V20.7407C25.926 23.5185 23.5185 25.9259 20.7408 25.9259H12.5926C9.62966 25.9259 7.40744 23.7037 7.40744 20.7407V12.5926C7.40744 9.81482 9.81485 7.40741 12.5926 7.40741H20.7408C23.7037 7.40741 25.926 9.62963 25.926 12.5926Z" fill="#2F3F55"/>
<path d="M78.7037 29.6296H88.1481C92.5926 29.6296 96.2963 25.9259 96.2963 21.4815V12.037C96.2963 7.40741 92.5926 3.7037 87.963 3.7037H78.5185C74.0741 3.7037 70.3704 7.40741 70.3704 11.8519V21.2963C70.3704 25.9259 74.0741 29.6296 78.7037 29.6296ZM92.5926 12.5926V20.7407C92.5926 23.5185 90.1852 25.9259 87.4074 25.9259H79.2593C76.2963 25.9259 74.0741 23.7037 74.0741 20.7407V12.5926C74.0741 9.81482 76.4815 7.40741 79.2593 7.40741H87.4074C90.3704 7.40741 92.5926 9.62963 92.5926 12.5926Z" fill="#2F3F55"/>
<path d="M12.0371 96.2963H21.4815C25.926 96.2963 29.6297 92.5926 29.6297 88.1481V78.7037C29.6297 74.0741 25.926 70.3704 21.2963 70.3704H11.8519C7.40744 70.3704 3.70374 74.0741 3.70374 78.5185V87.963C3.70374 92.5926 7.40744 96.2963 12.0371 96.2963ZM25.926 79.2593V87.4074C25.926 90.1852 23.5185 92.5926 20.7408 92.5926H12.5926C9.62966 92.5926 7.40744 90.3704 7.40744 87.4074V79.2593C7.40744 76.4815 9.81485 74.0741 12.5926 74.0741H20.7408C23.7037 74.0741 25.926 76.2963 25.926 79.2593Z" fill="#2F3F55"/>
<path d="M22.2222 14.2593V19.2593C22.2222 20.7407 20.7407 22.2222 19.074 22.2222H14.2592C12.4074 22.2222 11.1111 20.9259 11.1111 19.0741V14.2593C11.1111 12.5926 12.5926 11.1111 14.2592 11.1111H19.2592C20.9259 11.1111 22.2222 12.4074 22.2222 14.2593Z" fill="#2F3F55"/>
<path d="M88.8889 14.2593V19.2593C88.8889 20.7407 87.4075 22.2222 85.7408 22.2222H80.926C79.0741 22.2222 77.7778 20.9259 77.7778 19.0741V14.2593C77.7778 12.5926 79.2593 11.1111 80.926 11.1111H85.926C87.5926 11.1111 88.8889 12.4074 88.8889 14.2593Z" fill="#2F3F55"/>
<path d="M22.2222 80.9259V85.9259C22.2222 87.4074 20.7407 88.8889 19.074 88.8889H14.2592C12.4074 88.8889 11.1111 87.5926 11.1111 85.7407V80.9259C11.1111 79.2593 12.5926 77.7778 14.2592 77.7778H19.2592C20.9259 77.7778 22.2222 79.0741 22.2222 80.9259Z" fill="#2F3F55"/>
</svg>
