<svg width="100" height="100" viewBox="0 0 100 100" fill="none" xmlns="http://www.w3.org/2000/svg">
<path d="M37.4377 6.7295C38.0407 6.7295 38.5295 6.24068 38.5295 5.6377C38.5295 5.03471 38.0407 4.5459 37.4377 4.5459C36.8348 4.5459 36.3459 5.03471 36.3459 5.6377C36.3459 6.24068 36.8348 6.7295 37.4377 6.7295Z" fill="#2F3F55"/>
<path d="M43.7976 6.7295C44.4006 6.7295 44.8894 6.24068 44.8894 5.6377C44.8894 5.03471 44.4006 4.5459 43.7976 4.5459C43.1946 4.5459 42.7058 5.03471 42.7058 5.6377C42.7058 6.24068 43.1946 6.7295 43.7976 6.7295Z" fill="#2F3F55"/>
<path d="M46.9778 6.7295C47.5808 6.7295 48.0696 6.24068 48.0696 5.6377C48.0696 5.03471 47.5808 4.5459 46.9778 4.5459C46.3748 4.5459 45.886 5.03471 45.886 5.6377C45.886 6.24068 46.3748 6.7295 46.9778 6.7295Z" fill="#2F3F55"/>
<path d="M53.3376 6.7295C53.9406 6.7295 54.4294 6.24068 54.4294 5.6377C54.4294 5.03471 53.9406 4.5459 53.3376 4.5459C52.7347 4.5459 52.2458 5.03471 52.2458 5.6377C52.2458 6.24068 52.7347 6.7295 53.3376 6.7295Z" fill="#2F3F55"/>
<path d="M66.0577 6.7295C66.6607 6.7295 67.1495 6.24068 67.1495 5.6377C67.1495 5.03471 66.6607 4.5459 66.0577 4.5459C65.4548 4.5459 64.9659 5.03471 64.9659 5.6377C64.9659 6.24068 65.4548 6.7295 66.0577 6.7295Z" fill="#2F3F55"/>
<path d="M31.0776 9.90951C31.6806 9.90951 32.1694 9.42069 32.1694 8.81771C32.1694 8.21472 31.6806 7.72591 31.0776 7.72591C30.4747 7.72591 29.9858 8.21472 29.9858 8.81771C29.9858 9.42069 30.4747 9.90951 31.0776 9.90951Z" fill="#2F3F55"/>
<path d="M37.4377 9.90951C38.0407 9.90951 38.5295 9.42069 38.5295 8.81771C38.5295 8.21472 38.0407 7.72591 37.4377 7.72591C36.8348 7.72591 36.3459 8.21472 36.3459 8.81771C36.3459 9.42069 36.8348 9.90951 37.4377 9.90951Z" fill="#2F3F55"/>
<path d="M46.9778 9.90951C47.5808 9.90951 48.0696 9.42069 48.0696 8.81771C48.0696 8.21472 47.5808 7.72591 46.9778 7.72591C46.3748 7.72591 45.886 8.21472 45.886 8.81771C45.886 9.42069 46.3748 9.90951 46.9778 9.90951Z" fill="#2F3F55"/>
<path d="M50.1577 9.90951C50.7607 9.90951 51.2495 9.42069 51.2495 8.81771C51.2495 8.21472 50.7607 7.72591 50.1577 7.72591C49.5547 7.72591 49.0659 8.21472 49.0659 8.81771C49.0659 9.42069 49.5547 9.90951 50.1577 9.90951Z" fill="#2F3F55"/>
<path d="M53.3376 9.90951C53.9406 9.90951 54.4294 9.42069 54.4294 8.81771C54.4294 8.21472 53.9406 7.72591 53.3376 7.72591C52.7347 7.72591 52.2458 8.21472 52.2458 8.81771C52.2458 9.42069 52.7347 9.90951 53.3376 9.90951Z" fill="#2F3F55"/>
<path d="M56.5177 9.90951C57.1207 9.90951 57.6095 9.42069 57.6095 8.81771C57.6095 8.21472 57.1207 7.72591 56.5177 7.72591C55.9147 7.72591 55.4259 8.21472 55.4259 8.81771C55.4259 9.42069 55.9147 9.90951 56.5177 9.90951Z" fill="#2F3F55"/>
<path d="M59.6978 9.90951C60.3007 9.90951 60.7896 9.42069 60.7896 8.81771C60.7896 8.21472 60.3007 7.72591 59.6978 7.72591C59.0948 7.72591 58.606 8.21472 58.606 8.81771C58.606 9.42069 59.0948 9.90951 59.6978 9.90951Z" fill="#2F3F55"/>
<path d="M62.8777 9.90951C63.4807 9.90951 63.9695 9.42069 63.9695 8.81771C63.9695 8.21472 63.4807 7.72591 62.8777 7.72591C62.2747 7.72591 61.7859 8.21472 61.7859 8.81771C61.7859 9.42069 62.2747 9.90951 62.8777 9.90951Z" fill="#2F3F55"/>
<path d="M69.2377 9.90951C69.8407 9.90951 70.3295 9.42069 70.3295 8.81771C70.3295 8.21472 69.8407 7.72591 69.2377 7.72591C68.6347 7.72591 68.1459 8.21472 68.1459 8.81771C68.1459 9.42069 68.6347 9.90951 69.2377 9.90951Z" fill="#2F3F55"/>
<path d="M43.7976 13.0895C44.4006 13.0895 44.8894 12.6007 44.8894 11.9977C44.8894 11.3947 44.4006 10.9059 43.7976 10.9059C43.1946 10.9059 42.7058 11.3947 42.7058 11.9977C42.7058 12.6007 43.1946 13.0895 43.7976 13.0895Z" fill="#2F3F55"/>
<path d="M46.9778 13.0895C47.5808 13.0895 48.0696 12.6007 48.0696 11.9977C48.0696 11.3947 47.5808 10.9059 46.9778 10.9059C46.3748 10.9059 45.886 11.3947 45.886 11.9977C45.886 12.6007 46.3748 13.0895 46.9778 13.0895Z" fill="#2F3F55"/>
<path d="M53.3376 13.0895C53.9406 13.0895 54.4294 12.6007 54.4294 11.9977C54.4294 11.3947 53.9406 10.9059 53.3376 10.9059C52.7347 10.9059 52.2458 11.3947 52.2458 11.9977C52.2458 12.6007 52.7347 13.0895 53.3376 13.0895Z" fill="#2F3F55"/>
<path d="M66.0577 13.0895C66.6607 13.0895 67.1495 12.6007 67.1495 11.9977C67.1495 11.3947 66.6607 10.9059 66.0577 10.9059C65.4548 10.9059 64.9659 11.3947 64.9659 11.9977C64.9659 12.6007 65.4548 13.0895 66.0577 13.0895Z" fill="#2F3F55"/>
<path d="M69.2377 13.0895C69.8407 13.0895 70.3295 12.6007 70.3295 11.9977C70.3295 11.3947 69.8407 10.9059 69.2377 10.9059C68.6347 10.9059 68.1459 11.3947 68.1459 11.9977C68.1459 12.6007 68.6347 13.0895 69.2377 13.0895Z" fill="#2F3F55"/>
<path d="M31.0776 16.2695C31.6806 16.2695 32.1694 15.7807 32.1694 15.1777C32.1694 14.5747 31.6806 14.0859 31.0776 14.0859C30.4747 14.0859 29.9858 14.5747 29.9858 15.1777C29.9858 15.7807 30.4747 16.2695 31.0776 16.2695Z" fill="#2F3F55"/>
<path d="M34.2577 16.2695C34.8607 16.2695 35.3495 15.7807 35.3495 15.1777C35.3495 14.5747 34.8607 14.0859 34.2577 14.0859C33.6547 14.0859 33.1659 14.5747 33.1659 15.1777C33.1659 15.7807 33.6547 16.2695 34.2577 16.2695Z" fill="#2F3F55"/>
<path d="M37.4377 16.2695C38.0407 16.2695 38.5295 15.7807 38.5295 15.1777C38.5295 14.5747 38.0407 14.0859 37.4377 14.0859C36.8348 14.0859 36.3459 14.5747 36.3459 15.1777C36.3459 15.7807 36.8348 16.2695 37.4377 16.2695Z" fill="#2F3F55"/>
<path d="M43.7976 16.2695C44.4006 16.2695 44.8894 15.7807 44.8894 15.1777C44.8894 14.5747 44.4006 14.0859 43.7976 14.0859C43.1946 14.0859 42.7058 14.5747 42.7058 15.1777C42.7058 15.7807 43.1946 16.2695 43.7976 16.2695Z" fill="#2F3F55"/>
<path d="M50.1577 16.2695C50.7607 16.2695 51.2495 15.7807 51.2495 15.1777C51.2495 14.5747 50.7607 14.0859 50.1577 14.0859C49.5547 14.0859 49.0659 14.5747 49.0659 15.1777C49.0659 15.7807 49.5547 16.2695 50.1577 16.2695Z" fill="#2F3F55"/>
<path d="M56.5177 16.2695C57.1207 16.2695 57.6095 15.7807 57.6095 15.1777C57.6095 14.5747 57.1207 14.0859 56.5177 14.0859C55.9147 14.0859 55.4259 14.5747 55.4259 15.1777C55.4259 15.7807 55.9147 16.2695 56.5177 16.2695Z" fill="#2F3F55"/>
<path d="M59.6978 16.2695C60.3007 16.2695 60.7896 15.7807 60.7896 15.1777C60.7896 14.5747 60.3007 14.0859 59.6978 14.0859C59.0948 14.0859 58.606 14.5747 58.606 15.1777C58.606 15.7807 59.0948 16.2695 59.6978 16.2695Z" fill="#2F3F55"/>
<path d="M62.8777 16.2695C63.4807 16.2695 63.9695 15.7807 63.9695 15.1777C63.9695 14.5747 63.4807 14.0859 62.8777 14.0859C62.2747 14.0859 61.7859 14.5747 61.7859 15.1777C61.7859 15.7807 62.2747 16.2695 62.8777 16.2695Z" fill="#2F3F55"/>
<path d="M66.0577 16.2695C66.6607 16.2695 67.1495 15.7807 67.1495 15.1777C67.1495 14.5747 66.6607 14.0859 66.0577 14.0859C65.4548 14.0859 64.9659 14.5747 64.9659 15.1777C64.9659 15.7807 65.4548 16.2695 66.0577 16.2695Z" fill="#2F3F55"/>
<path d="M34.2577 19.4495C34.8607 19.4495 35.3495 18.9607 35.3495 18.3577C35.3495 17.7547 34.8607 17.2659 34.2577 17.2659C33.6547 17.2659 33.1659 17.7547 33.1659 18.3577C33.1659 18.9607 33.6547 19.4495 34.2577 19.4495Z" fill="#2F3F55"/>
<path d="M56.5177 19.4495C57.1207 19.4495 57.6095 18.9607 57.6095 18.3577C57.6095 17.7547 57.1207 17.2659 56.5177 17.2659C55.9147 17.2659 55.4259 17.7547 55.4259 18.3577C55.4259 18.9607 55.9147 19.4495 56.5177 19.4495Z" fill="#2F3F55"/>
<path d="M66.0577 19.4495C66.6607 19.4495 67.1495 18.9607 67.1495 18.3577C67.1495 17.7547 66.6607 17.2659 66.0577 17.2659C65.4548 17.2659 64.9659 17.7547 64.9659 18.3577C64.9659 18.9607 65.4548 19.4495 66.0577 19.4495Z" fill="#2F3F55"/>
<path d="M31.0776 22.6295C31.6806 22.6295 32.1694 22.1407 32.1694 21.5377C32.1694 20.9347 31.6806 20.4459 31.0776 20.4459C30.4747 20.4459 29.9858 20.9347 29.9858 21.5377C29.9858 22.1407 30.4747 22.6295 31.0776 22.6295Z" fill="#2F3F55"/>
<path d="M34.2577 22.6295C34.8607 22.6295 35.3495 22.1407 35.3495 21.5377C35.3495 20.9347 34.8607 20.4459 34.2577 20.4459C33.6547 20.4459 33.1659 20.9347 33.1659 21.5377C33.1659 22.1407 33.6547 22.6295 34.2577 22.6295Z" fill="#2F3F55"/>
<path d="M40.6177 22.6295C41.2207 22.6295 41.7095 22.1407 41.7095 21.5377C41.7095 20.9347 41.2207 20.4459 40.6177 20.4459C40.0147 20.4459 39.5259 20.9347 39.5259 21.5377C39.5259 22.1407 40.0147 22.6295 40.6177 22.6295Z" fill="#2F3F55"/>
<path d="M43.7976 22.6295C44.4006 22.6295 44.8894 22.1407 44.8894 21.5377C44.8894 20.9347 44.4006 20.4459 43.7976 20.4459C43.1946 20.4459 42.7058 20.9347 42.7058 21.5377C42.7058 22.1407 43.1946 22.6295 43.7976 22.6295Z" fill="#2F3F55"/>
<path d="M53.3376 22.6295C53.9406 22.6295 54.4294 22.1407 54.4294 21.5377C54.4294 20.9347 53.9406 20.4459 53.3376 20.4459C52.7347 20.4459 52.2458 20.9347 52.2458 21.5377C52.2458 22.1407 52.7347 22.6295 53.3376 22.6295Z" fill="#2F3F55"/>
<path d="M56.5177 22.6295C57.1207 22.6295 57.6095 22.1407 57.6095 21.5377C57.6095 20.9347 57.1207 20.4459 56.5177 20.4459C55.9147 20.4459 55.4259 20.9347 55.4259 21.5377C55.4259 22.1407 55.9147 22.6295 56.5177 22.6295Z" fill="#2F3F55"/>
<path d="M62.8777 22.6295C63.4807 22.6295 63.9695 22.1407 63.9695 21.5377C63.9695 20.9347 63.4807 20.4459 62.8777 20.4459C62.2747 20.4459 61.7859 20.9347 61.7859 21.5377C61.7859 22.1407 62.2747 22.6295 62.8777 22.6295Z" fill="#2F3F55"/>
<path d="M31.0776 25.8095C31.6806 25.8095 32.1694 25.3207 32.1694 24.7177C32.1694 24.1147 31.6806 23.6259 31.0776 23.6259C30.4747 23.6259 29.9858 24.1147 29.9858 24.7177C29.9858 25.3207 30.4747 25.8095 31.0776 25.8095Z" fill="#2F3F55"/>
<path d="M37.4377 25.8095C38.0407 25.8095 38.5295 25.3207 38.5295 24.7177C38.5295 24.1147 38.0407 23.6259 37.4377 23.6259C36.8348 23.6259 36.3459 24.1147 36.3459 24.7177C36.3459 25.3207 36.8348 25.8095 37.4377 25.8095Z" fill="#2F3F55"/>
<path d="M43.7976 25.8095C44.4006 25.8095 44.8894 25.3207 44.8894 24.7177C44.8894 24.1147 44.4006 23.6259 43.7976 23.6259C43.1946 23.6259 42.7058 24.1147 42.7058 24.7177C42.7058 25.3207 43.1946 25.8095 43.7976 25.8095Z" fill="#2F3F55"/>
<path d="M50.1577 25.8095C50.7607 25.8095 51.2495 25.3207 51.2495 24.7177C51.2495 24.1147 50.7607 23.6259 50.1577 23.6259C49.5547 23.6259 49.0659 24.1147 49.0659 24.7177C49.0659 25.3207 49.5547 25.8095 50.1577 25.8095Z" fill="#2F3F55"/>
<path d="M56.5177 25.8095C57.1207 25.8095 57.6095 25.3207 57.6095 24.7177C57.6095 24.1147 57.1207 23.6259 56.5177 23.6259C55.9147 23.6259 55.4259 24.1147 55.4259 24.7177C55.4259 25.3207 55.9147 25.8095 56.5177 25.8095Z" fill="#2F3F55"/>
<path d="M62.8777 25.8095C63.4807 25.8095 63.9695 25.3207 63.9695 24.7177C63.9695 24.1147 63.4807 23.6259 62.8777 23.6259C62.2747 23.6259 61.7859 24.1147 61.7859 24.7177C61.7859 25.3207 62.2747 25.8095 62.8777 25.8095Z" fill="#2F3F55"/>
<path d="M69.2377 25.8095C69.8407 25.8095 70.3295 25.3207 70.3295 24.7177C70.3295 24.1147 69.8407 23.6259 69.2377 23.6259C68.6347 23.6259 68.1459 24.1147 68.1459 24.7177C68.1459 25.3207 68.6347 25.8095 69.2377 25.8095Z" fill="#2F3F55"/>
<path d="M34.2577 28.9895C34.8607 28.9895 35.3495 28.5007 35.3495 27.8977C35.3495 27.2947 34.8607 26.8059 34.2577 26.8059C33.6547 26.8059 33.1659 27.2947 33.1659 27.8977C33.1659 28.5007 33.6547 28.9895 34.2577 28.9895Z" fill="#2F3F55"/>
<path d="M37.4377 28.9895C38.0407 28.9895 38.5295 28.5007 38.5295 27.8977C38.5295 27.2947 38.0407 26.8059 37.4377 26.8059C36.8348 26.8059 36.3459 27.2947 36.3459 27.8977C36.3459 28.5007 36.8348 28.9895 37.4377 28.9895Z" fill="#2F3F55"/>
<path d="M40.6177 28.9895C41.2207 28.9895 41.7095 28.5007 41.7095 27.8977C41.7095 27.2947 41.2207 26.8059 40.6177 26.8059C40.0147 26.8059 39.5259 27.2947 39.5259 27.8977C39.5259 28.5007 40.0147 28.9895 40.6177 28.9895Z" fill="#2F3F55"/>
<path d="M50.1577 28.9895C50.7607 28.9895 51.2495 28.5007 51.2495 27.8977C51.2495 27.2947 50.7607 26.8059 50.1577 26.8059C49.5547 26.8059 49.0659 27.2947 49.0659 27.8977C49.0659 28.5007 49.5547 28.9895 50.1577 28.9895Z" fill="#2F3F55"/>
<path d="M53.3376 28.9895C53.9406 28.9895 54.4294 28.5007 54.4294 27.8977C54.4294 27.2947 53.9406 26.8059 53.3376 26.8059C52.7347 26.8059 52.2458 27.2947 52.2458 27.8977C52.2458 28.5007 52.7347 28.9895 53.3376 28.9895Z" fill="#2F3F55"/>
<path d="M66.0577 28.9895C66.6607 28.9895 67.1495 28.5007 67.1495 27.8977C67.1495 27.2947 66.6607 26.8059 66.0577 26.8059C65.4548 26.8059 64.9659 27.2947 64.9659 27.8977C64.9659 28.5007 65.4548 28.9895 66.0577 28.9895Z" fill="#2F3F55"/>
<path d="M69.2377 28.9895C69.8407 28.9895 70.3295 28.5007 70.3295 27.8977C70.3295 27.2947 69.8407 26.8059 69.2377 26.8059C68.6347 26.8059 68.1459 27.2947 68.1459 27.8977C68.1459 28.5007 68.6347 28.9895 69.2377 28.9895Z" fill="#2F3F55"/>
<path d="M5.63758 32.1695C6.24056 32.1695 6.72938 31.6807 6.72938 31.0777C6.72938 30.4747 6.24056 29.9859 5.63758 29.9859C5.03459 29.9859 4.54578 30.4747 4.54578 31.0777C4.54578 31.6807 5.03459 32.1695 5.63758 32.1695Z" fill="#2F3F55"/>
<path d="M8.81775 32.1695C9.42074 32.1695 9.90955 31.6807 9.90955 31.0777C9.90955 30.4747 9.42074 29.9859 8.81775 29.9859C8.21477 29.9859 7.72595 30.4747 7.72595 31.0777C7.72595 31.6807 8.21477 32.1695 8.81775 32.1695Z" fill="#2F3F55"/>
<path d="M11.9977 32.1695C12.6007 32.1695 13.0895 31.6807 13.0895 31.0777C13.0895 30.4747 12.6007 29.9859 11.9977 29.9859C11.3947 29.9859 10.9059 30.4747 10.9059 31.0777C10.9059 31.6807 11.3947 32.1695 11.9977 32.1695Z" fill="#2F3F55"/>
<path d="M15.1776 32.1695C15.7806 32.1695 16.2694 31.6807 16.2694 31.0777C16.2694 30.4747 15.7806 29.9859 15.1776 29.9859C14.5746 29.9859 14.0858 30.4747 14.0858 31.0777C14.0858 31.6807 14.5746 32.1695 15.1776 32.1695Z" fill="#2F3F55"/>
<path d="M18.3577 32.1695C18.9607 32.1695 19.4495 31.6807 19.4495 31.0777C19.4495 30.4747 18.9607 29.9859 18.3577 29.9859C17.7547 29.9859 17.2659 30.4747 17.2659 31.0777C17.2659 31.6807 17.7547 32.1695 18.3577 32.1695Z" fill="#2F3F55"/>
<path d="M24.7177 32.1695C25.3206 32.1695 25.8095 31.6807 25.8095 31.0777C25.8095 30.4747 25.3206 29.9859 24.7177 29.9859C24.1147 29.9859 23.6259 30.4747 23.6259 31.0777C23.6259 31.6807 24.1147 32.1695 24.7177 32.1695Z" fill="#2F3F55"/>
<path d="M27.8977 32.1695C28.5007 32.1695 28.9895 31.6807 28.9895 31.0777C28.9895 30.4747 28.5007 29.9859 27.8977 29.9859C27.2947 29.9859 26.8059 30.4747 26.8059 31.0777C26.8059 31.6807 27.2947 32.1695 27.8977 32.1695Z" fill="#2F3F55"/>
<path d="M31.0776 32.1695C31.6806 32.1695 32.1694 31.6807 32.1694 31.0777C32.1694 30.4747 31.6806 29.9859 31.0776 29.9859C30.4747 29.9859 29.9858 30.4747 29.9858 31.0777C29.9858 31.6807 30.4747 32.1695 31.0776 32.1695Z" fill="#2F3F55"/>
<path d="M34.2577 32.1695C34.8607 32.1695 35.3495 31.6807 35.3495 31.0777C35.3495 30.4747 34.8607 29.9859 34.2577 29.9859C33.6547 29.9859 33.1659 30.4747 33.1659 31.0777C33.1659 31.6807 33.6547 32.1695 34.2577 32.1695Z" fill="#2F3F55"/>
<path d="M40.6177 32.1695C41.2207 32.1695 41.7095 31.6807 41.7095 31.0777C41.7095 30.4747 41.2207 29.9859 40.6177 29.9859C40.0147 29.9859 39.5259 30.4747 39.5259 31.0777C39.5259 31.6807 40.0147 32.1695 40.6177 32.1695Z" fill="#2F3F55"/>
<path d="M53.3376 32.1695C53.9406 32.1695 54.4294 31.6807 54.4294 31.0777C54.4294 30.4747 53.9406 29.9859 53.3376 29.9859C52.7347 29.9859 52.2458 30.4747 52.2458 31.0777C52.2458 31.6807 52.7347 32.1695 53.3376 32.1695Z" fill="#2F3F55"/>
<path d="M59.6978 32.1695C60.3007 32.1695 60.7896 31.6807 60.7896 31.0777C60.7896 30.4747 60.3007 29.9859 59.6978 29.9859C59.0948 29.9859 58.606 30.4747 58.606 31.0777C58.606 31.6807 59.0948 32.1695 59.6978 32.1695Z" fill="#2F3F55"/>
<path d="M62.8777 32.1695C63.4807 32.1695 63.9695 31.6807 63.9695 31.0777C63.9695 30.4747 63.4807 29.9859 62.8777 29.9859C62.2747 29.9859 61.7859 30.4747 61.7859 31.0777C61.7859 31.6807 62.2747 32.1695 62.8777 32.1695Z" fill="#2F3F55"/>
<path d="M66.0577 32.1695C66.6607 32.1695 67.1495 31.6807 67.1495 31.0777C67.1495 30.4747 66.6607 29.9859 66.0577 29.9859C65.4548 29.9859 64.9659 30.4747 64.9659 31.0777C64.9659 31.6807 65.4548 32.1695 66.0577 32.1695Z" fill="#2F3F55"/>
<path d="M72.4177 32.1695C73.0207 32.1695 73.5095 31.6807 73.5095 31.0777C73.5095 30.4747 73.0207 29.9859 72.4177 29.9859C71.8147 29.9859 71.3259 30.4747 71.3259 31.0777C71.3259 31.6807 71.8147 32.1695 72.4177 32.1695Z" fill="#2F3F55"/>
<path d="M78.7777 32.1695C79.3807 32.1695 79.8695 31.6807 79.8695 31.0777C79.8695 30.4747 79.3807 29.9859 78.7777 29.9859C78.1747 29.9859 77.6859 30.4747 77.6859 31.0777C77.6859 31.6807 78.1747 32.1695 78.7777 32.1695Z" fill="#2F3F55"/>
<path d="M85.1377 32.1695C85.7407 32.1695 86.2295 31.6807 86.2295 31.0777C86.2295 30.4747 85.7407 29.9859 85.1377 29.9859C84.5347 29.9859 84.0459 30.4747 84.0459 31.0777C84.0459 31.6807 84.5347 32.1695 85.1377 32.1695Z" fill="#2F3F55"/>
<path d="M91.4977 32.1695C92.1007 32.1695 92.5895 31.6807 92.5895 31.0777C92.5895 30.4747 92.1007 29.9859 91.4977 29.9859C90.8947 29.9859 90.4059 30.4747 90.4059 31.0777C90.4059 31.6807 90.8947 32.1695 91.4977 32.1695Z" fill="#2F3F55"/>
<path d="M8.81775 35.3495C9.42074 35.3495 9.90955 34.8607 9.90955 34.2577C9.90955 33.6547 9.42074 33.1659 8.81775 33.1659C8.21477 33.1659 7.72595 33.6547 7.72595 34.2577C7.72595 34.8607 8.21477 35.3495 8.81775 35.3495Z" fill="#2F3F55"/>
<path d="M27.8977 35.3495C28.5007 35.3495 28.9895 34.8607 28.9895 34.2577C28.9895 33.6547 28.5007 33.1659 27.8977 33.1659C27.2947 33.1659 26.8059 33.6547 26.8059 34.2577C26.8059 34.8607 27.2947 35.3495 27.8977 35.3495Z" fill="#2F3F55"/>
<path d="M37.4377 35.3495C38.0407 35.3495 38.5295 34.8607 38.5295 34.2577C38.5295 33.6547 38.0407 33.1659 37.4377 33.1659C36.8348 33.1659 36.3459 33.6547 36.3459 34.2577C36.3459 34.8607 36.8348 35.3495 37.4377 35.3495Z" fill="#2F3F55"/>
<path d="M43.7976 35.3495C44.4006 35.3495 44.8894 34.8607 44.8894 34.2577C44.8894 33.6547 44.4006 33.1659 43.7976 33.1659C43.1946 33.1659 42.7058 33.6547 42.7058 34.2577C42.7058 34.8607 43.1946 35.3495 43.7976 35.3495Z" fill="#2F3F55"/>
<path d="M46.9778 35.3495C47.5808 35.3495 48.0696 34.8607 48.0696 34.2577C48.0696 33.6547 47.5808 33.1659 46.9778 33.1659C46.3748 33.1659 45.886 33.6547 45.886 34.2577C45.886 34.8607 46.3748 35.3495 46.9778 35.3495Z" fill="#2F3F55"/>
<path d="M50.1577 35.3495C50.7607 35.3495 51.2495 34.8607 51.2495 34.2577C51.2495 33.6547 50.7607 33.1659 50.1577 33.1659C49.5547 33.1659 49.0659 33.6547 49.0659 34.2577C49.0659 34.8607 49.5547 35.3495 50.1577 35.3495Z" fill="#2F3F55"/>
<path d="M56.5177 35.3495C57.1207 35.3495 57.6095 34.8607 57.6095 34.2577C57.6095 33.6547 57.1207 33.1659 56.5177 33.1659C55.9147 33.1659 55.4259 33.6547 55.4259 34.2577C55.4259 34.8607 55.9147 35.3495 56.5177 35.3495Z" fill="#2F3F55"/>
<path d="M66.0577 35.3495C66.6607 35.3495 67.1495 34.8607 67.1495 34.2577C67.1495 33.6547 66.6607 33.1659 66.0577 33.1659C65.4548 33.1659 64.9659 33.6547 64.9659 34.2577C64.9659 34.8607 65.4548 35.3495 66.0577 35.3495Z" fill="#2F3F55"/>
<path d="M69.2377 35.3495C69.8407 35.3495 70.3295 34.8607 70.3295 34.2577C70.3295 33.6547 69.8407 33.1659 69.2377 33.1659C68.6347 33.1659 68.1459 33.6547 68.1459 34.2577C68.1459 34.8607 68.6347 35.3495 69.2377 35.3495Z" fill="#2F3F55"/>
<path d="M75.5978 35.3495C76.2008 35.3495 76.6896 34.8607 76.6896 34.2577C76.6896 33.6547 76.2008 33.1659 75.5978 33.1659C74.9948 33.1659 74.506 33.6547 74.506 34.2577C74.506 34.8607 74.9948 35.3495 75.5978 35.3495Z" fill="#2F3F55"/>
<path d="M78.7777 35.3495C79.3807 35.3495 79.8695 34.8607 79.8695 34.2577C79.8695 33.6547 79.3807 33.1659 78.7777 33.1659C78.1747 33.1659 77.6859 33.6547 77.6859 34.2577C77.6859 34.8607 78.1747 35.3495 78.7777 35.3495Z" fill="#2F3F55"/>
<path d="M81.9576 35.3495C82.5606 35.3495 83.0494 34.8607 83.0494 34.2577C83.0494 33.6547 82.5606 33.1659 81.9576 33.1659C81.3547 33.1659 80.8658 33.6547 80.8658 34.2577C80.8658 34.8607 81.3547 35.3495 81.9576 35.3495Z" fill="#2F3F55"/>
<path d="M94.6776 35.3495C95.2806 35.3495 95.7694 34.8607 95.7694 34.2577C95.7694 33.6547 95.2806 33.1659 94.6776 33.1659C94.0746 33.1659 93.5858 33.6547 93.5858 34.2577C93.5858 34.8607 94.0746 35.3495 94.6776 35.3495Z" fill="#2F3F55"/>
<path d="M11.9977 38.5295C12.6007 38.5295 13.0895 38.0407 13.0895 37.4377C13.0895 36.8347 12.6007 36.3459 11.9977 36.3459C11.3947 36.3459 10.9059 36.8347 10.9059 37.4377C10.9059 38.0407 11.3947 38.5295 11.9977 38.5295Z" fill="#2F3F55"/>
<path d="M15.1776 38.5295C15.7806 38.5295 16.2694 38.0407 16.2694 37.4377C16.2694 36.8347 15.7806 36.3459 15.1776 36.3459C14.5746 36.3459 14.0858 36.8347 14.0858 37.4377C14.0858 38.0407 14.5746 38.5295 15.1776 38.5295Z" fill="#2F3F55"/>
<path d="M18.3577 38.5295C18.9607 38.5295 19.4495 38.0407 19.4495 37.4377C19.4495 36.8347 18.9607 36.3459 18.3577 36.3459C17.7547 36.3459 17.2659 36.8347 17.2659 37.4377C17.2659 38.0407 17.7547 38.5295 18.3577 38.5295Z" fill="#2F3F55"/>
<path d="M24.7177 38.5295C25.3206 38.5295 25.8095 38.0407 25.8095 37.4377C25.8095 36.8347 25.3206 36.3459 24.7177 36.3459C24.1147 36.3459 23.6259 36.8347 23.6259 37.4377C23.6259 38.0407 24.1147 38.5295 24.7177 38.5295Z" fill="#2F3F55"/>
<path d="M27.8977 38.5295C28.5007 38.5295 28.9895 38.0407 28.9895 37.4377C28.9895 36.8347 28.5007 36.3459 27.8977 36.3459C27.2947 36.3459 26.8059 36.8347 26.8059 37.4377C26.8059 38.0407 27.2947 38.5295 27.8977 38.5295Z" fill="#2F3F55"/>
<path d="M31.0776 38.5295C31.6806 38.5295 32.1694 38.0407 32.1694 37.4377C32.1694 36.8347 31.6806 36.3459 31.0776 36.3459C30.4747 36.3459 29.9858 36.8347 29.9858 37.4377C29.9858 38.0407 30.4747 38.5295 31.0776 38.5295Z" fill="#2F3F55"/>
<path d="M37.4377 38.5295C38.0407 38.5295 38.5295 38.0407 38.5295 37.4377C38.5295 36.8347 38.0407 36.3459 37.4377 36.3459C36.8348 36.3459 36.3459 36.8347 36.3459 37.4377C36.3459 38.0407 36.8348 38.5295 37.4377 38.5295Z" fill="#2F3F55"/>
<path d="M46.9778 38.5295C47.5808 38.5295 48.0696 38.0407 48.0696 37.4377C48.0696 36.8347 47.5808 36.3459 46.9778 36.3459C46.3748 36.3459 45.886 36.8347 45.886 37.4377C45.886 38.0407 46.3748 38.5295 46.9778 38.5295Z" fill="#2F3F55"/>
<path d="M50.1577 38.5295C50.7607 38.5295 51.2495 38.0407 51.2495 37.4377C51.2495 36.8347 50.7607 36.3459 50.1577 36.3459C49.5547 36.3459 49.0659 36.8347 49.0659 37.4377C49.0659 38.0407 49.5547 38.5295 50.1577 38.5295Z" fill="#2F3F55"/>
<path d="M53.3376 38.5295C53.9406 38.5295 54.4294 38.0407 54.4294 37.4377C54.4294 36.8347 53.9406 36.3459 53.3376 36.3459C52.7347 36.3459 52.2458 36.8347 52.2458 37.4377C52.2458 38.0407 52.7347 38.5295 53.3376 38.5295Z" fill="#2F3F55"/>
<path d="M8.81775 41.7095C9.42074 41.7095 9.90955 41.2207 9.90955 40.6177C9.90955 40.0147 9.42074 39.5259 8.81775 39.5259C8.21477 39.5259 7.72595 40.0147 7.72595 40.6177C7.72595 41.2207 8.21477 41.7095 8.81775 41.7095Z" fill="#2F3F55"/>
<path d="M15.1776 41.7095C15.7806 41.7095 16.2694 41.2207 16.2694 40.6177C16.2694 40.0147 15.7806 39.5259 15.1776 39.5259C14.5746 39.5259 14.0858 40.0147 14.0858 40.6177C14.0858 41.2207 14.5746 41.7095 15.1776 41.7095Z" fill="#2F3F55"/>
<path d="M21.5377 41.7095C22.1407 41.7095 22.6295 41.2207 22.6295 40.6177C22.6295 40.0147 22.1407 39.5259 21.5377 39.5259C20.9347 39.5259 20.4459 40.0147 20.4459 40.6177C20.4459 41.2207 20.9347 41.7095 21.5377 41.7095Z" fill="#2F3F55"/>
<path d="M43.7976 41.7095C44.4006 41.7095 44.8894 41.2207 44.8894 40.6177C44.8894 40.0147 44.4006 39.5259 43.7976 39.5259C43.1946 39.5259 42.7058 40.0147 42.7058 40.6177C42.7058 41.2207 43.1946 41.7095 43.7976 41.7095Z" fill="#2F3F55"/>
<path d="M46.9778 41.7095C47.5808 41.7095 48.0696 41.2207 48.0696 40.6177C48.0696 40.0147 47.5808 39.5259 46.9778 39.5259C46.3748 39.5259 45.886 40.0147 45.886 40.6177C45.886 41.2207 46.3748 41.7095 46.9778 41.7095Z" fill="#2F3F55"/>
<path d="M56.5177 41.7095C57.1207 41.7095 57.6095 41.2207 57.6095 40.6177C57.6095 40.0147 57.1207 39.5259 56.5177 39.5259C55.9147 39.5259 55.4259 40.0147 55.4259 40.6177C55.4259 41.2207 55.9147 41.7095 56.5177 41.7095Z" fill="#2F3F55"/>
<path d="M62.8777 41.7095C63.4807 41.7095 63.9695 41.2207 63.9695 40.6177C63.9695 40.0147 63.4807 39.5259 62.8777 39.5259C62.2747 39.5259 61.7859 40.0147 61.7859 40.6177C61.7859 41.2207 62.2747 41.7095 62.8777 41.7095Z" fill="#2F3F55"/>
<path d="M66.0577 41.7095C66.6607 41.7095 67.1495 41.2207 67.1495 40.6177C67.1495 40.0147 66.6607 39.5259 66.0577 39.5259C65.4548 39.5259 64.9659 40.0147 64.9659 40.6177C64.9659 41.2207 65.4548 41.7095 66.0577 41.7095Z" fill="#2F3F55"/>
<path d="M69.2377 41.7095C69.8407 41.7095 70.3295 41.2207 70.3295 40.6177C70.3295 40.0147 69.8407 39.5259 69.2377 39.5259C68.6347 39.5259 68.1459 40.0147 68.1459 40.6177C68.1459 41.2207 68.6347 41.7095 69.2377 41.7095Z" fill="#2F3F55"/>
<path d="M72.4177 41.7095C73.0207 41.7095 73.5095 41.2207 73.5095 40.6177C73.5095 40.0147 73.0207 39.5259 72.4177 39.5259C71.8147 39.5259 71.3259 40.0147 71.3259 40.6177C71.3259 41.2207 71.8147 41.7095 72.4177 41.7095Z" fill="#2F3F55"/>
<path d="M78.7777 41.7095C79.3807 41.7095 79.8695 41.2207 79.8695 40.6177C79.8695 40.0147 79.3807 39.5259 78.7777 39.5259C78.1747 39.5259 77.6859 40.0147 77.6859 40.6177C77.6859 41.2207 78.1747 41.7095 78.7777 41.7095Z" fill="#2F3F55"/>
<path d="M81.9576 41.7095C82.5606 41.7095 83.0494 41.2207 83.0494 40.6177C83.0494 40.0147 82.5606 39.5259 81.9576 39.5259C81.3547 39.5259 80.8658 40.0147 80.8658 40.6177C80.8658 41.2207 81.3547 41.7095 81.9576 41.7095Z" fill="#2F3F55"/>
<path d="M85.1377 41.7095C85.7407 41.7095 86.2295 41.2207 86.2295 40.6177C86.2295 40.0147 85.7407 39.5259 85.1377 39.5259C84.5347 39.5259 84.0459 40.0147 84.0459 40.6177C84.0459 41.2207 84.5347 41.7095 85.1377 41.7095Z" fill="#2F3F55"/>
<path d="M91.4977 41.7095C92.1007 41.7095 92.5895 41.2207 92.5895 40.6177C92.5895 40.0147 92.1007 39.5259 91.4977 39.5259C90.8947 39.5259 90.4059 40.0147 90.4059 40.6177C90.4059 41.2207 90.8947 41.7095 91.4977 41.7095Z" fill="#2F3F55"/>
<path d="M5.63758 44.8895C6.24056 44.8895 6.72938 44.4007 6.72938 43.7977C6.72938 43.1947 6.24056 42.7059 5.63758 42.7059C5.03459 42.7059 4.54578 43.1947 4.54578 43.7977C4.54578 44.4007 5.03459 44.8895 5.63758 44.8895Z" fill="#2F3F55"/>
<path d="M11.9977 44.8895C12.6007 44.8895 13.0895 44.4007 13.0895 43.7977C13.0895 43.1947 12.6007 42.7059 11.9977 42.7059C11.3947 42.7059 10.9059 43.1947 10.9059 43.7977C10.9059 44.4007 11.3947 44.8895 11.9977 44.8895Z" fill="#2F3F55"/>
<path d="M24.7177 44.8895C25.3206 44.8895 25.8095 44.4007 25.8095 43.7977C25.8095 43.1947 25.3206 42.7059 24.7177 42.7059C24.1147 42.7059 23.6259 43.1947 23.6259 43.7977C23.6259 44.4007 24.1147 44.8895 24.7177 44.8895Z" fill="#2F3F55"/>
<path d="M31.0776 44.8895C31.6806 44.8895 32.1694 44.4007 32.1694 43.7977C32.1694 43.1947 31.6806 42.7059 31.0776 42.7059C30.4747 42.7059 29.9858 43.1947 29.9858 43.7977C29.9858 44.4007 30.4747 44.8895 31.0776 44.8895Z" fill="#2F3F55"/>
<path d="M34.2577 44.8895C34.8607 44.8895 35.3495 44.4007 35.3495 43.7977C35.3495 43.1947 34.8607 42.7059 34.2577 42.7059C33.6547 42.7059 33.1659 43.1947 33.1659 43.7977C33.1659 44.4007 33.6547 44.8895 34.2577 44.8895Z" fill="#2F3F55"/>
<path d="M37.4377 44.8895C38.0407 44.8895 38.5295 44.4007 38.5295 43.7977C38.5295 43.1947 38.0407 42.7059 37.4377 42.7059C36.8348 42.7059 36.3459 43.1947 36.3459 43.7977C36.3459 44.4007 36.8348 44.8895 37.4377 44.8895Z" fill="#2F3F55"/>
<path d="M43.7976 44.8895C44.4006 44.8895 44.8894 44.4007 44.8894 43.7977C44.8894 43.1947 44.4006 42.7059 43.7976 42.7059C43.1946 42.7059 42.7058 43.1947 42.7058 43.7977C42.7058 44.4007 43.1946 44.8895 43.7976 44.8895Z" fill="#2F3F55"/>
<path d="M50.1577 44.8895C50.7607 44.8895 51.2495 44.4007 51.2495 43.7977C51.2495 43.1947 50.7607 42.7059 50.1577 42.7059C49.5547 42.7059 49.0659 43.1947 49.0659 43.7977C49.0659 44.4007 49.5547 44.8895 50.1577 44.8895Z" fill="#2F3F55"/>
<path d="M53.3376 44.8895C53.9406 44.8895 54.4294 44.4007 54.4294 43.7977C54.4294 43.1947 53.9406 42.7059 53.3376 42.7059C52.7347 42.7059 52.2458 43.1947 52.2458 43.7977C52.2458 44.4007 52.7347 44.8895 53.3376 44.8895Z" fill="#2F3F55"/>
<path d="M56.5177 44.8895C57.1207 44.8895 57.6095 44.4007 57.6095 43.7977C57.6095 43.1947 57.1207 42.7059 56.5177 42.7059C55.9147 42.7059 55.4259 43.1947 55.4259 43.7977C55.4259 44.4007 55.9147 44.8895 56.5177 44.8895Z" fill="#2F3F55"/>
<path d="M59.6978 44.8895C60.3007 44.8895 60.7896 44.4007 60.7896 43.7977C60.7896 43.1947 60.3007 42.7059 59.6978 42.7059C59.0948 42.7059 58.606 43.1947 58.606 43.7977C58.606 44.4007 59.0948 44.8895 59.6978 44.8895Z" fill="#2F3F55"/>
<path d="M69.2377 44.8895C69.8407 44.8895 70.3295 44.4007 70.3295 43.7977C70.3295 43.1947 69.8407 42.7059 69.2377 42.7059C68.6347 42.7059 68.1459 43.1947 68.1459 43.7977C68.1459 44.4007 68.6347 44.8895 69.2377 44.8895Z" fill="#2F3F55"/>
<path d="M78.7777 44.8895C79.3807 44.8895 79.8695 44.4007 79.8695 43.7977C79.8695 43.1947 79.3807 42.7059 78.7777 42.7059C78.1747 42.7059 77.6859 43.1947 77.6859 43.7977C77.6859 44.4007 78.1747 44.8895 78.7777 44.8895Z" fill="#2F3F55"/>
<path d="M85.1377 44.8895C85.7407 44.8895 86.2295 44.4007 86.2295 43.7977C86.2295 43.1947 85.7407 42.7059 85.1377 42.7059C84.5347 42.7059 84.0459 43.1947 84.0459 43.7977C84.0459 44.4007 84.5347 44.8895 85.1377 44.8895Z" fill="#2F3F55"/>
<path d="M88.3178 44.8895C88.9207 44.8895 89.4096 44.4007 89.4096 43.7977C89.4096 43.1947 88.9207 42.7059 88.3178 42.7059C87.7148 42.7059 87.226 43.1947 87.226 43.7977C87.226 44.4007 87.7148 44.8895 88.3178 44.8895Z" fill="#2F3F55"/>
<path d="M5.63758 48.0695C6.24056 48.0695 6.72938 47.5807 6.72938 46.9777C6.72938 46.3747 6.24056 45.8859 5.63758 45.8859C5.03459 45.8859 4.54578 46.3747 4.54578 46.9777C4.54578 47.5807 5.03459 48.0695 5.63758 48.0695Z" fill="#2F3F55"/>
<path d="M8.81775 48.0695C9.42074 48.0695 9.90955 47.5807 9.90955 46.9777C9.90955 46.3747 9.42074 45.8859 8.81775 45.8859C8.21477 45.8859 7.72595 46.3747 7.72595 46.9777C7.72595 47.5807 8.21477 48.0695 8.81775 48.0695Z" fill="#2F3F55"/>
<path d="M11.9977 48.0695C12.6007 48.0695 13.0895 47.5807 13.0895 46.9777C13.0895 46.3747 12.6007 45.8859 11.9977 45.8859C11.3947 45.8859 10.9059 46.3747 10.9059 46.9777C10.9059 47.5807 11.3947 48.0695 11.9977 48.0695Z" fill="#2F3F55"/>
<path d="M21.5377 48.0695C22.1407 48.0695 22.6295 47.5807 22.6295 46.9777C22.6295 46.3747 22.1407 45.8859 21.5377 45.8859C20.9347 45.8859 20.4459 46.3747 20.4459 46.9777C20.4459 47.5807 20.9347 48.0695 21.5377 48.0695Z" fill="#2F3F55"/>
<path d="M27.8977 48.0695C28.5007 48.0695 28.9895 47.5807 28.9895 46.9777C28.9895 46.3747 28.5007 45.8859 27.8977 45.8859C27.2947 45.8859 26.8059 46.3747 26.8059 46.9777C26.8059 47.5807 27.2947 48.0695 27.8977 48.0695Z" fill="#2F3F55"/>
<path d="M31.0776 48.0695C31.6806 48.0695 32.1694 47.5807 32.1694 46.9777C32.1694 46.3747 31.6806 45.8859 31.0776 45.8859C30.4747 45.8859 29.9858 46.3747 29.9858 46.9777C29.9858 47.5807 30.4747 48.0695 31.0776 48.0695Z" fill="#2F3F55"/>
<path d="M56.5177 48.0695C57.1207 48.0695 57.6095 47.5807 57.6095 46.9777C57.6095 46.3747 57.1207 45.8859 56.5177 45.8859C55.9147 45.8859 55.4259 46.3747 55.4259 46.9777C55.4259 47.5807 55.9147 48.0695 56.5177 48.0695Z" fill="#2F3F55"/>
<path d="M59.6978 48.0695C60.3007 48.0695 60.7896 47.5807 60.7896 46.9777C60.7896 46.3747 60.3007 45.8859 59.6978 45.8859C59.0948 45.8859 58.606 46.3747 58.606 46.9777C58.606 47.5807 59.0948 48.0695 59.6978 48.0695Z" fill="#2F3F55"/>
<path d="M66.0577 48.0695C66.6607 48.0695 67.1495 47.5807 67.1495 46.9777C67.1495 46.3747 66.6607 45.8859 66.0577 45.8859C65.4548 45.8859 64.9659 46.3747 64.9659 46.9777C64.9659 47.5807 65.4548 48.0695 66.0577 48.0695Z" fill="#2F3F55"/>
<path d="M69.2377 48.0695C69.8407 48.0695 70.3295 47.5807 70.3295 46.9777C70.3295 46.3747 69.8407 45.8859 69.2377 45.8859C68.6347 45.8859 68.1459 46.3747 68.1459 46.9777C68.1459 47.5807 68.6347 48.0695 69.2377 48.0695Z" fill="#2F3F55"/>
<path d="M72.4177 48.0695C73.0207 48.0695 73.5095 47.5807 73.5095 46.9777C73.5095 46.3747 73.0207 45.8859 72.4177 45.8859C71.8147 45.8859 71.3259 46.3747 71.3259 46.9777C71.3259 47.5807 71.8147 48.0695 72.4177 48.0695Z" fill="#2F3F55"/>
<path d="M75.5978 48.0695C76.2008 48.0695 76.6896 47.5807 76.6896 46.9777C76.6896 46.3747 76.2008 45.8859 75.5978 45.8859C74.9948 45.8859 74.506 46.3747 74.506 46.9777C74.506 47.5807 74.9948 48.0695 75.5978 48.0695Z" fill="#2F3F55"/>
<path d="M78.7777 48.0695C79.3807 48.0695 79.8695 47.5807 79.8695 46.9777C79.8695 46.3747 79.3807 45.8859 78.7777 45.8859C78.1747 45.8859 77.6859 46.3747 77.6859 46.9777C77.6859 47.5807 78.1747 48.0695 78.7777 48.0695Z" fill="#2F3F55"/>
<path d="M81.9576 48.0695C82.5606 48.0695 83.0494 47.5807 83.0494 46.9777C83.0494 46.3747 82.5606 45.8859 81.9576 45.8859C81.3547 45.8859 80.8658 46.3747 80.8658 46.9777C80.8658 47.5807 81.3547 48.0695 81.9576 48.0695Z" fill="#2F3F55"/>
<path d="M94.6776 48.0695C95.2806 48.0695 95.7694 47.5807 95.7694 46.9777C95.7694 46.3747 95.2806 45.8859 94.6776 45.8859C94.0746 45.8859 93.5858 46.3747 93.5858 46.9777C93.5858 47.5807 94.0746 48.0695 94.6776 48.0695Z" fill="#2F3F55"/>
<path d="M15.1776 51.2495C15.7806 51.2495 16.2694 50.7607 16.2694 50.1577C16.2694 49.5547 15.7806 49.0659 15.1776 49.0659C14.5746 49.0659 14.0858 49.5547 14.0858 50.1577C14.0858 50.7607 14.5746 51.2495 15.1776 51.2495Z" fill="#2F3F55"/>
<path d="M18.3577 51.2495C18.9607 51.2495 19.4495 50.7607 19.4495 50.1577C19.4495 49.5547 18.9607 49.0659 18.3577 49.0659C17.7547 49.0659 17.2659 49.5547 17.2659 50.1577C17.2659 50.7607 17.7547 51.2495 18.3577 51.2495Z" fill="#2F3F55"/>
<path d="M21.5377 51.2495C22.1407 51.2495 22.6295 50.7607 22.6295 50.1577C22.6295 49.5547 22.1407 49.0659 21.5377 49.0659C20.9347 49.0659 20.4459 49.5547 20.4459 50.1577C20.4459 50.7607 20.9347 51.2495 21.5377 51.2495Z" fill="#2F3F55"/>
<path d="M24.7177 51.2495C25.3206 51.2495 25.8095 50.7607 25.8095 50.1577C25.8095 49.5547 25.3206 49.0659 24.7177 49.0659C24.1147 49.0659 23.6259 49.5547 23.6259 50.1577C23.6259 50.7607 24.1147 51.2495 24.7177 51.2495Z" fill="#2F3F55"/>
<path d="M27.8977 51.2495C28.5007 51.2495 28.9895 50.7607 28.9895 50.1577C28.9895 49.5547 28.5007 49.0659 27.8977 49.0659C27.2947 49.0659 26.8059 49.5547 26.8059 50.1577C26.8059 50.7607 27.2947 51.2495 27.8977 51.2495Z" fill="#2F3F55"/>
<path d="M34.2577 51.2495C34.8607 51.2495 35.3495 50.7607 35.3495 50.1577C35.3495 49.5547 34.8607 49.0659 34.2577 49.0659C33.6547 49.0659 33.1659 49.5547 33.1659 50.1577C33.1659 50.7607 33.6547 51.2495 34.2577 51.2495Z" fill="#2F3F55"/>
<path d="M37.4377 51.2495C38.0407 51.2495 38.5295 50.7607 38.5295 50.1577C38.5295 49.5547 38.0407 49.0659 37.4377 49.0659C36.8348 49.0659 36.3459 49.5547 36.3459 50.1577C36.3459 50.7607 36.8348 51.2495 37.4377 51.2495Z" fill="#2F3F55"/>
<path d="M40.6177 51.2495C41.2207 51.2495 41.7095 50.7607 41.7095 50.1577C41.7095 49.5547 41.2207 49.0659 40.6177 49.0659C40.0147 49.0659 39.5259 49.5547 39.5259 50.1577C39.5259 50.7607 40.0147 51.2495 40.6177 51.2495Z" fill="#2F3F55"/>
<path d="M43.7976 51.2495C44.4006 51.2495 44.8894 50.7607 44.8894 50.1577C44.8894 49.5547 44.4006 49.0659 43.7976 49.0659C43.1946 49.0659 42.7058 49.5547 42.7058 50.1577C42.7058 50.7607 43.1946 51.2495 43.7976 51.2495Z" fill="#2F3F55"/>
<path d="M53.3376 51.2495C53.9406 51.2495 54.4294 50.7607 54.4294 50.1577C54.4294 49.5547 53.9406 49.0659 53.3376 49.0659C52.7347 49.0659 52.2458 49.5547 52.2458 50.1577C52.2458 50.7607 52.7347 51.2495 53.3376 51.2495Z" fill="#2F3F55"/>
<path d="M62.8777 51.2495C63.4807 51.2495 63.9695 50.7607 63.9695 50.1577C63.9695 49.5547 63.4807 49.0659 62.8777 49.0659C62.2747 49.0659 61.7859 49.5547 61.7859 50.1577C61.7859 50.7607 62.2747 51.2495 62.8777 51.2495Z" fill="#2F3F55"/>
<path d="M75.5978 51.2495C76.2008 51.2495 76.6896 50.7607 76.6896 50.1577C76.6896 49.5547 76.2008 49.0659 75.5978 49.0659C74.9948 49.0659 74.506 49.5547 74.506 50.1577C74.506 50.7607 74.9948 51.2495 75.5978 51.2495Z" fill="#2F3F55"/>
<path d="M85.1377 51.2495C85.7407 51.2495 86.2295 50.7607 86.2295 50.1577C86.2295 49.5547 85.7407 49.0659 85.1377 49.0659C84.5347 49.0659 84.0459 49.5547 84.0459 50.1577C84.0459 50.7607 84.5347 51.2495 85.1377 51.2495Z" fill="#2F3F55"/>
<path d="M88.3178 51.2495C88.9207 51.2495 89.4096 50.7607 89.4096 50.1577C89.4096 49.5547 88.9207 49.0659 88.3178 49.0659C87.7148 49.0659 87.226 49.5547 87.226 50.1577C87.226 50.7607 87.7148 51.2495 88.3178 51.2495Z" fill="#2F3F55"/>
<path d="M5.63758 54.4295C6.24056 54.4295 6.72938 53.9407 6.72938 53.3377C6.72938 52.7347 6.24056 52.2459 5.63758 52.2459C5.03459 52.2459 4.54578 52.7347 4.54578 53.3377C4.54578 53.9407 5.03459 54.4295 5.63758 54.4295Z" fill="#2F3F55"/>
<path d="M8.81775 54.4295C9.42074 54.4295 9.90955 53.9407 9.90955 53.3377C9.90955 52.7347 9.42074 52.2459 8.81775 52.2459C8.21477 52.2459 7.72595 52.7347 7.72595 53.3377C7.72595 53.9407 8.21477 54.4295 8.81775 54.4295Z" fill="#2F3F55"/>
<path d="M11.9977 54.4295C12.6007 54.4295 13.0895 53.9407 13.0895 53.3377C13.0895 52.7347 12.6007 52.2459 11.9977 52.2459C11.3947 52.2459 10.9059 52.7347 10.9059 53.3377C10.9059 53.9407 11.3947 54.4295 11.9977 54.4295Z" fill="#2F3F55"/>
<path d="M18.3577 54.4295C18.9607 54.4295 19.4495 53.9407 19.4495 53.3377C19.4495 52.7347 18.9607 52.2459 18.3577 52.2459C17.7547 52.2459 17.2659 52.7347 17.2659 53.3377C17.2659 53.9407 17.7547 54.4295 18.3577 54.4295Z" fill="#2F3F55"/>
<path d="M31.0776 54.4295C31.6806 54.4295 32.1694 53.9407 32.1694 53.3377C32.1694 52.7347 31.6806 52.2459 31.0776 52.2459C30.4747 52.2459 29.9858 52.7347 29.9858 53.3377C29.9858 53.9407 30.4747 54.4295 31.0776 54.4295Z" fill="#2F3F55"/>
<path d="M37.4377 54.4295C38.0407 54.4295 38.5295 53.9407 38.5295 53.3377C38.5295 52.7347 38.0407 52.2459 37.4377 52.2459C36.8348 52.2459 36.3459 52.7347 36.3459 53.3377C36.3459 53.9407 36.8348 54.4295 37.4377 54.4295Z" fill="#2F3F55"/>
<path d="M40.6177 54.4295C41.2207 54.4295 41.7095 53.9407 41.7095 53.3377C41.7095 52.7347 41.2207 52.2459 40.6177 52.2459C40.0147 52.2459 39.5259 52.7347 39.5259 53.3377C39.5259 53.9407 40.0147 54.4295 40.6177 54.4295Z" fill="#2F3F55"/>
<path d="M50.1577 54.4295C50.7607 54.4295 51.2495 53.9407 51.2495 53.3377C51.2495 52.7347 50.7607 52.2459 50.1577 52.2459C49.5547 52.2459 49.0659 52.7347 49.0659 53.3377C49.0659 53.9407 49.5547 54.4295 50.1577 54.4295Z" fill="#2F3F55"/>
<path d="M56.5177 54.4295C57.1207 54.4295 57.6095 53.9407 57.6095 53.3377C57.6095 52.7347 57.1207 52.2459 56.5177 52.2459C55.9147 52.2459 55.4259 52.7347 55.4259 53.3377C55.4259 53.9407 55.9147 54.4295 56.5177 54.4295Z" fill="#2F3F55"/>
<path d="M66.0577 54.4295C66.6607 54.4295 67.1495 53.9407 67.1495 53.3377C67.1495 52.7347 66.6607 52.2459 66.0577 52.2459C65.4548 52.2459 64.9659 52.7347 64.9659 53.3377C64.9659 53.9407 65.4548 54.4295 66.0577 54.4295Z" fill="#2F3F55"/>
<path d="M69.2377 54.4295C69.8407 54.4295 70.3295 53.9407 70.3295 53.3377C70.3295 52.7347 69.8407 52.2459 69.2377 52.2459C68.6347 52.2459 68.1459 52.7347 68.1459 53.3377C68.1459 53.9407 68.6347 54.4295 69.2377 54.4295Z" fill="#2F3F55"/>
<path d="M78.7777 54.4295C79.3807 54.4295 79.8695 53.9407 79.8695 53.3377C79.8695 52.7347 79.3807 52.2459 78.7777 52.2459C78.1747 52.2459 77.6859 52.7347 77.6859 53.3377C77.6859 53.9407 78.1747 54.4295 78.7777 54.4295Z" fill="#2F3F55"/>
<path d="M91.4977 54.4295C92.1007 54.4295 92.5895 53.9407 92.5895 53.3377C92.5895 52.7347 92.1007 52.2459 91.4977 52.2459C90.8947 52.2459 90.4059 52.7347 90.4059 53.3377C90.4059 53.9407 90.8947 54.4295 91.4977 54.4295Z" fill="#2F3F55"/>
<path d="M5.63758 57.6095C6.24056 57.6095 6.72938 57.1207 6.72938 56.5177C6.72938 55.9147 6.24056 55.4259 5.63758 55.4259C5.03459 55.4259 4.54578 55.9147 4.54578 56.5177C4.54578 57.1207 5.03459 57.6095 5.63758 57.6095Z" fill="#2F3F55"/>
<path d="M15.1776 57.6095C15.7806 57.6095 16.2694 57.1207 16.2694 56.5177C16.2694 55.9147 15.7806 55.4259 15.1776 55.4259C14.5746 55.4259 14.0858 55.9147 14.0858 56.5177C14.0858 57.1207 14.5746 57.6095 15.1776 57.6095Z" fill="#2F3F55"/>
<path d="M18.3577 57.6095C18.9607 57.6095 19.4495 57.1207 19.4495 56.5177C19.4495 55.9147 18.9607 55.4259 18.3577 55.4259C17.7547 55.4259 17.2659 55.9147 17.2659 56.5177C17.2659 57.1207 17.7547 57.6095 18.3577 57.6095Z" fill="#2F3F55"/>
<path d="M21.5377 57.6095C22.1407 57.6095 22.6295 57.1207 22.6295 56.5177C22.6295 55.9147 22.1407 55.4259 21.5377 55.4259C20.9347 55.4259 20.4459 55.9147 20.4459 56.5177C20.4459 57.1207 20.9347 57.6095 21.5377 57.6095Z" fill="#2F3F55"/>
<path d="M24.7177 57.6095C25.3206 57.6095 25.8095 57.1207 25.8095 56.5177C25.8095 55.9147 25.3206 55.4259 24.7177 55.4259C24.1147 55.4259 23.6259 55.9147 23.6259 56.5177C23.6259 57.1207 24.1147 57.6095 24.7177 57.6095Z" fill="#2F3F55"/>
<path d="M27.8977 57.6095C28.5007 57.6095 28.9895 57.1207 28.9895 56.5177C28.9895 55.9147 28.5007 55.4259 27.8977 55.4259C27.2947 55.4259 26.8059 55.9147 26.8059 56.5177C26.8059 57.1207 27.2947 57.6095 27.8977 57.6095Z" fill="#2F3F55"/>
<path d="M37.4377 57.6095C38.0407 57.6095 38.5295 57.1207 38.5295 56.5177C38.5295 55.9147 38.0407 55.4259 37.4377 55.4259C36.8348 55.4259 36.3459 55.9147 36.3459 56.5177C36.3459 57.1207 36.8348 57.6095 37.4377 57.6095Z" fill="#2F3F55"/>
<path d="M40.6177 57.6095C41.2207 57.6095 41.7095 57.1207 41.7095 56.5177C41.7095 55.9147 41.2207 55.4259 40.6177 55.4259C40.0147 55.4259 39.5259 55.9147 39.5259 56.5177C39.5259 57.1207 40.0147 57.6095 40.6177 57.6095Z" fill="#2F3F55"/>
<path d="M59.6978 57.6095C60.3007 57.6095 60.7896 57.1207 60.7896 56.5177C60.7896 55.9147 60.3007 55.4259 59.6978 55.4259C59.0948 55.4259 58.606 55.9147 58.606 56.5177C58.606 57.1207 59.0948 57.6095 59.6978 57.6095Z" fill="#2F3F55"/>
<path d="M62.8777 57.6095C63.4807 57.6095 63.9695 57.1207 63.9695 56.5177C63.9695 55.9147 63.4807 55.4259 62.8777 55.4259C62.2747 55.4259 61.7859 55.9147 61.7859 56.5177C61.7859 57.1207 62.2747 57.6095 62.8777 57.6095Z" fill="#2F3F55"/>
<path d="M66.0577 57.6095C66.6607 57.6095 67.1495 57.1207 67.1495 56.5177C67.1495 55.9147 66.6607 55.4259 66.0577 55.4259C65.4548 55.4259 64.9659 55.9147 64.9659 56.5177C64.9659 57.1207 65.4548 57.6095 66.0577 57.6095Z" fill="#2F3F55"/>
<path d="M85.1377 57.6095C85.7407 57.6095 86.2295 57.1207 86.2295 56.5177C86.2295 55.9147 85.7407 55.4259 85.1377 55.4259C84.5347 55.4259 84.0459 55.9147 84.0459 56.5177C84.0459 57.1207 84.5347 57.6095 85.1377 57.6095Z" fill="#2F3F55"/>
<path d="M88.3178 57.6095C88.9207 57.6095 89.4096 57.1207 89.4096 56.5177C89.4096 55.9147 88.9207 55.4259 88.3178 55.4259C87.7148 55.4259 87.226 55.9147 87.226 56.5177C87.226 57.1207 87.7148 57.6095 88.3178 57.6095Z" fill="#2F3F55"/>
<path d="M5.63758 60.7895C6.24056 60.7895 6.72938 60.3007 6.72938 59.6977C6.72938 59.0947 6.24056 58.6059 5.63758 58.6059C5.03459 58.6059 4.54578 59.0947 4.54578 59.6977C4.54578 60.3007 5.03459 60.7895 5.63758 60.7895Z" fill="#2F3F55"/>
<path d="M8.81775 60.7895C9.42074 60.7895 9.90955 60.3007 9.90955 59.6977C9.90955 59.0947 9.42074 58.6059 8.81775 58.6059C8.21477 58.6059 7.72595 59.0947 7.72595 59.6977C7.72595 60.3007 8.21477 60.7895 8.81775 60.7895Z" fill="#2F3F55"/>
<path d="M18.3577 60.7895C18.9607 60.7895 19.4495 60.3007 19.4495 59.6977C19.4495 59.0947 18.9607 58.6059 18.3577 58.6059C17.7547 58.6059 17.2659 59.0947 17.2659 59.6977C17.2659 60.3007 17.7547 60.7895 18.3577 60.7895Z" fill="#2F3F55"/>
<path d="M21.5377 60.7895C22.1407 60.7895 22.6295 60.3007 22.6295 59.6977C22.6295 59.0947 22.1407 58.6059 21.5377 58.6059C20.9347 58.6059 20.4459 59.0947 20.4459 59.6977C20.4459 60.3007 20.9347 60.7895 21.5377 60.7895Z" fill="#2F3F55"/>
<path d="M27.8977 60.7895C28.5007 60.7895 28.9895 60.3007 28.9895 59.6977C28.9895 59.0947 28.5007 58.6059 27.8977 58.6059C27.2947 58.6059 26.8059 59.0947 26.8059 59.6977C26.8059 60.3007 27.2947 60.7895 27.8977 60.7895Z" fill="#2F3F55"/>
<path d="M34.2577 60.7895C34.8607 60.7895 35.3495 60.3007 35.3495 59.6977C35.3495 59.0947 34.8607 58.6059 34.2577 58.6059C33.6547 58.6059 33.1659 59.0947 33.1659 59.6977C33.1659 60.3007 33.6547 60.7895 34.2577 60.7895Z" fill="#2F3F55"/>
<path d="M43.7976 60.7895C44.4006 60.7895 44.8894 60.3007 44.8894 59.6977C44.8894 59.0947 44.4006 58.6059 43.7976 58.6059C43.1946 58.6059 42.7058 59.0947 42.7058 59.6977C42.7058 60.3007 43.1946 60.7895 43.7976 60.7895Z" fill="#2F3F55"/>
<path d="M46.9778 60.7895C47.5808 60.7895 48.0696 60.3007 48.0696 59.6977C48.0696 59.0947 47.5808 58.6059 46.9778 58.6059C46.3748 58.6059 45.886 59.0947 45.886 59.6977C45.886 60.3007 46.3748 60.7895 46.9778 60.7895Z" fill="#2F3F55"/>
<path d="M50.1577 60.7895C50.7607 60.7895 51.2495 60.3007 51.2495 59.6977C51.2495 59.0947 50.7607 58.6059 50.1577 58.6059C49.5547 58.6059 49.0659 59.0947 49.0659 59.6977C49.0659 60.3007 49.5547 60.7895 50.1577 60.7895Z" fill="#2F3F55"/>
<path d="M56.5177 60.7895C57.1207 60.7895 57.6095 60.3007 57.6095 59.6977C57.6095 59.0947 57.1207 58.6059 56.5177 58.6059C55.9147 58.6059 55.4259 59.0947 55.4259 59.6977C55.4259 60.3007 55.9147 60.7895 56.5177 60.7895Z" fill="#2F3F55"/>
<path d="M59.6978 60.7895C60.3007 60.7895 60.7896 60.3007 60.7896 59.6977C60.7896 59.0947 60.3007 58.6059 59.6978 58.6059C59.0948 58.6059 58.606 59.0947 58.606 59.6977C58.606 60.3007 59.0948 60.7895 59.6978 60.7895Z" fill="#2F3F55"/>
<path d="M62.8777 60.7895C63.4807 60.7895 63.9695 60.3007 63.9695 59.6977C63.9695 59.0947 63.4807 58.6059 62.8777 58.6059C62.2747 58.6059 61.7859 59.0947 61.7859 59.6977C61.7859 60.3007 62.2747 60.7895 62.8777 60.7895Z" fill="#2F3F55"/>
<path d="M66.0577 60.7895C66.6607 60.7895 67.1495 60.3007 67.1495 59.6977C67.1495 59.0947 66.6607 58.6059 66.0577 58.6059C65.4548 58.6059 64.9659 59.0947 64.9659 59.6977C64.9659 60.3007 65.4548 60.7895 66.0577 60.7895Z" fill="#2F3F55"/>
<path d="M72.4177 60.7895C73.0207 60.7895 73.5095 60.3007 73.5095 59.6977C73.5095 59.0947 73.0207 58.6059 72.4177 58.6059C71.8147 58.6059 71.3259 59.0947 71.3259 59.6977C71.3259 60.3007 71.8147 60.7895 72.4177 60.7895Z" fill="#2F3F55"/>
<path d="M75.5978 60.7895C76.2008 60.7895 76.6896 60.3007 76.6896 59.6977C76.6896 59.0947 76.2008 58.6059 75.5978 58.6059C74.9948 58.6059 74.506 59.0947 74.506 59.6977C74.506 60.3007 74.9948 60.7895 75.5978 60.7895Z" fill="#2F3F55"/>
<path d="M81.9576 60.7895C82.5606 60.7895 83.0494 60.3007 83.0494 59.6977C83.0494 59.0947 82.5606 58.6059 81.9576 58.6059C81.3547 58.6059 80.8658 59.0947 80.8658 59.6977C80.8658 60.3007 81.3547 60.7895 81.9576 60.7895Z" fill="#2F3F55"/>
<path d="M88.3178 60.7895C88.9207 60.7895 89.4096 60.3007 89.4096 59.6977C89.4096 59.0947 88.9207 58.6059 88.3178 58.6059C87.7148 58.6059 87.226 59.0947 87.226 59.6977C87.226 60.3007 87.7148 60.7895 88.3178 60.7895Z" fill="#2F3F55"/>
<path d="M94.6776 60.7895C95.2806 60.7895 95.7694 60.3007 95.7694 59.6977C95.7694 59.0947 95.2806 58.6059 94.6776 58.6059C94.0746 58.6059 93.5858 59.0947 93.5858 59.6977C93.5858 60.3007 94.0746 60.7895 94.6776 60.7895Z" fill="#2F3F55"/>
<path d="M5.63758 63.9695C6.24056 63.9695 6.72938 63.4807 6.72938 62.8777C6.72938 62.2747 6.24056 61.7859 5.63758 61.7859C5.03459 61.7859 4.54578 62.2747 4.54578 62.8777C4.54578 63.4807 5.03459 63.9695 5.63758 63.9695Z" fill="#2F3F55"/>
<path d="M11.9977 63.9695C12.6007 63.9695 13.0895 63.4807 13.0895 62.8777C13.0895 62.2747 12.6007 61.7859 11.9977 61.7859C11.3947 61.7859 10.9059 62.2747 10.9059 62.8777C10.9059 63.4807 11.3947 63.9695 11.9977 63.9695Z" fill="#2F3F55"/>
<path d="M15.1776 63.9695C15.7806 63.9695 16.2694 63.4807 16.2694 62.8777C16.2694 62.2747 15.7806 61.7859 15.1776 61.7859C14.5746 61.7859 14.0858 62.2747 14.0858 62.8777C14.0858 63.4807 14.5746 63.9695 15.1776 63.9695Z" fill="#2F3F55"/>
<path d="M21.5377 63.9695C22.1407 63.9695 22.6295 63.4807 22.6295 62.8777C22.6295 62.2747 22.1407 61.7859 21.5377 61.7859C20.9347 61.7859 20.4459 62.2747 20.4459 62.8777C20.4459 63.4807 20.9347 63.9695 21.5377 63.9695Z" fill="#2F3F55"/>
<path d="M24.7177 63.9695C25.3206 63.9695 25.8095 63.4807 25.8095 62.8777C25.8095 62.2747 25.3206 61.7859 24.7177 61.7859C24.1147 61.7859 23.6259 62.2747 23.6259 62.8777C23.6259 63.4807 24.1147 63.9695 24.7177 63.9695Z" fill="#2F3F55"/>
<path d="M34.2577 63.9695C34.8607 63.9695 35.3495 63.4807 35.3495 62.8777C35.3495 62.2747 34.8607 61.7859 34.2577 61.7859C33.6547 61.7859 33.1659 62.2747 33.1659 62.8777C33.1659 63.4807 33.6547 63.9695 34.2577 63.9695Z" fill="#2F3F55"/>
<path d="M37.4377 63.9695C38.0407 63.9695 38.5295 63.4807 38.5295 62.8777C38.5295 62.2747 38.0407 61.7859 37.4377 61.7859C36.8348 61.7859 36.3459 62.2747 36.3459 62.8777C36.3459 63.4807 36.8348 63.9695 37.4377 63.9695Z" fill="#2F3F55"/>
<path d="M46.9778 63.9695C47.5808 63.9695 48.0696 63.4807 48.0696 62.8777C48.0696 62.2747 47.5808 61.7859 46.9778 61.7859C46.3748 61.7859 45.886 62.2747 45.886 62.8777C45.886 63.4807 46.3748 63.9695 46.9778 63.9695Z" fill="#2F3F55"/>
<path d="M50.1577 63.9695C50.7607 63.9695 51.2495 63.4807 51.2495 62.8777C51.2495 62.2747 50.7607 61.7859 50.1577 61.7859C49.5547 61.7859 49.0659 62.2747 49.0659 62.8777C49.0659 63.4807 49.5547 63.9695 50.1577 63.9695Z" fill="#2F3F55"/>
<path d="M53.3376 63.9695C53.9406 63.9695 54.4294 63.4807 54.4294 62.8777C54.4294 62.2747 53.9406 61.7859 53.3376 61.7859C52.7347 61.7859 52.2458 62.2747 52.2458 62.8777C52.2458 63.4807 52.7347 63.9695 53.3376 63.9695Z" fill="#2F3F55"/>
<path d="M56.5177 63.9695C57.1207 63.9695 57.6095 63.4807 57.6095 62.8777C57.6095 62.2747 57.1207 61.7859 56.5177 61.7859C55.9147 61.7859 55.4259 62.2747 55.4259 62.8777C55.4259 63.4807 55.9147 63.9695 56.5177 63.9695Z" fill="#2F3F55"/>
<path d="M59.6978 63.9695C60.3007 63.9695 60.7896 63.4807 60.7896 62.8777C60.7896 62.2747 60.3007 61.7859 59.6978 61.7859C59.0948 61.7859 58.606 62.2747 58.606 62.8777C58.606 63.4807 59.0948 63.9695 59.6978 63.9695Z" fill="#2F3F55"/>
<path d="M69.2377 63.9695C69.8407 63.9695 70.3295 63.4807 70.3295 62.8777C70.3295 62.2747 69.8407 61.7859 69.2377 61.7859C68.6347 61.7859 68.1459 62.2747 68.1459 62.8777C68.1459 63.4807 68.6347 63.9695 69.2377 63.9695Z" fill="#2F3F55"/>
<path d="M75.5978 63.9695C76.2008 63.9695 76.6896 63.4807 76.6896 62.8777C76.6896 62.2747 76.2008 61.7859 75.5978 61.7859C74.9948 61.7859 74.506 62.2747 74.506 62.8777C74.506 63.4807 74.9948 63.9695 75.5978 63.9695Z" fill="#2F3F55"/>
<path d="M78.7777 63.9695C79.3807 63.9695 79.8695 63.4807 79.8695 62.8777C79.8695 62.2747 79.3807 61.7859 78.7777 61.7859C78.1747 61.7859 77.6859 62.2747 77.6859 62.8777C77.6859 63.4807 78.1747 63.9695 78.7777 63.9695Z" fill="#2F3F55"/>
<path d="M81.9576 63.9695C82.5606 63.9695 83.0494 63.4807 83.0494 62.8777C83.0494 62.2747 82.5606 61.7859 81.9576 61.7859C81.3547 61.7859 80.8658 62.2747 80.8658 62.8777C80.8658 63.4807 81.3547 63.9695 81.9576 63.9695Z" fill="#2F3F55"/>
<path d="M88.3178 63.9695C88.9207 63.9695 89.4096 63.4807 89.4096 62.8777C89.4096 62.2747 88.9207 61.7859 88.3178 61.7859C87.7148 61.7859 87.226 62.2747 87.226 62.8777C87.226 63.4807 87.7148 63.9695 88.3178 63.9695Z" fill="#2F3F55"/>
<path d="M5.63758 67.1495C6.24056 67.1495 6.72938 66.6607 6.72938 66.0577C6.72938 65.4547 6.24056 64.9659 5.63758 64.9659C5.03459 64.9659 4.54578 65.4547 4.54578 66.0577C4.54578 66.6607 5.03459 67.1495 5.63758 67.1495Z" fill="#2F3F55"/>
<path d="M15.1776 67.1495C15.7806 67.1495 16.2694 66.6607 16.2694 66.0577C16.2694 65.4547 15.7806 64.9659 15.1776 64.9659C14.5746 64.9659 14.0858 65.4547 14.0858 66.0577C14.0858 66.6607 14.5746 67.1495 15.1776 67.1495Z" fill="#2F3F55"/>
<path d="M18.3577 67.1495C18.9607 67.1495 19.4495 66.6607 19.4495 66.0577C19.4495 65.4547 18.9607 64.9659 18.3577 64.9659C17.7547 64.9659 17.2659 65.4547 17.2659 66.0577C17.2659 66.6607 17.7547 67.1495 18.3577 67.1495Z" fill="#2F3F55"/>
<path d="M34.2577 67.1495C34.8607 67.1495 35.3495 66.6607 35.3495 66.0577C35.3495 65.4547 34.8607 64.9659 34.2577 64.9659C33.6547 64.9659 33.1659 65.4547 33.1659 66.0577C33.1659 66.6607 33.6547 67.1495 34.2577 67.1495Z" fill="#2F3F55"/>
<path d="M43.7976 67.1495C44.4006 67.1495 44.8894 66.6607 44.8894 66.0577C44.8894 65.4547 44.4006 64.9659 43.7976 64.9659C43.1946 64.9659 42.7058 65.4547 42.7058 66.0577C42.7058 66.6607 43.1946 67.1495 43.7976 67.1495Z" fill="#2F3F55"/>
<path d="M46.9778 67.1495C47.5808 67.1495 48.0696 66.6607 48.0696 66.0577C48.0696 65.4547 47.5808 64.9659 46.9778 64.9659C46.3748 64.9659 45.886 65.4547 45.886 66.0577C45.886 66.6607 46.3748 67.1495 46.9778 67.1495Z" fill="#2F3F55"/>
<path d="M53.3376 67.1495C53.9406 67.1495 54.4294 66.6607 54.4294 66.0577C54.4294 65.4547 53.9406 64.9659 53.3376 64.9659C52.7347 64.9659 52.2458 65.4547 52.2458 66.0577C52.2458 66.6607 52.7347 67.1495 53.3376 67.1495Z" fill="#2F3F55"/>
<path d="M75.5978 67.1495C76.2008 67.1495 76.6896 66.6607 76.6896 66.0577C76.6896 65.4547 76.2008 64.9659 75.5978 64.9659C74.9948 64.9659 74.506 65.4547 74.506 66.0577C74.506 66.6607 74.9948 67.1495 75.5978 67.1495Z" fill="#2F3F55"/>
<path d="M78.7777 67.1495C79.3807 67.1495 79.8695 66.6607 79.8695 66.0577C79.8695 65.4547 79.3807 64.9659 78.7777 64.9659C78.1747 64.9659 77.6859 65.4547 77.6859 66.0577C77.6859 66.6607 78.1747 67.1495 78.7777 67.1495Z" fill="#2F3F55"/>
<path d="M91.4977 67.1495C92.1007 67.1495 92.5895 66.6607 92.5895 66.0577C92.5895 65.4547 92.1007 64.9659 91.4977 64.9659C90.8947 64.9659 90.4059 65.4547 90.4059 66.0577C90.4059 66.6607 90.8947 67.1495 91.4977 67.1495Z" fill="#2F3F55"/>
<path d="M5.63758 70.3295C6.24056 70.3295 6.72938 69.8407 6.72938 69.2377C6.72938 68.6347 6.24056 68.1459 5.63758 68.1459C5.03459 68.1459 4.54578 68.6347 4.54578 69.2377C4.54578 69.8407 5.03459 70.3295 5.63758 70.3295Z" fill="#2F3F55"/>
<path d="M15.1776 70.3295C15.7806 70.3295 16.2694 69.8407 16.2694 69.2377C16.2694 68.6347 15.7806 68.1459 15.1776 68.1459C14.5746 68.1459 14.0858 68.6347 14.0858 69.2377C14.0858 69.8407 14.5746 70.3295 15.1776 70.3295Z" fill="#2F3F55"/>
<path d="M24.7177 70.3295C25.3206 70.3295 25.8095 69.8407 25.8095 69.2377C25.8095 68.6347 25.3206 68.1459 24.7177 68.1459C24.1147 68.1459 23.6259 68.6347 23.6259 69.2377C23.6259 69.8407 24.1147 70.3295 24.7177 70.3295Z" fill="#2F3F55"/>
<path d="M27.8977 70.3295C28.5007 70.3295 28.9895 69.8407 28.9895 69.2377C28.9895 68.6347 28.5007 68.1459 27.8977 68.1459C27.2947 68.1459 26.8059 68.6347 26.8059 69.2377C26.8059 69.8407 27.2947 70.3295 27.8977 70.3295Z" fill="#2F3F55"/>
<path d="M43.7976 70.3295C44.4006 70.3295 44.8894 69.8407 44.8894 69.2377C44.8894 68.6347 44.4006 68.1459 43.7976 68.1459C43.1946 68.1459 42.7058 68.6347 42.7058 69.2377C42.7058 69.8407 43.1946 70.3295 43.7976 70.3295Z" fill="#2F3F55"/>
<path d="M50.1577 70.3295C50.7607 70.3295 51.2495 69.8407 51.2495 69.2377C51.2495 68.6347 50.7607 68.1459 50.1577 68.1459C49.5547 68.1459 49.0659 68.6347 49.0659 69.2377C49.0659 69.8407 49.5547 70.3295 50.1577 70.3295Z" fill="#2F3F55"/>
<path d="M59.6978 70.3295C60.3007 70.3295 60.7896 69.8407 60.7896 69.2377C60.7896 68.6347 60.3007 68.1459 59.6978 68.1459C59.0948 68.1459 58.606 68.6347 58.606 69.2377C58.606 69.8407 59.0948 70.3295 59.6978 70.3295Z" fill="#2F3F55"/>
<path d="M66.0577 70.3295C66.6607 70.3295 67.1495 69.8407 67.1495 69.2377C67.1495 68.6347 66.6607 68.1459 66.0577 68.1459C65.4548 68.1459 64.9659 68.6347 64.9659 69.2377C64.9659 69.8407 65.4548 70.3295 66.0577 70.3295Z" fill="#2F3F55"/>
<path d="M69.2377 70.3295C69.8407 70.3295 70.3295 69.8407 70.3295 69.2377C70.3295 68.6347 69.8407 68.1459 69.2377 68.1459C68.6347 68.1459 68.1459 68.6347 68.1459 69.2377C68.1459 69.8407 68.6347 70.3295 69.2377 70.3295Z" fill="#2F3F55"/>
<path d="M72.4177 70.3295C73.0207 70.3295 73.5095 69.8407 73.5095 69.2377C73.5095 68.6347 73.0207 68.1459 72.4177 68.1459C71.8147 68.1459 71.3259 68.6347 71.3259 69.2377C71.3259 69.8407 71.8147 70.3295 72.4177 70.3295Z" fill="#2F3F55"/>
<path d="M75.5978 70.3295C76.2008 70.3295 76.6896 69.8407 76.6896 69.2377C76.6896 68.6347 76.2008 68.1459 75.5978 68.1459C74.9948 68.1459 74.506 68.6347 74.506 69.2377C74.506 69.8407 74.9948 70.3295 75.5978 70.3295Z" fill="#2F3F55"/>
<path d="M78.7777 70.3295C79.3807 70.3295 79.8695 69.8407 79.8695 69.2377C79.8695 68.6347 79.3807 68.1459 78.7777 68.1459C78.1747 68.1459 77.6859 68.6347 77.6859 69.2377C77.6859 69.8407 78.1747 70.3295 78.7777 70.3295Z" fill="#2F3F55"/>
<path d="M81.9576 70.3295C82.5606 70.3295 83.0494 69.8407 83.0494 69.2377C83.0494 68.6347 82.5606 68.1459 81.9576 68.1459C81.3547 68.1459 80.8658 68.6347 80.8658 69.2377C80.8658 69.8407 81.3547 70.3295 81.9576 70.3295Z" fill="#2F3F55"/>
<path d="M88.3178 70.3295C88.9207 70.3295 89.4096 69.8407 89.4096 69.2377C89.4096 68.6347 88.9207 68.1459 88.3178 68.1459C87.7148 68.1459 87.226 68.6347 87.226 69.2377C87.226 69.8407 87.7148 70.3295 88.3178 70.3295Z" fill="#2F3F55"/>
<path d="M91.4977 70.3295C92.1007 70.3295 92.5895 69.8407 92.5895 69.2377C92.5895 68.6347 92.1007 68.1459 91.4977 68.1459C90.8947 68.1459 90.4059 68.6347 90.4059 69.2377C90.4059 69.8407 90.8947 70.3295 91.4977 70.3295Z" fill="#2F3F55"/>
<path d="M94.6776 70.3295C95.2806 70.3295 95.7694 69.8407 95.7694 69.2377C95.7694 68.6347 95.2806 68.1459 94.6776 68.1459C94.0746 68.1459 93.5858 68.6347 93.5858 69.2377C93.5858 69.8407 94.0746 70.3295 94.6776 70.3295Z" fill="#2F3F55"/>
<path d="M31.0776 73.5095C31.6806 73.5095 32.1694 73.0207 32.1694 72.4177C32.1694 71.8147 31.6806 71.3259 31.0776 71.3259C30.4747 71.3259 29.9858 71.8147 29.9858 72.4177C29.9858 73.0207 30.4747 73.5095 31.0776 73.5095Z" fill="#2F3F55"/>
<path d="M34.2577 73.5095C34.8607 73.5095 35.3495 73.0207 35.3495 72.4177C35.3495 71.8147 34.8607 71.3259 34.2577 71.3259C33.6547 71.3259 33.1659 71.8147 33.1659 72.4177C33.1659 73.0207 33.6547 73.5095 34.2577 73.5095Z" fill="#2F3F55"/>
<path d="M56.5177 73.5095C57.1207 73.5095 57.6095 73.0207 57.6095 72.4177C57.6095 71.8147 57.1207 71.3259 56.5177 71.3259C55.9147 71.3259 55.4259 71.8147 55.4259 72.4177C55.4259 73.0207 55.9147 73.5095 56.5177 73.5095Z" fill="#2F3F55"/>
<path d="M66.0577 73.5095C66.6607 73.5095 67.1495 73.0207 67.1495 72.4177C67.1495 71.8147 66.6607 71.3259 66.0577 71.3259C65.4548 71.3259 64.9659 71.8147 64.9659 72.4177C64.9659 73.0207 65.4548 73.5095 66.0577 73.5095Z" fill="#2F3F55"/>
<path d="M69.2377 73.5095C69.8407 73.5095 70.3295 73.0207 70.3295 72.4177C70.3295 71.8147 69.8407 71.3259 69.2377 71.3259C68.6347 71.3259 68.1459 71.8147 68.1459 72.4177C68.1459 73.0207 68.6347 73.5095 69.2377 73.5095Z" fill="#2F3F55"/>
<path d="M81.9576 73.5095C82.5606 73.5095 83.0494 73.0207 83.0494 72.4177C83.0494 71.8147 82.5606 71.3259 81.9576 71.3259C81.3547 71.3259 80.8658 71.8147 80.8658 72.4177C80.8658 73.0207 81.3547 73.5095 81.9576 73.5095Z" fill="#2F3F55"/>
<path d="M85.1377 73.5095C85.7407 73.5095 86.2295 73.0207 86.2295 72.4177C86.2295 71.8147 85.7407 71.3259 85.1377 71.3259C84.5347 71.3259 84.0459 71.8147 84.0459 72.4177C84.0459 73.0207 84.5347 73.5095 85.1377 73.5095Z" fill="#2F3F55"/>
<path d="M88.3178 73.5095C88.9207 73.5095 89.4096 73.0207 89.4096 72.4177C89.4096 71.8147 88.9207 71.3259 88.3178 71.3259C87.7148 71.3259 87.226 71.8147 87.226 72.4177C87.226 73.0207 87.7148 73.5095 88.3178 73.5095Z" fill="#2F3F55"/>
<path d="M91.4977 73.5095C92.1007 73.5095 92.5895 73.0207 92.5895 72.4177C92.5895 71.8147 92.1007 71.3259 91.4977 71.3259C90.8947 71.3259 90.4059 71.8147 90.4059 72.4177C90.4059 73.0207 90.8947 73.5095 91.4977 73.5095Z" fill="#2F3F55"/>
<path d="M94.6776 73.5095C95.2806 73.5095 95.7694 73.0207 95.7694 72.4177C95.7694 71.8147 95.2806 71.3259 94.6776 71.3259C94.0746 71.3259 93.5858 71.8147 93.5858 72.4177C93.5858 73.0207 94.0746 73.5095 94.6776 73.5095Z" fill="#2F3F55"/>
<path d="M31.0776 76.6895C31.6806 76.6895 32.1694 76.2007 32.1694 75.5977C32.1694 74.9947 31.6806 74.5059 31.0776 74.5059C30.4747 74.5059 29.9858 74.9947 29.9858 75.5977C29.9858 76.2007 30.4747 76.6895 31.0776 76.6895Z" fill="#2F3F55"/>
<path d="M34.2577 76.6895C34.8607 76.6895 35.3495 76.2007 35.3495 75.5977C35.3495 74.9947 34.8607 74.5059 34.2577 74.5059C33.6547 74.5059 33.1659 74.9947 33.1659 75.5977C33.1659 76.2007 33.6547 76.6895 34.2577 76.6895Z" fill="#2F3F55"/>
<path d="M37.4377 76.6895C38.0407 76.6895 38.5295 76.2007 38.5295 75.5977C38.5295 74.9947 38.0407 74.5059 37.4377 74.5059C36.8348 74.5059 36.3459 74.9947 36.3459 75.5977C36.3459 76.2007 36.8348 76.6895 37.4377 76.6895Z" fill="#2F3F55"/>
<path d="M40.6177 76.6895C41.2207 76.6895 41.7095 76.2007 41.7095 75.5977C41.7095 74.9947 41.2207 74.5059 40.6177 74.5059C40.0147 74.5059 39.5259 74.9947 39.5259 75.5977C39.5259 76.2007 40.0147 76.6895 40.6177 76.6895Z" fill="#2F3F55"/>
<path d="M43.7976 76.6895C44.4006 76.6895 44.8894 76.2007 44.8894 75.5977C44.8894 74.9947 44.4006 74.5059 43.7976 74.5059C43.1946 74.5059 42.7058 74.9947 42.7058 75.5977C42.7058 76.2007 43.1946 76.6895 43.7976 76.6895Z" fill="#2F3F55"/>
<path d="M53.3376 76.6895C53.9406 76.6895 54.4294 76.2007 54.4294 75.5977C54.4294 74.9947 53.9406 74.5059 53.3376 74.5059C52.7347 74.5059 52.2458 74.9947 52.2458 75.5977C52.2458 76.2007 52.7347 76.6895 53.3376 76.6895Z" fill="#2F3F55"/>
<path d="M59.6978 76.6895C60.3007 76.6895 60.7896 76.2007 60.7896 75.5977C60.7896 74.9947 60.3007 74.5059 59.6978 74.5059C59.0948 74.5059 58.606 74.9947 58.606 75.5977C58.606 76.2007 59.0948 76.6895 59.6978 76.6895Z" fill="#2F3F55"/>
<path d="M66.0577 76.6895C66.6607 76.6895 67.1495 76.2007 67.1495 75.5977C67.1495 74.9947 66.6607 74.5059 66.0577 74.5059C65.4548 74.5059 64.9659 74.9947 64.9659 75.5977C64.9659 76.2007 65.4548 76.6895 66.0577 76.6895Z" fill="#2F3F55"/>
<path d="M69.2377 76.6895C69.8407 76.6895 70.3295 76.2007 70.3295 75.5977C70.3295 74.9947 69.8407 74.5059 69.2377 74.5059C68.6347 74.5059 68.1459 74.9947 68.1459 75.5977C68.1459 76.2007 68.6347 76.6895 69.2377 76.6895Z" fill="#2F3F55"/>
<path d="M75.5978 76.6895C76.2008 76.6895 76.6896 76.2007 76.6896 75.5977C76.6896 74.9947 76.2008 74.5059 75.5978 74.5059C74.9948 74.5059 74.506 74.9947 74.506 75.5977C74.506 76.2007 74.9948 76.6895 75.5978 76.6895Z" fill="#2F3F55"/>
<path d="M81.9576 76.6895C82.5606 76.6895 83.0494 76.2007 83.0494 75.5977C83.0494 74.9947 82.5606 74.5059 81.9576 74.5059C81.3547 74.5059 80.8658 74.9947 80.8658 75.5977C80.8658 76.2007 81.3547 76.6895 81.9576 76.6895Z" fill="#2F3F55"/>
<path d="M85.1377 76.6895C85.7407 76.6895 86.2295 76.2007 86.2295 75.5977C86.2295 74.9947 85.7407 74.5059 85.1377 74.5059C84.5347 74.5059 84.0459 74.9947 84.0459 75.5977C84.0459 76.2007 84.5347 76.6895 85.1377 76.6895Z" fill="#2F3F55"/>
<path d="M88.3178 76.6895C88.9207 76.6895 89.4096 76.2007 89.4096 75.5977C89.4096 74.9947 88.9207 74.5059 88.3178 74.5059C87.7148 74.5059 87.226 74.9947 87.226 75.5977C87.226 76.2007 87.7148 76.6895 88.3178 76.6895Z" fill="#2F3F55"/>
<path d="M34.2577 79.8695C34.8607 79.8695 35.3495 79.3807 35.3495 78.7777C35.3495 78.1747 34.8607 77.6859 34.2577 77.6859C33.6547 77.6859 33.1659 78.1747 33.1659 78.7777C33.1659 79.3807 33.6547 79.8695 34.2577 79.8695Z" fill="#2F3F55"/>
<path d="M37.4377 79.8695C38.0407 79.8695 38.5295 79.3807 38.5295 78.7777C38.5295 78.1747 38.0407 77.6859 37.4377 77.6859C36.8348 77.6859 36.3459 78.1747 36.3459 78.7777C36.3459 79.3807 36.8348 79.8695 37.4377 79.8695Z" fill="#2F3F55"/>
<path d="M40.6177 79.8695C41.2207 79.8695 41.7095 79.3807 41.7095 78.7777C41.7095 78.1747 41.2207 77.6859 40.6177 77.6859C40.0147 77.6859 39.5259 78.1747 39.5259 78.7777C39.5259 79.3807 40.0147 79.8695 40.6177 79.8695Z" fill="#2F3F55"/>
<path d="M50.1577 79.8695C50.7607 79.8695 51.2495 79.3807 51.2495 78.7777C51.2495 78.1747 50.7607 77.6859 50.1577 77.6859C49.5547 77.6859 49.0659 78.1747 49.0659 78.7777C49.0659 79.3807 49.5547 79.8695 50.1577 79.8695Z" fill="#2F3F55"/>
<path d="M53.3376 79.8695C53.9406 79.8695 54.4294 79.3807 54.4294 78.7777C54.4294 78.1747 53.9406 77.6859 53.3376 77.6859C52.7347 77.6859 52.2458 78.1747 52.2458 78.7777C52.2458 79.3807 52.7347 79.8695 53.3376 79.8695Z" fill="#2F3F55"/>
<path d="M56.5177 79.8695C57.1207 79.8695 57.6095 79.3807 57.6095 78.7777C57.6095 78.1747 57.1207 77.6859 56.5177 77.6859C55.9147 77.6859 55.4259 78.1747 55.4259 78.7777C55.4259 79.3807 55.9147 79.8695 56.5177 79.8695Z" fill="#2F3F55"/>
<path d="M62.8777 79.8695C63.4807 79.8695 63.9695 79.3807 63.9695 78.7777C63.9695 78.1747 63.4807 77.6859 62.8777 77.6859C62.2747 77.6859 61.7859 78.1747 61.7859 78.7777C61.7859 79.3807 62.2747 79.8695 62.8777 79.8695Z" fill="#2F3F55"/>
<path d="M66.0577 79.8695C66.6607 79.8695 67.1495 79.3807 67.1495 78.7777C67.1495 78.1747 66.6607 77.6859 66.0577 77.6859C65.4548 77.6859 64.9659 78.1747 64.9659 78.7777C64.9659 79.3807 65.4548 79.8695 66.0577 79.8695Z" fill="#2F3F55"/>
<path d="M69.2377 79.8695C69.8407 79.8695 70.3295 79.3807 70.3295 78.7777C70.3295 78.1747 69.8407 77.6859 69.2377 77.6859C68.6347 77.6859 68.1459 78.1747 68.1459 78.7777C68.1459 79.3807 68.6347 79.8695 69.2377 79.8695Z" fill="#2F3F55"/>
<path d="M81.9576 79.8695C82.5606 79.8695 83.0494 79.3807 83.0494 78.7777C83.0494 78.1747 82.5606 77.6859 81.9576 77.6859C81.3547 77.6859 80.8658 78.1747 80.8658 78.7777C80.8658 79.3807 81.3547 79.8695 81.9576 79.8695Z" fill="#2F3F55"/>
<path d="M91.4977 79.8695C92.1007 79.8695 92.5895 79.3807 92.5895 78.7777C92.5895 78.1747 92.1007 77.6859 91.4977 77.6859C90.8947 77.6859 90.4059 78.1747 90.4059 78.7777C90.4059 79.3807 90.8947 79.8695 91.4977 79.8695Z" fill="#2F3F55"/>
<path d="M31.0776 83.0495C31.6806 83.0495 32.1694 82.5607 32.1694 81.9577C32.1694 81.3547 31.6806 80.8659 31.0776 80.8659C30.4747 80.8659 29.9858 81.3547 29.9858 81.9577C29.9858 82.5607 30.4747 83.0495 31.0776 83.0495Z" fill="#2F3F55"/>
<path d="M40.6177 83.0495C41.2207 83.0495 41.7095 82.5607 41.7095 81.9577C41.7095 81.3547 41.2207 80.8659 40.6177 80.8659C40.0147 80.8659 39.5259 81.3547 39.5259 81.9577C39.5259 82.5607 40.0147 83.0495 40.6177 83.0495Z" fill="#2F3F55"/>
<path d="M53.3376 83.0495C53.9406 83.0495 54.4294 82.5607 54.4294 81.9577C54.4294 81.3547 53.9406 80.8659 53.3376 80.8659C52.7347 80.8659 52.2458 81.3547 52.2458 81.9577C52.2458 82.5607 52.7347 83.0495 53.3376 83.0495Z" fill="#2F3F55"/>
<path d="M56.5177 83.0495C57.1207 83.0495 57.6095 82.5607 57.6095 81.9577C57.6095 81.3547 57.1207 80.8659 56.5177 80.8659C55.9147 80.8659 55.4259 81.3547 55.4259 81.9577C55.4259 82.5607 55.9147 83.0495 56.5177 83.0495Z" fill="#2F3F55"/>
<path d="M59.6978 83.0495C60.3007 83.0495 60.7896 82.5607 60.7896 81.9577C60.7896 81.3547 60.3007 80.8659 59.6978 80.8659C59.0948 80.8659 58.606 81.3547 58.606 81.9577C58.606 82.5607 59.0948 83.0495 59.6978 83.0495Z" fill="#2F3F55"/>
<path d="M69.2377 83.0495C69.8407 83.0495 70.3295 82.5607 70.3295 81.9577C70.3295 81.3547 69.8407 80.8659 69.2377 80.8659C68.6347 80.8659 68.1459 81.3547 68.1459 81.9577C68.1459 82.5607 68.6347 83.0495 69.2377 83.0495Z" fill="#2F3F55"/>
<path d="M72.4177 83.0495C73.0207 83.0495 73.5095 82.5607 73.5095 81.9577C73.5095 81.3547 73.0207 80.8659 72.4177 80.8659C71.8147 80.8659 71.3259 81.3547 71.3259 81.9577C71.3259 82.5607 71.8147 83.0495 72.4177 83.0495Z" fill="#2F3F55"/>
<path d="M75.5978 83.0495C76.2008 83.0495 76.6896 82.5607 76.6896 81.9577C76.6896 81.3547 76.2008 80.8659 75.5978 80.8659C74.9948 80.8659 74.506 81.3547 74.506 81.9577C74.506 82.5607 74.9948 83.0495 75.5978 83.0495Z" fill="#2F3F55"/>
<path d="M78.7777 83.0495C79.3807 83.0495 79.8695 82.5607 79.8695 81.9577C79.8695 81.3547 79.3807 80.8659 78.7777 80.8659C78.1747 80.8659 77.6859 81.3547 77.6859 81.9577C77.6859 82.5607 78.1747 83.0495 78.7777 83.0495Z" fill="#2F3F55"/>
<path d="M81.9576 83.0495C82.5606 83.0495 83.0494 82.5607 83.0494 81.9577C83.0494 81.3547 82.5606 80.8659 81.9576 80.8659C81.3547 80.8659 80.8658 81.3547 80.8658 81.9577C80.8658 82.5607 81.3547 83.0495 81.9576 83.0495Z" fill="#2F3F55"/>
<path d="M88.3178 83.0495C88.9207 83.0495 89.4096 82.5607 89.4096 81.9577C89.4096 81.3547 88.9207 80.8659 88.3178 80.8659C87.7148 80.8659 87.226 81.3547 87.226 81.9577C87.226 82.5607 87.7148 83.0495 88.3178 83.0495Z" fill="#2F3F55"/>
<path d="M31.0776 86.2295C31.6806 86.2295 32.1694 85.7407 32.1694 85.1377C32.1694 84.5347 31.6806 84.0459 31.0776 84.0459C30.4747 84.0459 29.9858 84.5347 29.9858 85.1377C29.9858 85.7407 30.4747 86.2295 31.0776 86.2295Z" fill="#2F3F55"/>
<path d="M37.4377 86.2295C38.0407 86.2295 38.5295 85.7407 38.5295 85.1377C38.5295 84.5347 38.0407 84.0459 37.4377 84.0459C36.8348 84.0459 36.3459 84.5347 36.3459 85.1377C36.3459 85.7407 36.8348 86.2295 37.4377 86.2295Z" fill="#2F3F55"/>
<path d="M43.7976 86.2295C44.4006 86.2295 44.8894 85.7407 44.8894 85.1377C44.8894 84.5347 44.4006 84.0459 43.7976 84.0459C43.1946 84.0459 42.7058 84.5347 42.7058 85.1377C42.7058 85.7407 43.1946 86.2295 43.7976 86.2295Z" fill="#2F3F55"/>
<path d="M46.9778 86.2295C47.5808 86.2295 48.0696 85.7407 48.0696 85.1377C48.0696 84.5347 47.5808 84.0459 46.9778 84.0459C46.3748 84.0459 45.886 84.5347 45.886 85.1377C45.886 85.7407 46.3748 86.2295 46.9778 86.2295Z" fill="#2F3F55"/>
<path d="M50.1577 86.2295C50.7607 86.2295 51.2495 85.7407 51.2495 85.1377C51.2495 84.5347 50.7607 84.0459 50.1577 84.0459C49.5547 84.0459 49.0659 84.5347 49.0659 85.1377C49.0659 85.7407 49.5547 86.2295 50.1577 86.2295Z" fill="#2F3F55"/>
<path d="M56.5177 86.2295C57.1207 86.2295 57.6095 85.7407 57.6095 85.1377C57.6095 84.5347 57.1207 84.0459 56.5177 84.0459C55.9147 84.0459 55.4259 84.5347 55.4259 85.1377C55.4259 85.7407 55.9147 86.2295 56.5177 86.2295Z" fill="#2F3F55"/>
<path d="M66.0577 86.2295C66.6607 86.2295 67.1495 85.7407 67.1495 85.1377C67.1495 84.5347 66.6607 84.0459 66.0577 84.0459C65.4548 84.0459 64.9659 84.5347 64.9659 85.1377C64.9659 85.7407 65.4548 86.2295 66.0577 86.2295Z" fill="#2F3F55"/>
<path d="M85.1377 86.2295C85.7407 86.2295 86.2295 85.7407 86.2295 85.1377C86.2295 84.5347 85.7407 84.0459 85.1377 84.0459C84.5347 84.0459 84.0459 84.5347 84.0459 85.1377C84.0459 85.7407 84.5347 86.2295 85.1377 86.2295Z" fill="#2F3F55"/>
<path d="M88.3178 86.2295C88.9207 86.2295 89.4096 85.7407 89.4096 85.1377C89.4096 84.5347 88.9207 84.0459 88.3178 84.0459C87.7148 84.0459 87.226 84.5347 87.226 85.1377C87.226 85.7407 87.7148 86.2295 88.3178 86.2295Z" fill="#2F3F55"/>
<path d="M91.4977 86.2295C92.1007 86.2295 92.5895 85.7407 92.5895 85.1377C92.5895 84.5347 92.1007 84.0459 91.4977 84.0459C90.8947 84.0459 90.4059 84.5347 90.4059 85.1377C90.4059 85.7407 90.8947 86.2295 91.4977 86.2295Z" fill="#2F3F55"/>
<path d="M94.6776 86.2295C95.2806 86.2295 95.7694 85.7407 95.7694 85.1377C95.7694 84.5347 95.2806 84.0459 94.6776 84.0459C94.0746 84.0459 93.5858 84.5347 93.5858 85.1377C93.5858 85.7407 94.0746 86.2295 94.6776 86.2295Z" fill="#2F3F55"/>
<path d="M31.0776 89.4095C31.6806 89.4095 32.1694 88.9207 32.1694 88.3177C32.1694 87.7147 31.6806 87.2259 31.0776 87.2259C30.4747 87.2259 29.9858 87.7147 29.9858 88.3177C29.9858 88.9207 30.4747 89.4095 31.0776 89.4095Z" fill="#2F3F55"/>
<path d="M34.2577 89.4095C34.8607 89.4095 35.3495 88.9207 35.3495 88.3177C35.3495 87.7147 34.8607 87.2259 34.2577 87.2259C33.6547 87.2259 33.1659 87.7147 33.1659 88.3177C33.1659 88.9207 33.6547 89.4095 34.2577 89.4095Z" fill="#2F3F55"/>
<path d="M46.9778 89.4095C47.5808 89.4095 48.0696 88.9207 48.0696 88.3177C48.0696 87.7147 47.5808 87.2259 46.9778 87.2259C46.3748 87.2259 45.886 87.7147 45.886 88.3177C45.886 88.9207 46.3748 89.4095 46.9778 89.4095Z" fill="#2F3F55"/>
<path d="M50.1577 89.4095C50.7607 89.4095 51.2495 88.9207 51.2495 88.3177C51.2495 87.7147 50.7607 87.2259 50.1577 87.2259C49.5547 87.2259 49.0659 87.7147 49.0659 88.3177C49.0659 88.9207 49.5547 89.4095 50.1577 89.4095Z" fill="#2F3F55"/>
<path d="M53.3376 89.4095C53.9406 89.4095 54.4294 88.9207 54.4294 88.3177C54.4294 87.7147 53.9406 87.2259 53.3376 87.2259C52.7347 87.2259 52.2458 87.7147 52.2458 88.3177C52.2458 88.9207 52.7347 89.4095 53.3376 89.4095Z" fill="#2F3F55"/>
<path d="M56.5177 89.4095C57.1207 89.4095 57.6095 88.9207 57.6095 88.3177C57.6095 87.7147 57.1207 87.2259 56.5177 87.2259C55.9147 87.2259 55.4259 87.7147 55.4259 88.3177C55.4259 88.9207 55.9147 89.4095 56.5177 89.4095Z" fill="#2F3F55"/>
<path d="M66.0577 89.4095C66.6607 89.4095 67.1495 88.9207 67.1495 88.3177C67.1495 87.7147 66.6607 87.2259 66.0577 87.2259C65.4548 87.2259 64.9659 87.7147 64.9659 88.3177C64.9659 88.9207 65.4548 89.4095 66.0577 89.4095Z" fill="#2F3F55"/>
<path d="M72.4177 89.4095C73.0207 89.4095 73.5095 88.9207 73.5095 88.3177C73.5095 87.7147 73.0207 87.2259 72.4177 87.2259C71.8147 87.2259 71.3259 87.7147 71.3259 88.3177C71.3259 88.9207 71.8147 89.4095 72.4177 89.4095Z" fill="#2F3F55"/>
<path d="M75.5978 89.4095C76.2008 89.4095 76.6896 88.9207 76.6896 88.3177C76.6896 87.7147 76.2008 87.2259 75.5978 87.2259C74.9948 87.2259 74.506 87.7147 74.506 88.3177C74.506 88.9207 74.9948 89.4095 75.5978 89.4095Z" fill="#2F3F55"/>
<path d="M78.7777 89.4095C79.3807 89.4095 79.8695 88.9207 79.8695 88.3177C79.8695 87.7147 79.3807 87.2259 78.7777 87.2259C78.1747 87.2259 77.6859 87.7147 77.6859 88.3177C77.6859 88.9207 78.1747 89.4095 78.7777 89.4095Z" fill="#2F3F55"/>
<path d="M81.9576 89.4095C82.5606 89.4095 83.0494 88.9207 83.0494 88.3177C83.0494 87.7147 82.5606 87.2259 81.9576 87.2259C81.3547 87.2259 80.8658 87.7147 80.8658 88.3177C80.8658 88.9207 81.3547 89.4095 81.9576 89.4095Z" fill="#2F3F55"/>
<path d="M85.1377 89.4095C85.7407 89.4095 86.2295 88.9207 86.2295 88.3177C86.2295 87.7147 85.7407 87.2259 85.1377 87.2259C84.5347 87.2259 84.0459 87.7147 84.0459 88.3177C84.0459 88.9207 84.5347 89.4095 85.1377 89.4095Z" fill="#2F3F55"/>
<path d="M88.3178 89.4095C88.9207 89.4095 89.4096 88.9207 89.4096 88.3177C89.4096 87.7147 88.9207 87.2259 88.3178 87.2259C87.7148 87.2259 87.226 87.7147 87.226 88.3177C87.226 88.9207 87.7148 89.4095 88.3178 89.4095Z" fill="#2F3F55"/>
<path d="M91.4977 89.4095C92.1007 89.4095 92.5895 88.9207 92.5895 88.3177C92.5895 87.7147 92.1007 87.2259 91.4977 87.2259C90.8947 87.2259 90.4059 87.7147 90.4059 88.3177C90.4059 88.9207 90.8947 89.4095 91.4977 89.4095Z" fill="#2F3F55"/>
<path d="M31.0776 92.5895C31.6806 92.5895 32.1694 92.1007 32.1694 91.4977C32.1694 90.8947 31.6806 90.4059 31.0776 90.4059C30.4747 90.4059 29.9858 90.8947 29.9858 91.4977C29.9858 92.1007 30.4747 92.5895 31.0776 92.5895Z" fill="#2F3F55"/>
<path d="M43.7976 92.5895C44.4006 92.5895 44.8894 92.1007 44.8894 91.4977C44.8894 90.8947 44.4006 90.4059 43.7976 90.4059C43.1946 90.4059 42.7058 90.8947 42.7058 91.4977C42.7058 92.1007 43.1946 92.5895 43.7976 92.5895Z" fill="#2F3F55"/>
<path d="M46.9778 92.5895C47.5808 92.5895 48.0696 92.1007 48.0696 91.4977C48.0696 90.8947 47.5808 90.4059 46.9778 90.4059C46.3748 90.4059 45.886 90.8947 45.886 91.4977C45.886 92.1007 46.3748 92.5895 46.9778 92.5895Z" fill="#2F3F55"/>
<path d="M53.3376 92.5895C53.9406 92.5895 54.4294 92.1007 54.4294 91.4977C54.4294 90.8947 53.9406 90.4059 53.3376 90.4059C52.7347 90.4059 52.2458 90.8947 52.2458 91.4977C52.2458 92.1007 52.7347 92.5895 53.3376 92.5895Z" fill="#2F3F55"/>
<path d="M56.5177 92.5895C57.1207 92.5895 57.6095 92.1007 57.6095 91.4977C57.6095 90.8947 57.1207 90.4059 56.5177 90.4059C55.9147 90.4059 55.4259 90.8947 55.4259 91.4977C55.4259 92.1007 55.9147 92.5895 56.5177 92.5895Z" fill="#2F3F55"/>
<path d="M62.8777 92.5895C63.4807 92.5895 63.9695 92.1007 63.9695 91.4977C63.9695 90.8947 63.4807 90.4059 62.8777 90.4059C62.2747 90.4059 61.7859 90.8947 61.7859 91.4977C61.7859 92.1007 62.2747 92.5895 62.8777 92.5895Z" fill="#2F3F55"/>
<path d="M69.2377 92.5895C69.8407 92.5895 70.3295 92.1007 70.3295 91.4977C70.3295 90.8947 69.8407 90.4059 69.2377 90.4059C68.6347 90.4059 68.1459 90.8947 68.1459 91.4977C68.1459 92.1007 68.6347 92.5895 69.2377 92.5895Z" fill="#2F3F55"/>
<path d="M75.5978 92.5895C76.2008 92.5895 76.6896 92.1007 76.6896 91.4977C76.6896 90.8947 76.2008 90.4059 75.5978 90.4059C74.9948 90.4059 74.506 90.8947 74.506 91.4977C74.506 92.1007 74.9948 92.5895 75.5978 92.5895Z" fill="#2F3F55"/>
<path d="M78.7777 92.5895C79.3807 92.5895 79.8695 92.1007 79.8695 91.4977C79.8695 90.8947 79.3807 90.4059 78.7777 90.4059C78.1747 90.4059 77.6859 90.8947 77.6859 91.4977C77.6859 92.1007 78.1747 92.5895 78.7777 92.5895Z" fill="#2F3F55"/>
<path d="M85.1377 92.5895C85.7407 92.5895 86.2295 92.1007 86.2295 91.4977C86.2295 90.8947 85.7407 90.4059 85.1377 90.4059C84.5347 90.4059 84.0459 90.8947 84.0459 91.4977C84.0459 92.1007 84.5347 92.5895 85.1377 92.5895Z" fill="#2F3F55"/>
<path d="M91.4977 92.5895C92.1007 92.5895 92.5895 92.1007 92.5895 91.4977C92.5895 90.8947 92.1007 90.4059 91.4977 90.4059C90.8947 90.4059 90.4059 90.8947 90.4059 91.4977C90.4059 92.1007 90.8947 92.5895 91.4977 92.5895Z" fill="#2F3F55"/>
<path d="M31.0776 95.7695C31.6806 95.7695 32.1694 95.2807 32.1694 94.6777C32.1694 94.0747 31.6806 93.5859 31.0776 93.5859C30.4747 93.5859 29.9858 94.0747 29.9858 94.6777C29.9858 95.2807 30.4747 95.7695 31.0776 95.7695Z" fill="#2F3F55"/>
<path d="M37.4377 95.7695C38.0407 95.7695 38.5295 95.2807 38.5295 94.6777C38.5295 94.0747 38.0407 93.5859 37.4377 93.5859C36.8348 93.5859 36.3459 94.0747 36.3459 94.6777C36.3459 95.2807 36.8348 95.7695 37.4377 95.7695Z" fill="#2F3F55"/>
<path d="M43.7976 95.7695C44.4006 95.7695 44.8894 95.2807 44.8894 94.6777C44.8894 94.0747 44.4006 93.5859 43.7976 93.5859C43.1946 93.5859 42.7058 94.0747 42.7058 94.6777C42.7058 95.2807 43.1946 95.7695 43.7976 95.7695Z" fill="#2F3F55"/>
<path d="M50.1577 95.7695C50.7607 95.7695 51.2495 95.2807 51.2495 94.6777C51.2495 94.0747 50.7607 93.5859 50.1577 93.5859C49.5547 93.5859 49.0659 94.0747 49.0659 94.6777C49.0659 95.2807 49.5547 95.7695 50.1577 95.7695Z" fill="#2F3F55"/>
<path d="M59.6978 95.7695C60.3007 95.7695 60.7896 95.2807 60.7896 94.6777C60.7896 94.0747 60.3007 93.5859 59.6978 93.5859C59.0948 93.5859 58.606 94.0747 58.606 94.6777C58.606 95.2807 59.0948 95.7695 59.6978 95.7695Z" fill="#2F3F55"/>
<path d="M66.0577 95.7695C66.6607 95.7695 67.1495 95.2807 67.1495 94.6777C67.1495 94.0747 66.6607 93.5859 66.0577 93.5859C65.4548 93.5859 64.9659 94.0747 64.9659 94.6777C64.9659 95.2807 65.4548 95.7695 66.0577 95.7695Z" fill="#2F3F55"/>
<path d="M72.4177 95.7695C73.0207 95.7695 73.5095 95.2807 73.5095 94.6777C73.5095 94.0747 73.0207 93.5859 72.4177 93.5859C71.8147 93.5859 71.3259 94.0747 71.3259 94.6777C71.3259 95.2807 71.8147 95.7695 72.4177 95.7695Z" fill="#2F3F55"/>
<path d="M75.5978 95.7695C76.2008 95.7695 76.6896 95.2807 76.6896 94.6777C76.6896 94.0747 76.2008 93.5859 75.5978 93.5859C74.9948 93.5859 74.506 94.0747 74.506 94.6777C74.506 95.2807 74.9948 95.7695 75.5978 95.7695Z" fill="#2F3F55"/>
<path d="M88.3178 95.7695C88.9207 95.7695 89.4096 95.2807 89.4096 94.6777C89.4096 94.0747 88.9207 93.5859 88.3178 93.5859C87.7148 93.5859 87.226 94.0747 87.226 94.6777C87.226 95.2807 87.7148 95.7695 88.3178 95.7695Z" fill="#2F3F55"/>
<path d="M11.155 26.26H19.264C23.08 26.26 26.26 23.08 26.26 19.264V11.155C26.26 7.18 23.08 4 19.105 4H10.996C7.18 4 4 7.18 4 10.996V19.105C4 23.08 7.18 26.26 11.155 26.26ZM23.08 11.632V18.628C23.08 21.013 21.013 23.08 18.628 23.08H11.632C9.088 23.08 7.18 21.172 7.18 18.628V11.632C7.18 9.247 9.247 7.18 11.632 7.18H18.628C21.172 7.18 23.08 9.088 23.08 11.632Z" fill="#2F3F55"/>
<path d="M81.115 26.26H89.224C93.04 26.26 96.22 23.08 96.22 19.264V11.155C96.22 7.18 93.04 4 89.065 4H80.956C77.14 4 73.96 7.18 73.96 10.996V19.105C73.96 23.08 77.14 26.26 81.115 26.26ZM93.04 11.632V18.628C93.04 21.013 90.973 23.08 88.588 23.08H81.592C79.048 23.08 77.14 21.172 77.14 18.628V11.632C77.14 9.247 79.207 7.18 81.592 7.18H88.588C91.132 7.18 93.04 9.088 93.04 11.632Z" fill="#2F3F55"/>
<path d="M11.155 96.22H19.264C23.08 96.22 26.26 93.04 26.26 89.224V81.115C26.26 77.14 23.08 73.96 19.105 73.96H10.996C7.18 73.96 4 77.14 4 80.956V89.065C4 93.04 7.18 96.22 11.155 96.22ZM23.08 81.592V88.588C23.08 90.973 21.013 93.04 18.628 93.04H11.632C9.088 93.04 7.18 91.132 7.18 88.588V81.592C7.18 79.207 9.247 77.14 11.632 77.14H18.628C21.172 77.14 23.08 79.048 23.08 81.592Z" fill="#2F3F55"/>
<path d="M19.9 13.063V17.356C19.9 18.628 18.628 19.9 17.197 19.9H13.063C11.473 19.9 10.36 18.787 10.36 17.197V13.063C10.36 11.632 11.632 10.36 13.063 10.36H17.356C18.787 10.36 19.9 11.473 19.9 13.063Z" fill="#2F3F55"/>
<path d="M89.8601 13.063V17.356C89.8601 18.628 88.5881 19.9 87.1571 19.9H83.0231C81.4331 19.9 80.3201 18.787 80.3201 17.197V13.063C80.3201 11.632 81.5921 10.36 83.0231 10.36H87.3161C88.7471 10.36 89.8601 11.473 89.8601 13.063Z" fill="#2F3F55"/>
<path d="M19.9 83.023V87.316C19.9 88.588 18.628 89.86 17.197 89.86H13.063C11.473 89.86 10.36 88.747 10.36 87.157V83.023C10.36 81.592 11.632 80.32 13.063 80.32H17.356C18.787 80.32 19.9 81.433 19.9 83.023Z" fill="#2F3F55"/>
</svg>
